M48
; DRILL file KiCad 10.0.6 date 2026-10-02T00:37:49
; FORMAT={-:-/ absolute / metric / decimal}
; #@! TF.CreationDate,2026-10-02T00:37:49+05:30
; #@! TF.GenerationSoftware,Kicad,Pcbnew,10.0.6
; #@! TF.FileFunction,MixedPlating,1,2
FMAT,2
METRIC
; #@! TA.AperFunction,Plated,PTH,ViaDrill
T1C0.300
; #@! TA.AperFunction,Plated,PTH,ComponentDrill
T2C0.800
; #@! TA.AperFunction,Plated,PTH,ComponentDrill
T3C1.000
; #@! TA.AperFunction,Plated,PTH,ComponentDrill
T4C1.100
%
G90
G05
T1
X7.0Y-32.5
X10.5Y-14.0
X11.0Y-56.5
X12.25Y-38.25
X12.25Y-45.0
X13.0Y-59.5
X13.0Y-69.0
X15.25Y-33.5
X15.75Y-40.25
X23.0Y-29.0
X23.0Y-32.5
X24.25Y-24.0
X24.5Y-30.0
X24.5Y-31.5
X24.5Y-33.75
X25.0Y-48.25
X25.0Y-60.75
X26.0Y-66.5
X27.0Y-26.0
X27.0Y-32.5
X27.0Y-61.75
X27.25Y-15.5
X27.25Y-47.0
X28.0Y-22.0
X28.5Y-32.75
X28.5Y-45.5
X29.0Y-65.5
X29.25Y-75.75
X29.5Y-24.0
X31.0Y-25.0
X31.0Y-85.5
X32.75Y-48.25
X32.75Y-59.75
X35.0Y-66.0
X35.5Y-22.0
X35.75Y-77.75
X36.75Y-66.0
X37.75Y-64.5
X38.75Y-30.5
X38.75Y-40.75
X38.75Y-48.25
X38.75Y-50.75
X38.75Y-59.75
X38.75Y-66.0
X38.75Y-68.0
X43.0Y-60.75
X43.5Y-32.75
X48.25Y-24.0
X49.25Y-22.5
X52.5Y-21.5
X53.5Y-40.75
X56.0Y-15.5
X57.0Y-40.0
X58.0Y-14.5
X59.25Y-13.0
X67.75Y-44.0
X68.75Y-75.25
X69.0Y-29.0
X71.75Y-31.25
X72.25Y-46.25
X74.0Y-72.25
X74.0Y-84.25
X74.5Y-30.0
X75.5Y-69.25
X76.0Y-71.75
X76.0Y-73.25
X78.0Y-71.5
X78.0Y-74.25
X78.0Y-76.75
X79.0Y-56.5
X79.5Y-76.25
X80.0Y-73.5
X81.0Y-59.5
X81.0Y-76.25
X81.75Y-40.25
X85.25Y-67.5
X85.25Y-70.0
X85.75Y-20.0
X85.75Y-31.0
X85.75Y-41.25
X86.25Y-73.5
T2
X10.0Y-30.0
X10.0Y-32.54
X10.0Y-35.08
X10.0Y-37.62
X10.0Y-40.16
X10.0Y-42.7
X10.0Y-45.24
X17.62Y-30.0
X17.62Y-32.54
X17.62Y-35.08
X17.62Y-37.62
X17.62Y-40.16
X17.62Y-42.7
X17.62Y-45.24
X80.0Y-30.0
X80.0Y-32.54
X80.0Y-35.08
X80.0Y-37.62
X80.0Y-40.16
X80.0Y-42.7
X80.0Y-45.24
X87.62Y-30.0
X87.62Y-32.54
X87.62Y-35.08
X87.62Y-37.62
X87.62Y-40.16
X87.62Y-42.7
X87.62Y-45.24
T3
X8.0Y-8.0
X8.0Y-10.54
X8.0Y-13.08
X8.0Y-65.0
X8.0Y-67.54
X8.0Y-70.08
X8.0Y-72.62
X8.0Y-75.16
X8.0Y-77.7
X25.0Y-8.0
X25.0Y-10.54
X25.0Y-13.08
X25.0Y-15.62
X25.0Y-86.0
X25.0Y-88.54
X25.0Y-91.08
X25.0Y-93.62
X41.11Y-23.87
X41.11Y-26.41
X41.11Y-28.95
X41.11Y-31.49
X41.11Y-34.03
X41.11Y-36.57
X41.11Y-39.11
X41.11Y-41.65
X41.11Y-44.19
X41.11Y-46.73
X41.11Y-49.27
X41.11Y-51.81
X41.11Y-54.35
X41.11Y-56.89
X41.11Y-59.43
X41.11Y-61.97
X41.11Y-64.51
X41.11Y-67.05
X41.11Y-69.59
X41.11Y-72.13
X58.89Y-23.87
X58.89Y-26.41
X58.89Y-28.95
X58.89Y-31.49
X58.89Y-34.03
X58.89Y-36.57
X58.89Y-39.11
X58.89Y-41.65
X58.89Y-44.19
X58.89Y-46.73
X58.89Y-49.27
X58.89Y-51.81
X58.89Y-54.35
X58.89Y-56.89
X58.89Y-59.43
X58.89Y-61.97
X58.89Y-64.51
X58.89Y-67.05
X58.89Y-69.59
X58.89Y-72.13
X75.0Y-8.0
X75.0Y-10.54
X75.0Y-13.08
X75.0Y-15.62
X75.0Y-86.0
X75.0Y-88.54
X75.0Y-91.08
X75.0Y-93.62
X88.0Y-65.0
X88.0Y-67.54
X88.0Y-70.08
X88.0Y-72.62
X88.0Y-75.16
X88.0Y-77.7
T4
X88.0Y-10.0
X88.0Y-14.5
X94.5Y-10.0
X94.5Y-14.5
M30
