%TF.GenerationSoftware,KiCad,Pcbnew,10.0.6*%
%TF.CreationDate,2026-10-02T00:16:14+05:30*%
%TF.ProjectId,traction_carrier,74726163-7469-46f6-9e5f-636172726965,rev?*%
%TF.SameCoordinates,Original*%
%TF.FileFunction,AssemblyDrawing,Top*%
%FSLAX46Y46*%
G04 Gerber Fmt 4.6, Leading zero omitted, Abs format (unit mm)*
G04 Created by KiCad (PCBNEW 10.0.6) date 2026-10-02 00:16:14*
%MOMM*%
%LPD*%
G01*
G04 APERTURE LIST*
%ADD10C,0.150000*%
%ADD11C,0.080000*%
%ADD12C,0.100000*%
G04 APERTURE END LIST*
D10*
X22047619Y-95454819D02*
X22666666Y-95454819D01*
X22666666Y-95454819D02*
X22333333Y-95835771D01*
X22333333Y-95835771D02*
X22476190Y-95835771D01*
X22476190Y-95835771D02*
X22571428Y-95883390D01*
X22571428Y-95883390D02*
X22619047Y-95931009D01*
X22619047Y-95931009D02*
X22666666Y-96026247D01*
X22666666Y-96026247D02*
X22666666Y-96264342D01*
X22666666Y-96264342D02*
X22619047Y-96359580D01*
X22619047Y-96359580D02*
X22571428Y-96407200D01*
X22571428Y-96407200D02*
X22476190Y-96454819D01*
X22476190Y-96454819D02*
X22190476Y-96454819D01*
X22190476Y-96454819D02*
X22095238Y-96407200D01*
X22095238Y-96407200D02*
X22047619Y-96359580D01*
X22952381Y-95454819D02*
X23285714Y-96454819D01*
X23285714Y-96454819D02*
X23619047Y-95454819D01*
X23857143Y-95454819D02*
X24476190Y-95454819D01*
X24476190Y-95454819D02*
X24142857Y-95835771D01*
X24142857Y-95835771D02*
X24285714Y-95835771D01*
X24285714Y-95835771D02*
X24380952Y-95883390D01*
X24380952Y-95883390D02*
X24428571Y-95931009D01*
X24428571Y-95931009D02*
X24476190Y-96026247D01*
X24476190Y-96026247D02*
X24476190Y-96264342D01*
X24476190Y-96264342D02*
X24428571Y-96359580D01*
X24428571Y-96359580D02*
X24380952Y-96407200D01*
X24380952Y-96407200D02*
X24285714Y-96454819D01*
X24285714Y-96454819D02*
X24000000Y-96454819D01*
X24000000Y-96454819D02*
X23904762Y-96407200D01*
X23904762Y-96407200D02*
X23857143Y-96359580D01*
X25666667Y-96454819D02*
X25666667Y-95454819D01*
X26142857Y-96454819D02*
X26142857Y-95454819D01*
X26142857Y-95454819D02*
X26476190Y-96169104D01*
X26476190Y-96169104D02*
X26809523Y-95454819D01*
X26809523Y-95454819D02*
X26809523Y-96454819D01*
X27285714Y-95454819D02*
X27285714Y-96264342D01*
X27285714Y-96264342D02*
X27333333Y-96359580D01*
X27333333Y-96359580D02*
X27380952Y-96407200D01*
X27380952Y-96407200D02*
X27476190Y-96454819D01*
X27476190Y-96454819D02*
X27666666Y-96454819D01*
X27666666Y-96454819D02*
X27761904Y-96407200D01*
X27761904Y-96407200D02*
X27809523Y-96359580D01*
X27809523Y-96359580D02*
X27857142Y-96264342D01*
X27857142Y-96264342D02*
X27857142Y-95454819D01*
X24454819Y-90143333D02*
X25169104Y-90143333D01*
X25169104Y-90143333D02*
X25311961Y-90190952D01*
X25311961Y-90190952D02*
X25407200Y-90286190D01*
X25407200Y-90286190D02*
X25454819Y-90429047D01*
X25454819Y-90429047D02*
X25454819Y-90524285D01*
X24454819Y-89238571D02*
X24454819Y-89429047D01*
X24454819Y-89429047D02*
X24502438Y-89524285D01*
X24502438Y-89524285D02*
X24550057Y-89571904D01*
X24550057Y-89571904D02*
X24692914Y-89667142D01*
X24692914Y-89667142D02*
X24883390Y-89714761D01*
X24883390Y-89714761D02*
X25264342Y-89714761D01*
X25264342Y-89714761D02*
X25359580Y-89667142D01*
X25359580Y-89667142D02*
X25407200Y-89619523D01*
X25407200Y-89619523D02*
X25454819Y-89524285D01*
X25454819Y-89524285D02*
X25454819Y-89333809D01*
X25454819Y-89333809D02*
X25407200Y-89238571D01*
X25407200Y-89238571D02*
X25359580Y-89190952D01*
X25359580Y-89190952D02*
X25264342Y-89143333D01*
X25264342Y-89143333D02*
X25026247Y-89143333D01*
X25026247Y-89143333D02*
X24931009Y-89190952D01*
X24931009Y-89190952D02*
X24883390Y-89238571D01*
X24883390Y-89238571D02*
X24835771Y-89333809D01*
X24835771Y-89333809D02*
X24835771Y-89524285D01*
X24835771Y-89524285D02*
X24883390Y-89619523D01*
X24883390Y-89619523D02*
X24931009Y-89667142D01*
X24931009Y-89667142D02*
X25026247Y-89714761D01*
X73880952Y-37134819D02*
X73309524Y-37134819D01*
X73595238Y-37134819D02*
X73595238Y-36134819D01*
X73595238Y-36134819D02*
X73500000Y-36277676D01*
X73500000Y-36277676D02*
X73404762Y-36372914D01*
X73404762Y-36372914D02*
X73309524Y-36420533D01*
X74500000Y-36134819D02*
X74595238Y-36134819D01*
X74595238Y-36134819D02*
X74690476Y-36182438D01*
X74690476Y-36182438D02*
X74738095Y-36230057D01*
X74738095Y-36230057D02*
X74785714Y-36325295D01*
X74785714Y-36325295D02*
X74833333Y-36515771D01*
X74833333Y-36515771D02*
X74833333Y-36753866D01*
X74833333Y-36753866D02*
X74785714Y-36944342D01*
X74785714Y-36944342D02*
X74738095Y-37039580D01*
X74738095Y-37039580D02*
X74690476Y-37087200D01*
X74690476Y-37087200D02*
X74595238Y-37134819D01*
X74595238Y-37134819D02*
X74500000Y-37134819D01*
X74500000Y-37134819D02*
X74404762Y-37087200D01*
X74404762Y-37087200D02*
X74357143Y-37039580D01*
X74357143Y-37039580D02*
X74309524Y-36944342D01*
X74309524Y-36944342D02*
X74261905Y-36753866D01*
X74261905Y-36753866D02*
X74261905Y-36515771D01*
X74261905Y-36515771D02*
X74309524Y-36325295D01*
X74309524Y-36325295D02*
X74357143Y-36230057D01*
X74357143Y-36230057D02*
X74404762Y-36182438D01*
X74404762Y-36182438D02*
X74500000Y-36134819D01*
X75452381Y-36134819D02*
X75547619Y-36134819D01*
X75547619Y-36134819D02*
X75642857Y-36182438D01*
X75642857Y-36182438D02*
X75690476Y-36230057D01*
X75690476Y-36230057D02*
X75738095Y-36325295D01*
X75738095Y-36325295D02*
X75785714Y-36515771D01*
X75785714Y-36515771D02*
X75785714Y-36753866D01*
X75785714Y-36753866D02*
X75738095Y-36944342D01*
X75738095Y-36944342D02*
X75690476Y-37039580D01*
X75690476Y-37039580D02*
X75642857Y-37087200D01*
X75642857Y-37087200D02*
X75547619Y-37134819D01*
X75547619Y-37134819D02*
X75452381Y-37134819D01*
X75452381Y-37134819D02*
X75357143Y-37087200D01*
X75357143Y-37087200D02*
X75309524Y-37039580D01*
X75309524Y-37039580D02*
X75261905Y-36944342D01*
X75261905Y-36944342D02*
X75214286Y-36753866D01*
X75214286Y-36753866D02*
X75214286Y-36515771D01*
X75214286Y-36515771D02*
X75261905Y-36325295D01*
X75261905Y-36325295D02*
X75309524Y-36230057D01*
X75309524Y-36230057D02*
X75357143Y-36182438D01*
X75357143Y-36182438D02*
X75452381Y-36134819D01*
X76214286Y-36468152D02*
X76214286Y-37134819D01*
X76214286Y-36563390D02*
X76261905Y-36515771D01*
X76261905Y-36515771D02*
X76357143Y-36468152D01*
X76357143Y-36468152D02*
X76500000Y-36468152D01*
X76500000Y-36468152D02*
X76595238Y-36515771D01*
X76595238Y-36515771D02*
X76642857Y-36611009D01*
X76642857Y-36611009D02*
X76642857Y-37134819D01*
D11*
X74916666Y-35179530D02*
X74892857Y-35203340D01*
X74892857Y-35203340D02*
X74821428Y-35227149D01*
X74821428Y-35227149D02*
X74773809Y-35227149D01*
X74773809Y-35227149D02*
X74702381Y-35203340D01*
X74702381Y-35203340D02*
X74654762Y-35155720D01*
X74654762Y-35155720D02*
X74630952Y-35108101D01*
X74630952Y-35108101D02*
X74607143Y-35012863D01*
X74607143Y-35012863D02*
X74607143Y-34941435D01*
X74607143Y-34941435D02*
X74630952Y-34846197D01*
X74630952Y-34846197D02*
X74654762Y-34798578D01*
X74654762Y-34798578D02*
X74702381Y-34750959D01*
X74702381Y-34750959D02*
X74773809Y-34727149D01*
X74773809Y-34727149D02*
X74821428Y-34727149D01*
X74821428Y-34727149D02*
X74892857Y-34750959D01*
X74892857Y-34750959D02*
X74916666Y-34774768D01*
X75083333Y-34727149D02*
X75416666Y-34727149D01*
X75416666Y-34727149D02*
X75202381Y-35227149D01*
D10*
X32404761Y-24104819D02*
X31833333Y-24104819D01*
X32119047Y-24104819D02*
X32119047Y-23104819D01*
X32119047Y-23104819D02*
X32023809Y-23247676D01*
X32023809Y-23247676D02*
X31928571Y-23342914D01*
X31928571Y-23342914D02*
X31833333Y-23390533D01*
X33023809Y-23104819D02*
X33119047Y-23104819D01*
X33119047Y-23104819D02*
X33214285Y-23152438D01*
X33214285Y-23152438D02*
X33261904Y-23200057D01*
X33261904Y-23200057D02*
X33309523Y-23295295D01*
X33309523Y-23295295D02*
X33357142Y-23485771D01*
X33357142Y-23485771D02*
X33357142Y-23723866D01*
X33357142Y-23723866D02*
X33309523Y-23914342D01*
X33309523Y-23914342D02*
X33261904Y-24009580D01*
X33261904Y-24009580D02*
X33214285Y-24057200D01*
X33214285Y-24057200D02*
X33119047Y-24104819D01*
X33119047Y-24104819D02*
X33023809Y-24104819D01*
X33023809Y-24104819D02*
X32928571Y-24057200D01*
X32928571Y-24057200D02*
X32880952Y-24009580D01*
X32880952Y-24009580D02*
X32833333Y-23914342D01*
X32833333Y-23914342D02*
X32785714Y-23723866D01*
X32785714Y-23723866D02*
X32785714Y-23485771D01*
X32785714Y-23485771D02*
X32833333Y-23295295D01*
X32833333Y-23295295D02*
X32880952Y-23200057D01*
X32880952Y-23200057D02*
X32928571Y-23152438D01*
X32928571Y-23152438D02*
X33023809Y-23104819D01*
X33785714Y-24104819D02*
X33785714Y-23104819D01*
X33880952Y-23723866D02*
X34166666Y-24104819D01*
X34166666Y-23438152D02*
X33785714Y-23819104D01*
D11*
X32916666Y-22227149D02*
X32750000Y-21989054D01*
X32630952Y-22227149D02*
X32630952Y-21727149D01*
X32630952Y-21727149D02*
X32821428Y-21727149D01*
X32821428Y-21727149D02*
X32869047Y-21750959D01*
X32869047Y-21750959D02*
X32892857Y-21774768D01*
X32892857Y-21774768D02*
X32916666Y-21822387D01*
X32916666Y-21822387D02*
X32916666Y-21893816D01*
X32916666Y-21893816D02*
X32892857Y-21941435D01*
X32892857Y-21941435D02*
X32869047Y-21965244D01*
X32869047Y-21965244D02*
X32821428Y-21989054D01*
X32821428Y-21989054D02*
X32630952Y-21989054D01*
X33345238Y-21893816D02*
X33345238Y-22227149D01*
X33226190Y-21703340D02*
X33107143Y-22060482D01*
X33107143Y-22060482D02*
X33416666Y-22060482D01*
D10*
X69833333Y-18454819D02*
X69500000Y-17978628D01*
X69261905Y-18454819D02*
X69261905Y-17454819D01*
X69261905Y-17454819D02*
X69642857Y-17454819D01*
X69642857Y-17454819D02*
X69738095Y-17502438D01*
X69738095Y-17502438D02*
X69785714Y-17550057D01*
X69785714Y-17550057D02*
X69833333Y-17645295D01*
X69833333Y-17645295D02*
X69833333Y-17788152D01*
X69833333Y-17788152D02*
X69785714Y-17883390D01*
X69785714Y-17883390D02*
X69738095Y-17931009D01*
X69738095Y-17931009D02*
X69642857Y-17978628D01*
X69642857Y-17978628D02*
X69261905Y-17978628D01*
X70261905Y-18454819D02*
X70261905Y-17454819D01*
X71261904Y-17502438D02*
X71166666Y-17454819D01*
X71166666Y-17454819D02*
X71023809Y-17454819D01*
X71023809Y-17454819D02*
X70880952Y-17502438D01*
X70880952Y-17502438D02*
X70785714Y-17597676D01*
X70785714Y-17597676D02*
X70738095Y-17692914D01*
X70738095Y-17692914D02*
X70690476Y-17883390D01*
X70690476Y-17883390D02*
X70690476Y-18026247D01*
X70690476Y-18026247D02*
X70738095Y-18216723D01*
X70738095Y-18216723D02*
X70785714Y-18311961D01*
X70785714Y-18311961D02*
X70880952Y-18407200D01*
X70880952Y-18407200D02*
X71023809Y-18454819D01*
X71023809Y-18454819D02*
X71119047Y-18454819D01*
X71119047Y-18454819D02*
X71261904Y-18407200D01*
X71261904Y-18407200D02*
X71309523Y-18359580D01*
X71309523Y-18359580D02*
X71309523Y-18026247D01*
X71309523Y-18026247D02*
X71119047Y-18026247D01*
X71738095Y-18454819D02*
X71738095Y-17454819D01*
X71738095Y-17931009D02*
X72309523Y-17931009D01*
X72309523Y-18454819D02*
X72309523Y-17454819D01*
X72642857Y-17454819D02*
X73214285Y-17454819D01*
X72928571Y-18454819D02*
X72928571Y-17454819D01*
X74309524Y-17931009D02*
X74642857Y-17931009D01*
X74785714Y-18454819D02*
X74309524Y-18454819D01*
X74309524Y-18454819D02*
X74309524Y-17454819D01*
X74309524Y-17454819D02*
X74785714Y-17454819D01*
X75214286Y-18454819D02*
X75214286Y-17454819D01*
X75214286Y-17454819D02*
X75785714Y-18454819D01*
X75785714Y-18454819D02*
X75785714Y-17454819D01*
X76833333Y-18359580D02*
X76785714Y-18407200D01*
X76785714Y-18407200D02*
X76642857Y-18454819D01*
X76642857Y-18454819D02*
X76547619Y-18454819D01*
X76547619Y-18454819D02*
X76404762Y-18407200D01*
X76404762Y-18407200D02*
X76309524Y-18311961D01*
X76309524Y-18311961D02*
X76261905Y-18216723D01*
X76261905Y-18216723D02*
X76214286Y-18026247D01*
X76214286Y-18026247D02*
X76214286Y-17883390D01*
X76214286Y-17883390D02*
X76261905Y-17692914D01*
X76261905Y-17692914D02*
X76309524Y-17597676D01*
X76309524Y-17597676D02*
X76404762Y-17502438D01*
X76404762Y-17502438D02*
X76547619Y-17454819D01*
X76547619Y-17454819D02*
X76642857Y-17454819D01*
X76642857Y-17454819D02*
X76785714Y-17502438D01*
X76785714Y-17502438D02*
X76833333Y-17550057D01*
X77452381Y-17454819D02*
X77642857Y-17454819D01*
X77642857Y-17454819D02*
X77738095Y-17502438D01*
X77738095Y-17502438D02*
X77833333Y-17597676D01*
X77833333Y-17597676D02*
X77880952Y-17788152D01*
X77880952Y-17788152D02*
X77880952Y-18121485D01*
X77880952Y-18121485D02*
X77833333Y-18311961D01*
X77833333Y-18311961D02*
X77738095Y-18407200D01*
X77738095Y-18407200D02*
X77642857Y-18454819D01*
X77642857Y-18454819D02*
X77452381Y-18454819D01*
X77452381Y-18454819D02*
X77357143Y-18407200D01*
X77357143Y-18407200D02*
X77261905Y-18311961D01*
X77261905Y-18311961D02*
X77214286Y-18121485D01*
X77214286Y-18121485D02*
X77214286Y-17788152D01*
X77214286Y-17788152D02*
X77261905Y-17597676D01*
X77261905Y-17597676D02*
X77357143Y-17502438D01*
X77357143Y-17502438D02*
X77452381Y-17454819D01*
X78309524Y-18454819D02*
X78309524Y-17454819D01*
X78309524Y-17454819D02*
X78547619Y-17454819D01*
X78547619Y-17454819D02*
X78690476Y-17502438D01*
X78690476Y-17502438D02*
X78785714Y-17597676D01*
X78785714Y-17597676D02*
X78833333Y-17692914D01*
X78833333Y-17692914D02*
X78880952Y-17883390D01*
X78880952Y-17883390D02*
X78880952Y-18026247D01*
X78880952Y-18026247D02*
X78833333Y-18216723D01*
X78833333Y-18216723D02*
X78785714Y-18311961D01*
X78785714Y-18311961D02*
X78690476Y-18407200D01*
X78690476Y-18407200D02*
X78547619Y-18454819D01*
X78547619Y-18454819D02*
X78309524Y-18454819D01*
X79309524Y-17931009D02*
X79642857Y-17931009D01*
X79785714Y-18454819D02*
X79309524Y-18454819D01*
X79309524Y-18454819D02*
X79309524Y-17454819D01*
X79309524Y-17454819D02*
X79785714Y-17454819D01*
X80785714Y-18454819D02*
X80452381Y-17978628D01*
X80214286Y-18454819D02*
X80214286Y-17454819D01*
X80214286Y-17454819D02*
X80595238Y-17454819D01*
X80595238Y-17454819D02*
X80690476Y-17502438D01*
X80690476Y-17502438D02*
X80738095Y-17550057D01*
X80738095Y-17550057D02*
X80785714Y-17645295D01*
X80785714Y-17645295D02*
X80785714Y-17788152D01*
X80785714Y-17788152D02*
X80738095Y-17883390D01*
X80738095Y-17883390D02*
X80690476Y-17931009D01*
X80690476Y-17931009D02*
X80595238Y-17978628D01*
X80595238Y-17978628D02*
X80214286Y-17978628D01*
X74454819Y-12143333D02*
X75169104Y-12143333D01*
X75169104Y-12143333D02*
X75311961Y-12190952D01*
X75311961Y-12190952D02*
X75407200Y-12286190D01*
X75407200Y-12286190D02*
X75454819Y-12429047D01*
X75454819Y-12429047D02*
X75454819Y-12524285D01*
X74454819Y-11190952D02*
X74454819Y-11667142D01*
X74454819Y-11667142D02*
X74931009Y-11714761D01*
X74931009Y-11714761D02*
X74883390Y-11667142D01*
X74883390Y-11667142D02*
X74835771Y-11571904D01*
X74835771Y-11571904D02*
X74835771Y-11333809D01*
X74835771Y-11333809D02*
X74883390Y-11238571D01*
X74883390Y-11238571D02*
X74931009Y-11190952D01*
X74931009Y-11190952D02*
X75026247Y-11143333D01*
X75026247Y-11143333D02*
X75264342Y-11143333D01*
X75264342Y-11143333D02*
X75359580Y-11190952D01*
X75359580Y-11190952D02*
X75407200Y-11238571D01*
X75407200Y-11238571D02*
X75454819Y-11333809D01*
X75454819Y-11333809D02*
X75454819Y-11571904D01*
X75454819Y-11571904D02*
X75407200Y-11667142D01*
X75407200Y-11667142D02*
X75359580Y-11714761D01*
X33880952Y-31134819D02*
X33309524Y-31134819D01*
X33595238Y-31134819D02*
X33595238Y-30134819D01*
X33595238Y-30134819D02*
X33500000Y-30277676D01*
X33500000Y-30277676D02*
X33404762Y-30372914D01*
X33404762Y-30372914D02*
X33309524Y-30420533D01*
X34500000Y-30134819D02*
X34595238Y-30134819D01*
X34595238Y-30134819D02*
X34690476Y-30182438D01*
X34690476Y-30182438D02*
X34738095Y-30230057D01*
X34738095Y-30230057D02*
X34785714Y-30325295D01*
X34785714Y-30325295D02*
X34833333Y-30515771D01*
X34833333Y-30515771D02*
X34833333Y-30753866D01*
X34833333Y-30753866D02*
X34785714Y-30944342D01*
X34785714Y-30944342D02*
X34738095Y-31039580D01*
X34738095Y-31039580D02*
X34690476Y-31087200D01*
X34690476Y-31087200D02*
X34595238Y-31134819D01*
X34595238Y-31134819D02*
X34500000Y-31134819D01*
X34500000Y-31134819D02*
X34404762Y-31087200D01*
X34404762Y-31087200D02*
X34357143Y-31039580D01*
X34357143Y-31039580D02*
X34309524Y-30944342D01*
X34309524Y-30944342D02*
X34261905Y-30753866D01*
X34261905Y-30753866D02*
X34261905Y-30515771D01*
X34261905Y-30515771D02*
X34309524Y-30325295D01*
X34309524Y-30325295D02*
X34357143Y-30230057D01*
X34357143Y-30230057D02*
X34404762Y-30182438D01*
X34404762Y-30182438D02*
X34500000Y-30134819D01*
X35452381Y-30134819D02*
X35547619Y-30134819D01*
X35547619Y-30134819D02*
X35642857Y-30182438D01*
X35642857Y-30182438D02*
X35690476Y-30230057D01*
X35690476Y-30230057D02*
X35738095Y-30325295D01*
X35738095Y-30325295D02*
X35785714Y-30515771D01*
X35785714Y-30515771D02*
X35785714Y-30753866D01*
X35785714Y-30753866D02*
X35738095Y-30944342D01*
X35738095Y-30944342D02*
X35690476Y-31039580D01*
X35690476Y-31039580D02*
X35642857Y-31087200D01*
X35642857Y-31087200D02*
X35547619Y-31134819D01*
X35547619Y-31134819D02*
X35452381Y-31134819D01*
X35452381Y-31134819D02*
X35357143Y-31087200D01*
X35357143Y-31087200D02*
X35309524Y-31039580D01*
X35309524Y-31039580D02*
X35261905Y-30944342D01*
X35261905Y-30944342D02*
X35214286Y-30753866D01*
X35214286Y-30753866D02*
X35214286Y-30515771D01*
X35214286Y-30515771D02*
X35261905Y-30325295D01*
X35261905Y-30325295D02*
X35309524Y-30230057D01*
X35309524Y-30230057D02*
X35357143Y-30182438D01*
X35357143Y-30182438D02*
X35452381Y-30134819D01*
X36214286Y-30468152D02*
X36214286Y-31134819D01*
X36214286Y-30563390D02*
X36261905Y-30515771D01*
X36261905Y-30515771D02*
X36357143Y-30468152D01*
X36357143Y-30468152D02*
X36500000Y-30468152D01*
X36500000Y-30468152D02*
X36595238Y-30515771D01*
X36595238Y-30515771D02*
X36642857Y-30611009D01*
X36642857Y-30611009D02*
X36642857Y-31134819D01*
D11*
X34916666Y-29179530D02*
X34892857Y-29203340D01*
X34892857Y-29203340D02*
X34821428Y-29227149D01*
X34821428Y-29227149D02*
X34773809Y-29227149D01*
X34773809Y-29227149D02*
X34702381Y-29203340D01*
X34702381Y-29203340D02*
X34654762Y-29155720D01*
X34654762Y-29155720D02*
X34630952Y-29108101D01*
X34630952Y-29108101D02*
X34607143Y-29012863D01*
X34607143Y-29012863D02*
X34607143Y-28941435D01*
X34607143Y-28941435D02*
X34630952Y-28846197D01*
X34630952Y-28846197D02*
X34654762Y-28798578D01*
X34654762Y-28798578D02*
X34702381Y-28750959D01*
X34702381Y-28750959D02*
X34773809Y-28727149D01*
X34773809Y-28727149D02*
X34821428Y-28727149D01*
X34821428Y-28727149D02*
X34892857Y-28750959D01*
X34892857Y-28750959D02*
X34916666Y-28774768D01*
X35083333Y-28727149D02*
X35392857Y-28727149D01*
X35392857Y-28727149D02*
X35226190Y-28917625D01*
X35226190Y-28917625D02*
X35297619Y-28917625D01*
X35297619Y-28917625D02*
X35345238Y-28941435D01*
X35345238Y-28941435D02*
X35369047Y-28965244D01*
X35369047Y-28965244D02*
X35392857Y-29012863D01*
X35392857Y-29012863D02*
X35392857Y-29131911D01*
X35392857Y-29131911D02*
X35369047Y-29179530D01*
X35369047Y-29179530D02*
X35345238Y-29203340D01*
X35345238Y-29203340D02*
X35297619Y-29227149D01*
X35297619Y-29227149D02*
X35154762Y-29227149D01*
X35154762Y-29227149D02*
X35107143Y-29203340D01*
X35107143Y-29203340D02*
X35083333Y-29179530D01*
D10*
X23880952Y-37134819D02*
X23309524Y-37134819D01*
X23595238Y-37134819D02*
X23595238Y-36134819D01*
X23595238Y-36134819D02*
X23500000Y-36277676D01*
X23500000Y-36277676D02*
X23404762Y-36372914D01*
X23404762Y-36372914D02*
X23309524Y-36420533D01*
X24500000Y-36134819D02*
X24595238Y-36134819D01*
X24595238Y-36134819D02*
X24690476Y-36182438D01*
X24690476Y-36182438D02*
X24738095Y-36230057D01*
X24738095Y-36230057D02*
X24785714Y-36325295D01*
X24785714Y-36325295D02*
X24833333Y-36515771D01*
X24833333Y-36515771D02*
X24833333Y-36753866D01*
X24833333Y-36753866D02*
X24785714Y-36944342D01*
X24785714Y-36944342D02*
X24738095Y-37039580D01*
X24738095Y-37039580D02*
X24690476Y-37087200D01*
X24690476Y-37087200D02*
X24595238Y-37134819D01*
X24595238Y-37134819D02*
X24500000Y-37134819D01*
X24500000Y-37134819D02*
X24404762Y-37087200D01*
X24404762Y-37087200D02*
X24357143Y-37039580D01*
X24357143Y-37039580D02*
X24309524Y-36944342D01*
X24309524Y-36944342D02*
X24261905Y-36753866D01*
X24261905Y-36753866D02*
X24261905Y-36515771D01*
X24261905Y-36515771D02*
X24309524Y-36325295D01*
X24309524Y-36325295D02*
X24357143Y-36230057D01*
X24357143Y-36230057D02*
X24404762Y-36182438D01*
X24404762Y-36182438D02*
X24500000Y-36134819D01*
X25452381Y-36134819D02*
X25547619Y-36134819D01*
X25547619Y-36134819D02*
X25642857Y-36182438D01*
X25642857Y-36182438D02*
X25690476Y-36230057D01*
X25690476Y-36230057D02*
X25738095Y-36325295D01*
X25738095Y-36325295D02*
X25785714Y-36515771D01*
X25785714Y-36515771D02*
X25785714Y-36753866D01*
X25785714Y-36753866D02*
X25738095Y-36944342D01*
X25738095Y-36944342D02*
X25690476Y-37039580D01*
X25690476Y-37039580D02*
X25642857Y-37087200D01*
X25642857Y-37087200D02*
X25547619Y-37134819D01*
X25547619Y-37134819D02*
X25452381Y-37134819D01*
X25452381Y-37134819D02*
X25357143Y-37087200D01*
X25357143Y-37087200D02*
X25309524Y-37039580D01*
X25309524Y-37039580D02*
X25261905Y-36944342D01*
X25261905Y-36944342D02*
X25214286Y-36753866D01*
X25214286Y-36753866D02*
X25214286Y-36515771D01*
X25214286Y-36515771D02*
X25261905Y-36325295D01*
X25261905Y-36325295D02*
X25309524Y-36230057D01*
X25309524Y-36230057D02*
X25357143Y-36182438D01*
X25357143Y-36182438D02*
X25452381Y-36134819D01*
X26214286Y-36468152D02*
X26214286Y-37134819D01*
X26214286Y-36563390D02*
X26261905Y-36515771D01*
X26261905Y-36515771D02*
X26357143Y-36468152D01*
X26357143Y-36468152D02*
X26500000Y-36468152D01*
X26500000Y-36468152D02*
X26595238Y-36515771D01*
X26595238Y-36515771D02*
X26642857Y-36611009D01*
X26642857Y-36611009D02*
X26642857Y-37134819D01*
D11*
X24916666Y-35179530D02*
X24892857Y-35203340D01*
X24892857Y-35203340D02*
X24821428Y-35227149D01*
X24821428Y-35227149D02*
X24773809Y-35227149D01*
X24773809Y-35227149D02*
X24702381Y-35203340D01*
X24702381Y-35203340D02*
X24654762Y-35155720D01*
X24654762Y-35155720D02*
X24630952Y-35108101D01*
X24630952Y-35108101D02*
X24607143Y-35012863D01*
X24607143Y-35012863D02*
X24607143Y-34941435D01*
X24607143Y-34941435D02*
X24630952Y-34846197D01*
X24630952Y-34846197D02*
X24654762Y-34798578D01*
X24654762Y-34798578D02*
X24702381Y-34750959D01*
X24702381Y-34750959D02*
X24773809Y-34727149D01*
X24773809Y-34727149D02*
X24821428Y-34727149D01*
X24821428Y-34727149D02*
X24892857Y-34750959D01*
X24892857Y-34750959D02*
X24916666Y-34774768D01*
X25345238Y-34727149D02*
X25250000Y-34727149D01*
X25250000Y-34727149D02*
X25202381Y-34750959D01*
X25202381Y-34750959D02*
X25178571Y-34774768D01*
X25178571Y-34774768D02*
X25130952Y-34846197D01*
X25130952Y-34846197D02*
X25107143Y-34941435D01*
X25107143Y-34941435D02*
X25107143Y-35131911D01*
X25107143Y-35131911D02*
X25130952Y-35179530D01*
X25130952Y-35179530D02*
X25154762Y-35203340D01*
X25154762Y-35203340D02*
X25202381Y-35227149D01*
X25202381Y-35227149D02*
X25297619Y-35227149D01*
X25297619Y-35227149D02*
X25345238Y-35203340D01*
X25345238Y-35203340D02*
X25369047Y-35179530D01*
X25369047Y-35179530D02*
X25392857Y-35131911D01*
X25392857Y-35131911D02*
X25392857Y-35012863D01*
X25392857Y-35012863D02*
X25369047Y-34965244D01*
X25369047Y-34965244D02*
X25345238Y-34941435D01*
X25345238Y-34941435D02*
X25297619Y-34917625D01*
X25297619Y-34917625D02*
X25202381Y-34917625D01*
X25202381Y-34917625D02*
X25154762Y-34941435D01*
X25154762Y-34941435D02*
X25130952Y-34965244D01*
X25130952Y-34965244D02*
X25107143Y-35012863D01*
D10*
X28595238Y-92200057D02*
X28642857Y-92152438D01*
X28642857Y-92152438D02*
X28738095Y-92104819D01*
X28738095Y-92104819D02*
X28976190Y-92104819D01*
X28976190Y-92104819D02*
X29071428Y-92152438D01*
X29071428Y-92152438D02*
X29119047Y-92200057D01*
X29119047Y-92200057D02*
X29166666Y-92295295D01*
X29166666Y-92295295D02*
X29166666Y-92390533D01*
X29166666Y-92390533D02*
X29119047Y-92533390D01*
X29119047Y-92533390D02*
X28547619Y-93104819D01*
X28547619Y-93104819D02*
X29166666Y-93104819D01*
X29595238Y-93009580D02*
X29642857Y-93057200D01*
X29642857Y-93057200D02*
X29595238Y-93104819D01*
X29595238Y-93104819D02*
X29547619Y-93057200D01*
X29547619Y-93057200D02*
X29595238Y-93009580D01*
X29595238Y-93009580D02*
X29595238Y-93104819D01*
X30023809Y-92200057D02*
X30071428Y-92152438D01*
X30071428Y-92152438D02*
X30166666Y-92104819D01*
X30166666Y-92104819D02*
X30404761Y-92104819D01*
X30404761Y-92104819D02*
X30499999Y-92152438D01*
X30499999Y-92152438D02*
X30547618Y-92200057D01*
X30547618Y-92200057D02*
X30595237Y-92295295D01*
X30595237Y-92295295D02*
X30595237Y-92390533D01*
X30595237Y-92390533D02*
X30547618Y-92533390D01*
X30547618Y-92533390D02*
X29976190Y-93104819D01*
X29976190Y-93104819D02*
X30595237Y-93104819D01*
X31023809Y-93104819D02*
X31023809Y-92104819D01*
X31119047Y-92723866D02*
X31404761Y-93104819D01*
X31404761Y-92438152D02*
X31023809Y-92819104D01*
D11*
X29916666Y-91227149D02*
X29750000Y-90989054D01*
X29630952Y-91227149D02*
X29630952Y-90727149D01*
X29630952Y-90727149D02*
X29821428Y-90727149D01*
X29821428Y-90727149D02*
X29869047Y-90750959D01*
X29869047Y-90750959D02*
X29892857Y-90774768D01*
X29892857Y-90774768D02*
X29916666Y-90822387D01*
X29916666Y-90822387D02*
X29916666Y-90893816D01*
X29916666Y-90893816D02*
X29892857Y-90941435D01*
X29892857Y-90941435D02*
X29869047Y-90965244D01*
X29869047Y-90965244D02*
X29821428Y-90989054D01*
X29821428Y-90989054D02*
X29630952Y-90989054D01*
X30345238Y-90727149D02*
X30250000Y-90727149D01*
X30250000Y-90727149D02*
X30202381Y-90750959D01*
X30202381Y-90750959D02*
X30178571Y-90774768D01*
X30178571Y-90774768D02*
X30130952Y-90846197D01*
X30130952Y-90846197D02*
X30107143Y-90941435D01*
X30107143Y-90941435D02*
X30107143Y-91131911D01*
X30107143Y-91131911D02*
X30130952Y-91179530D01*
X30130952Y-91179530D02*
X30154762Y-91203340D01*
X30154762Y-91203340D02*
X30202381Y-91227149D01*
X30202381Y-91227149D02*
X30297619Y-91227149D01*
X30297619Y-91227149D02*
X30345238Y-91203340D01*
X30345238Y-91203340D02*
X30369047Y-91179530D01*
X30369047Y-91179530D02*
X30392857Y-91131911D01*
X30392857Y-91131911D02*
X30392857Y-91012863D01*
X30392857Y-91012863D02*
X30369047Y-90965244D01*
X30369047Y-90965244D02*
X30345238Y-90941435D01*
X30345238Y-90941435D02*
X30297619Y-90917625D01*
X30297619Y-90917625D02*
X30202381Y-90917625D01*
X30202381Y-90917625D02*
X30154762Y-90941435D01*
X30154762Y-90941435D02*
X30130952Y-90965244D01*
X30130952Y-90965244D02*
X30107143Y-91012863D01*
D10*
X11404761Y-60104819D02*
X10833333Y-60104819D01*
X11119047Y-60104819D02*
X11119047Y-59104819D01*
X11119047Y-59104819D02*
X11023809Y-59247676D01*
X11023809Y-59247676D02*
X10928571Y-59342914D01*
X10928571Y-59342914D02*
X10833333Y-59390533D01*
X12023809Y-59104819D02*
X12119047Y-59104819D01*
X12119047Y-59104819D02*
X12214285Y-59152438D01*
X12214285Y-59152438D02*
X12261904Y-59200057D01*
X12261904Y-59200057D02*
X12309523Y-59295295D01*
X12309523Y-59295295D02*
X12357142Y-59485771D01*
X12357142Y-59485771D02*
X12357142Y-59723866D01*
X12357142Y-59723866D02*
X12309523Y-59914342D01*
X12309523Y-59914342D02*
X12261904Y-60009580D01*
X12261904Y-60009580D02*
X12214285Y-60057200D01*
X12214285Y-60057200D02*
X12119047Y-60104819D01*
X12119047Y-60104819D02*
X12023809Y-60104819D01*
X12023809Y-60104819D02*
X11928571Y-60057200D01*
X11928571Y-60057200D02*
X11880952Y-60009580D01*
X11880952Y-60009580D02*
X11833333Y-59914342D01*
X11833333Y-59914342D02*
X11785714Y-59723866D01*
X11785714Y-59723866D02*
X11785714Y-59485771D01*
X11785714Y-59485771D02*
X11833333Y-59295295D01*
X11833333Y-59295295D02*
X11880952Y-59200057D01*
X11880952Y-59200057D02*
X11928571Y-59152438D01*
X11928571Y-59152438D02*
X12023809Y-59104819D01*
X12785714Y-60104819D02*
X12785714Y-59104819D01*
X12880952Y-59723866D02*
X13166666Y-60104819D01*
X13166666Y-59438152D02*
X12785714Y-59819104D01*
D11*
X11916666Y-58227149D02*
X11750000Y-57989054D01*
X11630952Y-58227149D02*
X11630952Y-57727149D01*
X11630952Y-57727149D02*
X11821428Y-57727149D01*
X11821428Y-57727149D02*
X11869047Y-57750959D01*
X11869047Y-57750959D02*
X11892857Y-57774768D01*
X11892857Y-57774768D02*
X11916666Y-57822387D01*
X11916666Y-57822387D02*
X11916666Y-57893816D01*
X11916666Y-57893816D02*
X11892857Y-57941435D01*
X11892857Y-57941435D02*
X11869047Y-57965244D01*
X11869047Y-57965244D02*
X11821428Y-57989054D01*
X11821428Y-57989054D02*
X11630952Y-57989054D01*
X12154762Y-58227149D02*
X12250000Y-58227149D01*
X12250000Y-58227149D02*
X12297619Y-58203340D01*
X12297619Y-58203340D02*
X12321428Y-58179530D01*
X12321428Y-58179530D02*
X12369047Y-58108101D01*
X12369047Y-58108101D02*
X12392857Y-58012863D01*
X12392857Y-58012863D02*
X12392857Y-57822387D01*
X12392857Y-57822387D02*
X12369047Y-57774768D01*
X12369047Y-57774768D02*
X12345238Y-57750959D01*
X12345238Y-57750959D02*
X12297619Y-57727149D01*
X12297619Y-57727149D02*
X12202381Y-57727149D01*
X12202381Y-57727149D02*
X12154762Y-57750959D01*
X12154762Y-57750959D02*
X12130952Y-57774768D01*
X12130952Y-57774768D02*
X12107143Y-57822387D01*
X12107143Y-57822387D02*
X12107143Y-57941435D01*
X12107143Y-57941435D02*
X12130952Y-57989054D01*
X12130952Y-57989054D02*
X12154762Y-58012863D01*
X12154762Y-58012863D02*
X12202381Y-58036673D01*
X12202381Y-58036673D02*
X12297619Y-58036673D01*
X12297619Y-58036673D02*
X12345238Y-58012863D01*
X12345238Y-58012863D02*
X12369047Y-57989054D01*
X12369047Y-57989054D02*
X12392857Y-57941435D01*
D10*
X24880952Y-70104819D02*
X24309524Y-70104819D01*
X24595238Y-70104819D02*
X24595238Y-69104819D01*
X24595238Y-69104819D02*
X24500000Y-69247676D01*
X24500000Y-69247676D02*
X24404762Y-69342914D01*
X24404762Y-69342914D02*
X24309524Y-69390533D01*
X25309524Y-70104819D02*
X25309524Y-69104819D01*
X25404762Y-69723866D02*
X25690476Y-70104819D01*
X25690476Y-69438152D02*
X25309524Y-69819104D01*
D11*
X24916666Y-68227149D02*
X24750000Y-67989054D01*
X24630952Y-68227149D02*
X24630952Y-67727149D01*
X24630952Y-67727149D02*
X24821428Y-67727149D01*
X24821428Y-67727149D02*
X24869047Y-67750959D01*
X24869047Y-67750959D02*
X24892857Y-67774768D01*
X24892857Y-67774768D02*
X24916666Y-67822387D01*
X24916666Y-67822387D02*
X24916666Y-67893816D01*
X24916666Y-67893816D02*
X24892857Y-67941435D01*
X24892857Y-67941435D02*
X24869047Y-67965244D01*
X24869047Y-67965244D02*
X24821428Y-67989054D01*
X24821428Y-67989054D02*
X24630952Y-67989054D01*
X25392857Y-68227149D02*
X25107143Y-68227149D01*
X25250000Y-68227149D02*
X25250000Y-67727149D01*
X25250000Y-67727149D02*
X25202381Y-67798578D01*
X25202381Y-67798578D02*
X25154762Y-67846197D01*
X25154762Y-67846197D02*
X25107143Y-67870006D01*
D10*
X87404761Y-22104819D02*
X86833333Y-22104819D01*
X87119047Y-22104819D02*
X87119047Y-21104819D01*
X87119047Y-21104819D02*
X87023809Y-21247676D01*
X87023809Y-21247676D02*
X86928571Y-21342914D01*
X86928571Y-21342914D02*
X86833333Y-21390533D01*
X88023809Y-21104819D02*
X88119047Y-21104819D01*
X88119047Y-21104819D02*
X88214285Y-21152438D01*
X88214285Y-21152438D02*
X88261904Y-21200057D01*
X88261904Y-21200057D02*
X88309523Y-21295295D01*
X88309523Y-21295295D02*
X88357142Y-21485771D01*
X88357142Y-21485771D02*
X88357142Y-21723866D01*
X88357142Y-21723866D02*
X88309523Y-21914342D01*
X88309523Y-21914342D02*
X88261904Y-22009580D01*
X88261904Y-22009580D02*
X88214285Y-22057200D01*
X88214285Y-22057200D02*
X88119047Y-22104819D01*
X88119047Y-22104819D02*
X88023809Y-22104819D01*
X88023809Y-22104819D02*
X87928571Y-22057200D01*
X87928571Y-22057200D02*
X87880952Y-22009580D01*
X87880952Y-22009580D02*
X87833333Y-21914342D01*
X87833333Y-21914342D02*
X87785714Y-21723866D01*
X87785714Y-21723866D02*
X87785714Y-21485771D01*
X87785714Y-21485771D02*
X87833333Y-21295295D01*
X87833333Y-21295295D02*
X87880952Y-21200057D01*
X87880952Y-21200057D02*
X87928571Y-21152438D01*
X87928571Y-21152438D02*
X88023809Y-21104819D01*
X88785714Y-22104819D02*
X88785714Y-21104819D01*
X88880952Y-21723866D02*
X89166666Y-22104819D01*
X89166666Y-21438152D02*
X88785714Y-21819104D01*
D11*
X87916666Y-20227149D02*
X87750000Y-19989054D01*
X87630952Y-20227149D02*
X87630952Y-19727149D01*
X87630952Y-19727149D02*
X87821428Y-19727149D01*
X87821428Y-19727149D02*
X87869047Y-19750959D01*
X87869047Y-19750959D02*
X87892857Y-19774768D01*
X87892857Y-19774768D02*
X87916666Y-19822387D01*
X87916666Y-19822387D02*
X87916666Y-19893816D01*
X87916666Y-19893816D02*
X87892857Y-19941435D01*
X87892857Y-19941435D02*
X87869047Y-19965244D01*
X87869047Y-19965244D02*
X87821428Y-19989054D01*
X87821428Y-19989054D02*
X87630952Y-19989054D01*
X88083333Y-19727149D02*
X88416666Y-19727149D01*
X88416666Y-19727149D02*
X88202381Y-20227149D01*
D10*
X23928571Y-24104819D02*
X23357143Y-24104819D01*
X23642857Y-24104819D02*
X23642857Y-23104819D01*
X23642857Y-23104819D02*
X23547619Y-23247676D01*
X23547619Y-23247676D02*
X23452381Y-23342914D01*
X23452381Y-23342914D02*
X23357143Y-23390533D01*
X24547619Y-23104819D02*
X24642857Y-23104819D01*
X24642857Y-23104819D02*
X24738095Y-23152438D01*
X24738095Y-23152438D02*
X24785714Y-23200057D01*
X24785714Y-23200057D02*
X24833333Y-23295295D01*
X24833333Y-23295295D02*
X24880952Y-23485771D01*
X24880952Y-23485771D02*
X24880952Y-23723866D01*
X24880952Y-23723866D02*
X24833333Y-23914342D01*
X24833333Y-23914342D02*
X24785714Y-24009580D01*
X24785714Y-24009580D02*
X24738095Y-24057200D01*
X24738095Y-24057200D02*
X24642857Y-24104819D01*
X24642857Y-24104819D02*
X24547619Y-24104819D01*
X24547619Y-24104819D02*
X24452381Y-24057200D01*
X24452381Y-24057200D02*
X24404762Y-24009580D01*
X24404762Y-24009580D02*
X24357143Y-23914342D01*
X24357143Y-23914342D02*
X24309524Y-23723866D01*
X24309524Y-23723866D02*
X24309524Y-23485771D01*
X24309524Y-23485771D02*
X24357143Y-23295295D01*
X24357143Y-23295295D02*
X24404762Y-23200057D01*
X24404762Y-23200057D02*
X24452381Y-23152438D01*
X24452381Y-23152438D02*
X24547619Y-23104819D01*
X25500000Y-23104819D02*
X25595238Y-23104819D01*
X25595238Y-23104819D02*
X25690476Y-23152438D01*
X25690476Y-23152438D02*
X25738095Y-23200057D01*
X25738095Y-23200057D02*
X25785714Y-23295295D01*
X25785714Y-23295295D02*
X25833333Y-23485771D01*
X25833333Y-23485771D02*
X25833333Y-23723866D01*
X25833333Y-23723866D02*
X25785714Y-23914342D01*
X25785714Y-23914342D02*
X25738095Y-24009580D01*
X25738095Y-24009580D02*
X25690476Y-24057200D01*
X25690476Y-24057200D02*
X25595238Y-24104819D01*
X25595238Y-24104819D02*
X25500000Y-24104819D01*
X25500000Y-24104819D02*
X25404762Y-24057200D01*
X25404762Y-24057200D02*
X25357143Y-24009580D01*
X25357143Y-24009580D02*
X25309524Y-23914342D01*
X25309524Y-23914342D02*
X25261905Y-23723866D01*
X25261905Y-23723866D02*
X25261905Y-23485771D01*
X25261905Y-23485771D02*
X25309524Y-23295295D01*
X25309524Y-23295295D02*
X25357143Y-23200057D01*
X25357143Y-23200057D02*
X25404762Y-23152438D01*
X25404762Y-23152438D02*
X25500000Y-23104819D01*
X26261905Y-24104819D02*
X26261905Y-23104819D01*
X26357143Y-23723866D02*
X26642857Y-24104819D01*
X26642857Y-23438152D02*
X26261905Y-23819104D01*
D11*
X24916666Y-22227149D02*
X24750000Y-21989054D01*
X24630952Y-22227149D02*
X24630952Y-21727149D01*
X24630952Y-21727149D02*
X24821428Y-21727149D01*
X24821428Y-21727149D02*
X24869047Y-21750959D01*
X24869047Y-21750959D02*
X24892857Y-21774768D01*
X24892857Y-21774768D02*
X24916666Y-21822387D01*
X24916666Y-21822387D02*
X24916666Y-21893816D01*
X24916666Y-21893816D02*
X24892857Y-21941435D01*
X24892857Y-21941435D02*
X24869047Y-21965244D01*
X24869047Y-21965244D02*
X24821428Y-21989054D01*
X24821428Y-21989054D02*
X24630952Y-21989054D01*
X25083333Y-21727149D02*
X25392857Y-21727149D01*
X25392857Y-21727149D02*
X25226190Y-21917625D01*
X25226190Y-21917625D02*
X25297619Y-21917625D01*
X25297619Y-21917625D02*
X25345238Y-21941435D01*
X25345238Y-21941435D02*
X25369047Y-21965244D01*
X25369047Y-21965244D02*
X25392857Y-22012863D01*
X25392857Y-22012863D02*
X25392857Y-22131911D01*
X25392857Y-22131911D02*
X25369047Y-22179530D01*
X25369047Y-22179530D02*
X25345238Y-22203340D01*
X25345238Y-22203340D02*
X25297619Y-22227149D01*
X25297619Y-22227149D02*
X25154762Y-22227149D01*
X25154762Y-22227149D02*
X25107143Y-22203340D01*
X25107143Y-22203340D02*
X25083333Y-22179530D01*
D10*
X40714284Y-76394819D02*
X40380951Y-75918628D01*
X40142856Y-76394819D02*
X40142856Y-75394819D01*
X40142856Y-75394819D02*
X40523808Y-75394819D01*
X40523808Y-75394819D02*
X40619046Y-75442438D01*
X40619046Y-75442438D02*
X40666665Y-75490057D01*
X40666665Y-75490057D02*
X40714284Y-75585295D01*
X40714284Y-75585295D02*
X40714284Y-75728152D01*
X40714284Y-75728152D02*
X40666665Y-75823390D01*
X40666665Y-75823390D02*
X40619046Y-75871009D01*
X40619046Y-75871009D02*
X40523808Y-75918628D01*
X40523808Y-75918628D02*
X40142856Y-75918628D01*
X41571427Y-76394819D02*
X41571427Y-75871009D01*
X41571427Y-75871009D02*
X41523808Y-75775771D01*
X41523808Y-75775771D02*
X41428570Y-75728152D01*
X41428570Y-75728152D02*
X41238094Y-75728152D01*
X41238094Y-75728152D02*
X41142856Y-75775771D01*
X41571427Y-76347200D02*
X41476189Y-76394819D01*
X41476189Y-76394819D02*
X41238094Y-76394819D01*
X41238094Y-76394819D02*
X41142856Y-76347200D01*
X41142856Y-76347200D02*
X41095237Y-76251961D01*
X41095237Y-76251961D02*
X41095237Y-76156723D01*
X41095237Y-76156723D02*
X41142856Y-76061485D01*
X41142856Y-76061485D02*
X41238094Y-76013866D01*
X41238094Y-76013866D02*
X41476189Y-76013866D01*
X41476189Y-76013866D02*
X41571427Y-75966247D01*
X41999999Y-76347200D02*
X42095237Y-76394819D01*
X42095237Y-76394819D02*
X42285713Y-76394819D01*
X42285713Y-76394819D02*
X42380951Y-76347200D01*
X42380951Y-76347200D02*
X42428570Y-76251961D01*
X42428570Y-76251961D02*
X42428570Y-76204342D01*
X42428570Y-76204342D02*
X42380951Y-76109104D01*
X42380951Y-76109104D02*
X42285713Y-76061485D01*
X42285713Y-76061485D02*
X42142856Y-76061485D01*
X42142856Y-76061485D02*
X42047618Y-76013866D01*
X42047618Y-76013866D02*
X41999999Y-75918628D01*
X41999999Y-75918628D02*
X41999999Y-75871009D01*
X41999999Y-75871009D02*
X42047618Y-75775771D01*
X42047618Y-75775771D02*
X42142856Y-75728152D01*
X42142856Y-75728152D02*
X42285713Y-75728152D01*
X42285713Y-75728152D02*
X42380951Y-75775771D01*
X42857142Y-75728152D02*
X42857142Y-76728152D01*
X42857142Y-75775771D02*
X42952380Y-75728152D01*
X42952380Y-75728152D02*
X43142856Y-75728152D01*
X43142856Y-75728152D02*
X43238094Y-75775771D01*
X43238094Y-75775771D02*
X43285713Y-75823390D01*
X43285713Y-75823390D02*
X43333332Y-75918628D01*
X43333332Y-75918628D02*
X43333332Y-76204342D01*
X43333332Y-76204342D02*
X43285713Y-76299580D01*
X43285713Y-76299580D02*
X43238094Y-76347200D01*
X43238094Y-76347200D02*
X43142856Y-76394819D01*
X43142856Y-76394819D02*
X42952380Y-76394819D01*
X42952380Y-76394819D02*
X42857142Y-76347200D01*
X43761904Y-76394819D02*
X43761904Y-75394819D01*
X43761904Y-75775771D02*
X43857142Y-75728152D01*
X43857142Y-75728152D02*
X44047618Y-75728152D01*
X44047618Y-75728152D02*
X44142856Y-75775771D01*
X44142856Y-75775771D02*
X44190475Y-75823390D01*
X44190475Y-75823390D02*
X44238094Y-75918628D01*
X44238094Y-75918628D02*
X44238094Y-76204342D01*
X44238094Y-76204342D02*
X44190475Y-76299580D01*
X44190475Y-76299580D02*
X44142856Y-76347200D01*
X44142856Y-76347200D02*
X44047618Y-76394819D01*
X44047618Y-76394819D02*
X43857142Y-76394819D01*
X43857142Y-76394819D02*
X43761904Y-76347200D01*
X45047618Y-76347200D02*
X44952380Y-76394819D01*
X44952380Y-76394819D02*
X44761904Y-76394819D01*
X44761904Y-76394819D02*
X44666666Y-76347200D01*
X44666666Y-76347200D02*
X44619047Y-76251961D01*
X44619047Y-76251961D02*
X44619047Y-75871009D01*
X44619047Y-75871009D02*
X44666666Y-75775771D01*
X44666666Y-75775771D02*
X44761904Y-75728152D01*
X44761904Y-75728152D02*
X44952380Y-75728152D01*
X44952380Y-75728152D02*
X45047618Y-75775771D01*
X45047618Y-75775771D02*
X45095237Y-75871009D01*
X45095237Y-75871009D02*
X45095237Y-75966247D01*
X45095237Y-75966247D02*
X44619047Y-76061485D01*
X45523809Y-76394819D02*
X45523809Y-75728152D01*
X45523809Y-75918628D02*
X45571428Y-75823390D01*
X45571428Y-75823390D02*
X45619047Y-75775771D01*
X45619047Y-75775771D02*
X45714285Y-75728152D01*
X45714285Y-75728152D02*
X45809523Y-75728152D01*
X46142857Y-76394819D02*
X46142857Y-75728152D01*
X46142857Y-75918628D02*
X46190476Y-75823390D01*
X46190476Y-75823390D02*
X46238095Y-75775771D01*
X46238095Y-75775771D02*
X46333333Y-75728152D01*
X46333333Y-75728152D02*
X46428571Y-75728152D01*
X46666667Y-75728152D02*
X46904762Y-76394819D01*
X47142857Y-75728152D02*
X46904762Y-76394819D01*
X46904762Y-76394819D02*
X46809524Y-76632914D01*
X46809524Y-76632914D02*
X46761905Y-76680533D01*
X46761905Y-76680533D02*
X46666667Y-76728152D01*
X48285715Y-76394819D02*
X48285715Y-75394819D01*
X48285715Y-75394819D02*
X48666667Y-75394819D01*
X48666667Y-75394819D02*
X48761905Y-75442438D01*
X48761905Y-75442438D02*
X48809524Y-75490057D01*
X48809524Y-75490057D02*
X48857143Y-75585295D01*
X48857143Y-75585295D02*
X48857143Y-75728152D01*
X48857143Y-75728152D02*
X48809524Y-75823390D01*
X48809524Y-75823390D02*
X48761905Y-75871009D01*
X48761905Y-75871009D02*
X48666667Y-75918628D01*
X48666667Y-75918628D02*
X48285715Y-75918628D01*
X49285715Y-76394819D02*
X49285715Y-75728152D01*
X49285715Y-75394819D02*
X49238096Y-75442438D01*
X49238096Y-75442438D02*
X49285715Y-75490057D01*
X49285715Y-75490057D02*
X49333334Y-75442438D01*
X49333334Y-75442438D02*
X49285715Y-75394819D01*
X49285715Y-75394819D02*
X49285715Y-75490057D01*
X50523810Y-76394819D02*
X50523810Y-75394819D01*
X50523810Y-75394819D02*
X50904762Y-75394819D01*
X50904762Y-75394819D02*
X51000000Y-75442438D01*
X51000000Y-75442438D02*
X51047619Y-75490057D01*
X51047619Y-75490057D02*
X51095238Y-75585295D01*
X51095238Y-75585295D02*
X51095238Y-75728152D01*
X51095238Y-75728152D02*
X51047619Y-75823390D01*
X51047619Y-75823390D02*
X51000000Y-75871009D01*
X51000000Y-75871009D02*
X50904762Y-75918628D01*
X50904762Y-75918628D02*
X50523810Y-75918628D01*
X51523810Y-76394819D02*
X51523810Y-75728152D01*
X51523810Y-75394819D02*
X51476191Y-75442438D01*
X51476191Y-75442438D02*
X51523810Y-75490057D01*
X51523810Y-75490057D02*
X51571429Y-75442438D01*
X51571429Y-75442438D02*
X51523810Y-75394819D01*
X51523810Y-75394819D02*
X51523810Y-75490057D01*
X52428571Y-76347200D02*
X52333333Y-76394819D01*
X52333333Y-76394819D02*
X52142857Y-76394819D01*
X52142857Y-76394819D02*
X52047619Y-76347200D01*
X52047619Y-76347200D02*
X52000000Y-76299580D01*
X52000000Y-76299580D02*
X51952381Y-76204342D01*
X51952381Y-76204342D02*
X51952381Y-75918628D01*
X51952381Y-75918628D02*
X52000000Y-75823390D01*
X52000000Y-75823390D02*
X52047619Y-75775771D01*
X52047619Y-75775771D02*
X52142857Y-75728152D01*
X52142857Y-75728152D02*
X52333333Y-75728152D01*
X52333333Y-75728152D02*
X52428571Y-75775771D01*
X53000000Y-76394819D02*
X52904762Y-76347200D01*
X52904762Y-76347200D02*
X52857143Y-76299580D01*
X52857143Y-76299580D02*
X52809524Y-76204342D01*
X52809524Y-76204342D02*
X52809524Y-75918628D01*
X52809524Y-75918628D02*
X52857143Y-75823390D01*
X52857143Y-75823390D02*
X52904762Y-75775771D01*
X52904762Y-75775771D02*
X53000000Y-75728152D01*
X53000000Y-75728152D02*
X53142857Y-75728152D01*
X53142857Y-75728152D02*
X53238095Y-75775771D01*
X53238095Y-75775771D02*
X53285714Y-75823390D01*
X53285714Y-75823390D02*
X53333333Y-75918628D01*
X53333333Y-75918628D02*
X53333333Y-76204342D01*
X53333333Y-76204342D02*
X53285714Y-76299580D01*
X53285714Y-76299580D02*
X53238095Y-76347200D01*
X53238095Y-76347200D02*
X53142857Y-76394819D01*
X53142857Y-76394819D02*
X53000000Y-76394819D01*
X55095238Y-76394819D02*
X54761905Y-75918628D01*
X54523810Y-76394819D02*
X54523810Y-75394819D01*
X54523810Y-75394819D02*
X54904762Y-75394819D01*
X54904762Y-75394819D02*
X55000000Y-75442438D01*
X55000000Y-75442438D02*
X55047619Y-75490057D01*
X55047619Y-75490057D02*
X55095238Y-75585295D01*
X55095238Y-75585295D02*
X55095238Y-75728152D01*
X55095238Y-75728152D02*
X55047619Y-75823390D01*
X55047619Y-75823390D02*
X55000000Y-75871009D01*
X55000000Y-75871009D02*
X54904762Y-75918628D01*
X54904762Y-75918628D02*
X54523810Y-75918628D01*
X55523810Y-76394819D02*
X55523810Y-75394819D01*
X55523810Y-75394819D02*
X55904762Y-75394819D01*
X55904762Y-75394819D02*
X56000000Y-75442438D01*
X56000000Y-75442438D02*
X56047619Y-75490057D01*
X56047619Y-75490057D02*
X56095238Y-75585295D01*
X56095238Y-75585295D02*
X56095238Y-75728152D01*
X56095238Y-75728152D02*
X56047619Y-75823390D01*
X56047619Y-75823390D02*
X56000000Y-75871009D01*
X56000000Y-75871009D02*
X55904762Y-75918628D01*
X55904762Y-75918628D02*
X55523810Y-75918628D01*
X56476191Y-75490057D02*
X56523810Y-75442438D01*
X56523810Y-75442438D02*
X56619048Y-75394819D01*
X56619048Y-75394819D02*
X56857143Y-75394819D01*
X56857143Y-75394819D02*
X56952381Y-75442438D01*
X56952381Y-75442438D02*
X57000000Y-75490057D01*
X57000000Y-75490057D02*
X57047619Y-75585295D01*
X57047619Y-75585295D02*
X57047619Y-75680533D01*
X57047619Y-75680533D02*
X57000000Y-75823390D01*
X57000000Y-75823390D02*
X56428572Y-76394819D01*
X56428572Y-76394819D02*
X57047619Y-76394819D01*
X57666667Y-75394819D02*
X57761905Y-75394819D01*
X57761905Y-75394819D02*
X57857143Y-75442438D01*
X57857143Y-75442438D02*
X57904762Y-75490057D01*
X57904762Y-75490057D02*
X57952381Y-75585295D01*
X57952381Y-75585295D02*
X58000000Y-75775771D01*
X58000000Y-75775771D02*
X58000000Y-76013866D01*
X58000000Y-76013866D02*
X57952381Y-76204342D01*
X57952381Y-76204342D02*
X57904762Y-76299580D01*
X57904762Y-76299580D02*
X57857143Y-76347200D01*
X57857143Y-76347200D02*
X57761905Y-76394819D01*
X57761905Y-76394819D02*
X57666667Y-76394819D01*
X57666667Y-76394819D02*
X57571429Y-76347200D01*
X57571429Y-76347200D02*
X57523810Y-76299580D01*
X57523810Y-76299580D02*
X57476191Y-76204342D01*
X57476191Y-76204342D02*
X57428572Y-76013866D01*
X57428572Y-76013866D02*
X57428572Y-75775771D01*
X57428572Y-75775771D02*
X57476191Y-75585295D01*
X57476191Y-75585295D02*
X57523810Y-75490057D01*
X57523810Y-75490057D02*
X57571429Y-75442438D01*
X57571429Y-75442438D02*
X57666667Y-75394819D01*
X58857143Y-75728152D02*
X58857143Y-76394819D01*
X58619048Y-75347200D02*
X58380953Y-76061485D01*
X58380953Y-76061485D02*
X59000000Y-76061485D01*
X59571429Y-75394819D02*
X59666667Y-75394819D01*
X59666667Y-75394819D02*
X59761905Y-75442438D01*
X59761905Y-75442438D02*
X59809524Y-75490057D01*
X59809524Y-75490057D02*
X59857143Y-75585295D01*
X59857143Y-75585295D02*
X59904762Y-75775771D01*
X59904762Y-75775771D02*
X59904762Y-76013866D01*
X59904762Y-76013866D02*
X59857143Y-76204342D01*
X59857143Y-76204342D02*
X59809524Y-76299580D01*
X59809524Y-76299580D02*
X59761905Y-76347200D01*
X59761905Y-76347200D02*
X59666667Y-76394819D01*
X59666667Y-76394819D02*
X59571429Y-76394819D01*
X59571429Y-76394819D02*
X59476191Y-76347200D01*
X59476191Y-76347200D02*
X59428572Y-76299580D01*
X59428572Y-76299580D02*
X59380953Y-76204342D01*
X59380953Y-76204342D02*
X59333334Y-76013866D01*
X59333334Y-76013866D02*
X59333334Y-75775771D01*
X59333334Y-75775771D02*
X59380953Y-75585295D01*
X59380953Y-75585295D02*
X59428572Y-75490057D01*
X59428572Y-75490057D02*
X59476191Y-75442438D01*
X59476191Y-75442438D02*
X59571429Y-75394819D01*
X49454819Y-48761904D02*
X50264342Y-48761904D01*
X50264342Y-48761904D02*
X50359580Y-48714285D01*
X50359580Y-48714285D02*
X50407200Y-48666666D01*
X50407200Y-48666666D02*
X50454819Y-48571428D01*
X50454819Y-48571428D02*
X50454819Y-48380952D01*
X50454819Y-48380952D02*
X50407200Y-48285714D01*
X50407200Y-48285714D02*
X50359580Y-48238095D01*
X50359580Y-48238095D02*
X50264342Y-48190476D01*
X50264342Y-48190476D02*
X49454819Y-48190476D01*
X50454819Y-47190476D02*
X50454819Y-47761904D01*
X50454819Y-47476190D02*
X49454819Y-47476190D01*
X49454819Y-47476190D02*
X49597676Y-47571428D01*
X49597676Y-47571428D02*
X49692914Y-47666666D01*
X49692914Y-47666666D02*
X49740533Y-47761904D01*
X69404761Y-46104819D02*
X68833333Y-46104819D01*
X69119047Y-46104819D02*
X69119047Y-45104819D01*
X69119047Y-45104819D02*
X69023809Y-45247676D01*
X69023809Y-45247676D02*
X68928571Y-45342914D01*
X68928571Y-45342914D02*
X68833333Y-45390533D01*
X70023809Y-45104819D02*
X70119047Y-45104819D01*
X70119047Y-45104819D02*
X70214285Y-45152438D01*
X70214285Y-45152438D02*
X70261904Y-45200057D01*
X70261904Y-45200057D02*
X70309523Y-45295295D01*
X70309523Y-45295295D02*
X70357142Y-45485771D01*
X70357142Y-45485771D02*
X70357142Y-45723866D01*
X70357142Y-45723866D02*
X70309523Y-45914342D01*
X70309523Y-45914342D02*
X70261904Y-46009580D01*
X70261904Y-46009580D02*
X70214285Y-46057200D01*
X70214285Y-46057200D02*
X70119047Y-46104819D01*
X70119047Y-46104819D02*
X70023809Y-46104819D01*
X70023809Y-46104819D02*
X69928571Y-46057200D01*
X69928571Y-46057200D02*
X69880952Y-46009580D01*
X69880952Y-46009580D02*
X69833333Y-45914342D01*
X69833333Y-45914342D02*
X69785714Y-45723866D01*
X69785714Y-45723866D02*
X69785714Y-45485771D01*
X69785714Y-45485771D02*
X69833333Y-45295295D01*
X69833333Y-45295295D02*
X69880952Y-45200057D01*
X69880952Y-45200057D02*
X69928571Y-45152438D01*
X69928571Y-45152438D02*
X70023809Y-45104819D01*
X70785714Y-46104819D02*
X70785714Y-45104819D01*
X70880952Y-45723866D02*
X71166666Y-46104819D01*
X71166666Y-45438152D02*
X70785714Y-45819104D01*
D11*
X69916666Y-44227149D02*
X69750000Y-43989054D01*
X69630952Y-44227149D02*
X69630952Y-43727149D01*
X69630952Y-43727149D02*
X69821428Y-43727149D01*
X69821428Y-43727149D02*
X69869047Y-43750959D01*
X69869047Y-43750959D02*
X69892857Y-43774768D01*
X69892857Y-43774768D02*
X69916666Y-43822387D01*
X69916666Y-43822387D02*
X69916666Y-43893816D01*
X69916666Y-43893816D02*
X69892857Y-43941435D01*
X69892857Y-43941435D02*
X69869047Y-43965244D01*
X69869047Y-43965244D02*
X69821428Y-43989054D01*
X69821428Y-43989054D02*
X69630952Y-43989054D01*
X70202381Y-43941435D02*
X70154762Y-43917625D01*
X70154762Y-43917625D02*
X70130952Y-43893816D01*
X70130952Y-43893816D02*
X70107143Y-43846197D01*
X70107143Y-43846197D02*
X70107143Y-43822387D01*
X70107143Y-43822387D02*
X70130952Y-43774768D01*
X70130952Y-43774768D02*
X70154762Y-43750959D01*
X70154762Y-43750959D02*
X70202381Y-43727149D01*
X70202381Y-43727149D02*
X70297619Y-43727149D01*
X70297619Y-43727149D02*
X70345238Y-43750959D01*
X70345238Y-43750959D02*
X70369047Y-43774768D01*
X70369047Y-43774768D02*
X70392857Y-43822387D01*
X70392857Y-43822387D02*
X70392857Y-43846197D01*
X70392857Y-43846197D02*
X70369047Y-43893816D01*
X70369047Y-43893816D02*
X70345238Y-43917625D01*
X70345238Y-43917625D02*
X70297619Y-43941435D01*
X70297619Y-43941435D02*
X70202381Y-43941435D01*
X70202381Y-43941435D02*
X70154762Y-43965244D01*
X70154762Y-43965244D02*
X70130952Y-43989054D01*
X70130952Y-43989054D02*
X70107143Y-44036673D01*
X70107143Y-44036673D02*
X70107143Y-44131911D01*
X70107143Y-44131911D02*
X70130952Y-44179530D01*
X70130952Y-44179530D02*
X70154762Y-44203340D01*
X70154762Y-44203340D02*
X70202381Y-44227149D01*
X70202381Y-44227149D02*
X70297619Y-44227149D01*
X70297619Y-44227149D02*
X70345238Y-44203340D01*
X70345238Y-44203340D02*
X70369047Y-44179530D01*
X70369047Y-44179530D02*
X70392857Y-44131911D01*
X70392857Y-44131911D02*
X70392857Y-44036673D01*
X70392857Y-44036673D02*
X70369047Y-43989054D01*
X70369047Y-43989054D02*
X70345238Y-43965244D01*
X70345238Y-43965244D02*
X70297619Y-43941435D01*
D10*
X66833333Y-70134819D02*
X66261905Y-70134819D01*
X66547619Y-70134819D02*
X66547619Y-69134819D01*
X66547619Y-69134819D02*
X66452381Y-69277676D01*
X66452381Y-69277676D02*
X66357143Y-69372914D01*
X66357143Y-69372914D02*
X66261905Y-69420533D01*
X67690476Y-69468152D02*
X67690476Y-70134819D01*
X67261905Y-69468152D02*
X67261905Y-69991961D01*
X67261905Y-69991961D02*
X67309524Y-70087200D01*
X67309524Y-70087200D02*
X67404762Y-70134819D01*
X67404762Y-70134819D02*
X67547619Y-70134819D01*
X67547619Y-70134819D02*
X67642857Y-70087200D01*
X67642857Y-70087200D02*
X67690476Y-70039580D01*
D11*
X66916666Y-68179530D02*
X66892857Y-68203340D01*
X66892857Y-68203340D02*
X66821428Y-68227149D01*
X66821428Y-68227149D02*
X66773809Y-68227149D01*
X66773809Y-68227149D02*
X66702381Y-68203340D01*
X66702381Y-68203340D02*
X66654762Y-68155720D01*
X66654762Y-68155720D02*
X66630952Y-68108101D01*
X66630952Y-68108101D02*
X66607143Y-68012863D01*
X66607143Y-68012863D02*
X66607143Y-67941435D01*
X66607143Y-67941435D02*
X66630952Y-67846197D01*
X66630952Y-67846197D02*
X66654762Y-67798578D01*
X66654762Y-67798578D02*
X66702381Y-67750959D01*
X66702381Y-67750959D02*
X66773809Y-67727149D01*
X66773809Y-67727149D02*
X66821428Y-67727149D01*
X66821428Y-67727149D02*
X66892857Y-67750959D01*
X66892857Y-67750959D02*
X66916666Y-67774768D01*
X67107143Y-67774768D02*
X67130952Y-67750959D01*
X67130952Y-67750959D02*
X67178571Y-67727149D01*
X67178571Y-67727149D02*
X67297619Y-67727149D01*
X67297619Y-67727149D02*
X67345238Y-67750959D01*
X67345238Y-67750959D02*
X67369047Y-67774768D01*
X67369047Y-67774768D02*
X67392857Y-67822387D01*
X67392857Y-67822387D02*
X67392857Y-67870006D01*
X67392857Y-67870006D02*
X67369047Y-67941435D01*
X67369047Y-67941435D02*
X67083333Y-68227149D01*
X67083333Y-68227149D02*
X67392857Y-68227149D01*
D10*
X79404761Y-60104819D02*
X78833333Y-60104819D01*
X79119047Y-60104819D02*
X79119047Y-59104819D01*
X79119047Y-59104819D02*
X79023809Y-59247676D01*
X79023809Y-59247676D02*
X78928571Y-59342914D01*
X78928571Y-59342914D02*
X78833333Y-59390533D01*
X80023809Y-59104819D02*
X80119047Y-59104819D01*
X80119047Y-59104819D02*
X80214285Y-59152438D01*
X80214285Y-59152438D02*
X80261904Y-59200057D01*
X80261904Y-59200057D02*
X80309523Y-59295295D01*
X80309523Y-59295295D02*
X80357142Y-59485771D01*
X80357142Y-59485771D02*
X80357142Y-59723866D01*
X80357142Y-59723866D02*
X80309523Y-59914342D01*
X80309523Y-59914342D02*
X80261904Y-60009580D01*
X80261904Y-60009580D02*
X80214285Y-60057200D01*
X80214285Y-60057200D02*
X80119047Y-60104819D01*
X80119047Y-60104819D02*
X80023809Y-60104819D01*
X80023809Y-60104819D02*
X79928571Y-60057200D01*
X79928571Y-60057200D02*
X79880952Y-60009580D01*
X79880952Y-60009580D02*
X79833333Y-59914342D01*
X79833333Y-59914342D02*
X79785714Y-59723866D01*
X79785714Y-59723866D02*
X79785714Y-59485771D01*
X79785714Y-59485771D02*
X79833333Y-59295295D01*
X79833333Y-59295295D02*
X79880952Y-59200057D01*
X79880952Y-59200057D02*
X79928571Y-59152438D01*
X79928571Y-59152438D02*
X80023809Y-59104819D01*
X80785714Y-60104819D02*
X80785714Y-59104819D01*
X80880952Y-59723866D02*
X81166666Y-60104819D01*
X81166666Y-59438152D02*
X80785714Y-59819104D01*
D11*
X79678571Y-58227149D02*
X79511905Y-57989054D01*
X79392857Y-58227149D02*
X79392857Y-57727149D01*
X79392857Y-57727149D02*
X79583333Y-57727149D01*
X79583333Y-57727149D02*
X79630952Y-57750959D01*
X79630952Y-57750959D02*
X79654762Y-57774768D01*
X79654762Y-57774768D02*
X79678571Y-57822387D01*
X79678571Y-57822387D02*
X79678571Y-57893816D01*
X79678571Y-57893816D02*
X79654762Y-57941435D01*
X79654762Y-57941435D02*
X79630952Y-57965244D01*
X79630952Y-57965244D02*
X79583333Y-57989054D01*
X79583333Y-57989054D02*
X79392857Y-57989054D01*
X80154762Y-58227149D02*
X79869048Y-58227149D01*
X80011905Y-58227149D02*
X80011905Y-57727149D01*
X80011905Y-57727149D02*
X79964286Y-57798578D01*
X79964286Y-57798578D02*
X79916667Y-57846197D01*
X79916667Y-57846197D02*
X79869048Y-57870006D01*
X80464285Y-57727149D02*
X80511904Y-57727149D01*
X80511904Y-57727149D02*
X80559523Y-57750959D01*
X80559523Y-57750959D02*
X80583333Y-57774768D01*
X80583333Y-57774768D02*
X80607142Y-57822387D01*
X80607142Y-57822387D02*
X80630952Y-57917625D01*
X80630952Y-57917625D02*
X80630952Y-58036673D01*
X80630952Y-58036673D02*
X80607142Y-58131911D01*
X80607142Y-58131911D02*
X80583333Y-58179530D01*
X80583333Y-58179530D02*
X80559523Y-58203340D01*
X80559523Y-58203340D02*
X80511904Y-58227149D01*
X80511904Y-58227149D02*
X80464285Y-58227149D01*
X80464285Y-58227149D02*
X80416666Y-58203340D01*
X80416666Y-58203340D02*
X80392857Y-58179530D01*
X80392857Y-58179530D02*
X80369047Y-58131911D01*
X80369047Y-58131911D02*
X80345238Y-58036673D01*
X80345238Y-58036673D02*
X80345238Y-57917625D01*
X80345238Y-57917625D02*
X80369047Y-57822387D01*
X80369047Y-57822387D02*
X80392857Y-57774768D01*
X80392857Y-57774768D02*
X80416666Y-57750959D01*
X80416666Y-57750959D02*
X80464285Y-57727149D01*
D10*
X76643332Y-47024819D02*
X77309998Y-47024819D01*
X77309998Y-47024819D02*
X76881427Y-48024819D01*
X78119522Y-47358152D02*
X78119522Y-48024819D01*
X77881427Y-46977200D02*
X77643332Y-47691485D01*
X77643332Y-47691485D02*
X78262379Y-47691485D01*
X78643332Y-48024819D02*
X78643332Y-47024819D01*
X78643332Y-47501009D02*
X79214760Y-47501009D01*
X79214760Y-48024819D02*
X79214760Y-47024819D01*
X80262379Y-47929580D02*
X80214760Y-47977200D01*
X80214760Y-47977200D02*
X80071903Y-48024819D01*
X80071903Y-48024819D02*
X79976665Y-48024819D01*
X79976665Y-48024819D02*
X79833808Y-47977200D01*
X79833808Y-47977200D02*
X79738570Y-47881961D01*
X79738570Y-47881961D02*
X79690951Y-47786723D01*
X79690951Y-47786723D02*
X79643332Y-47596247D01*
X79643332Y-47596247D02*
X79643332Y-47453390D01*
X79643332Y-47453390D02*
X79690951Y-47262914D01*
X79690951Y-47262914D02*
X79738570Y-47167676D01*
X79738570Y-47167676D02*
X79833808Y-47072438D01*
X79833808Y-47072438D02*
X79976665Y-47024819D01*
X79976665Y-47024819D02*
X80071903Y-47024819D01*
X80071903Y-47024819D02*
X80214760Y-47072438D01*
X80214760Y-47072438D02*
X80262379Y-47120057D01*
X80595713Y-47024819D02*
X81262379Y-47024819D01*
X81262379Y-47024819D02*
X80833808Y-48024819D01*
X82071903Y-47358152D02*
X82071903Y-48024819D01*
X81833808Y-46977200D02*
X81595713Y-47691485D01*
X81595713Y-47691485D02*
X82214760Y-47691485D01*
X83214761Y-47358152D02*
X83595713Y-47358152D01*
X83357618Y-48024819D02*
X83357618Y-47167676D01*
X83357618Y-47167676D02*
X83405237Y-47072438D01*
X83405237Y-47072438D02*
X83500475Y-47024819D01*
X83500475Y-47024819D02*
X83595713Y-47024819D01*
X84357618Y-48024819D02*
X84357618Y-47501009D01*
X84357618Y-47501009D02*
X84309999Y-47405771D01*
X84309999Y-47405771D02*
X84214761Y-47358152D01*
X84214761Y-47358152D02*
X84024285Y-47358152D01*
X84024285Y-47358152D02*
X83929047Y-47405771D01*
X84357618Y-47977200D02*
X84262380Y-48024819D01*
X84262380Y-48024819D02*
X84024285Y-48024819D01*
X84024285Y-48024819D02*
X83929047Y-47977200D01*
X83929047Y-47977200D02*
X83881428Y-47881961D01*
X83881428Y-47881961D02*
X83881428Y-47786723D01*
X83881428Y-47786723D02*
X83929047Y-47691485D01*
X83929047Y-47691485D02*
X84024285Y-47643866D01*
X84024285Y-47643866D02*
X84262380Y-47643866D01*
X84262380Y-47643866D02*
X84357618Y-47596247D01*
X85262380Y-47358152D02*
X85262380Y-48024819D01*
X84833809Y-47358152D02*
X84833809Y-47881961D01*
X84833809Y-47881961D02*
X84881428Y-47977200D01*
X84881428Y-47977200D02*
X84976666Y-48024819D01*
X84976666Y-48024819D02*
X85119523Y-48024819D01*
X85119523Y-48024819D02*
X85214761Y-47977200D01*
X85214761Y-47977200D02*
X85262380Y-47929580D01*
X85881428Y-48024819D02*
X85786190Y-47977200D01*
X85786190Y-47977200D02*
X85738571Y-47881961D01*
X85738571Y-47881961D02*
X85738571Y-47024819D01*
X86119524Y-47358152D02*
X86500476Y-47358152D01*
X86262381Y-47024819D02*
X86262381Y-47881961D01*
X86262381Y-47881961D02*
X86310000Y-47977200D01*
X86310000Y-47977200D02*
X86405238Y-48024819D01*
X86405238Y-48024819D02*
X86500476Y-48024819D01*
X87738572Y-48024819D02*
X87643334Y-47977200D01*
X87643334Y-47977200D02*
X87595715Y-47881961D01*
X87595715Y-47881961D02*
X87595715Y-47024819D01*
X88548096Y-48024819D02*
X88548096Y-47501009D01*
X88548096Y-47501009D02*
X88500477Y-47405771D01*
X88500477Y-47405771D02*
X88405239Y-47358152D01*
X88405239Y-47358152D02*
X88214763Y-47358152D01*
X88214763Y-47358152D02*
X88119525Y-47405771D01*
X88548096Y-47977200D02*
X88452858Y-48024819D01*
X88452858Y-48024819D02*
X88214763Y-48024819D01*
X88214763Y-48024819D02*
X88119525Y-47977200D01*
X88119525Y-47977200D02*
X88071906Y-47881961D01*
X88071906Y-47881961D02*
X88071906Y-47786723D01*
X88071906Y-47786723D02*
X88119525Y-47691485D01*
X88119525Y-47691485D02*
X88214763Y-47643866D01*
X88214763Y-47643866D02*
X88452858Y-47643866D01*
X88452858Y-47643866D02*
X88548096Y-47596247D01*
X88881430Y-47358152D02*
X89262382Y-47358152D01*
X89024287Y-47024819D02*
X89024287Y-47881961D01*
X89024287Y-47881961D02*
X89071906Y-47977200D01*
X89071906Y-47977200D02*
X89167144Y-48024819D01*
X89167144Y-48024819D02*
X89262382Y-48024819D01*
X90024287Y-47977200D02*
X89929049Y-48024819D01*
X89929049Y-48024819D02*
X89738573Y-48024819D01*
X89738573Y-48024819D02*
X89643335Y-47977200D01*
X89643335Y-47977200D02*
X89595716Y-47929580D01*
X89595716Y-47929580D02*
X89548097Y-47834342D01*
X89548097Y-47834342D02*
X89548097Y-47548628D01*
X89548097Y-47548628D02*
X89595716Y-47453390D01*
X89595716Y-47453390D02*
X89643335Y-47405771D01*
X89643335Y-47405771D02*
X89738573Y-47358152D01*
X89738573Y-47358152D02*
X89929049Y-47358152D01*
X89929049Y-47358152D02*
X90024287Y-47405771D01*
X90452859Y-48024819D02*
X90452859Y-47024819D01*
X90881430Y-48024819D02*
X90881430Y-47501009D01*
X90881430Y-47501009D02*
X90833811Y-47405771D01*
X90833811Y-47405771D02*
X90738573Y-47358152D01*
X90738573Y-47358152D02*
X90595716Y-47358152D01*
X90595716Y-47358152D02*
X90500478Y-47405771D01*
X90500478Y-47405771D02*
X90452859Y-47453390D01*
X83264819Y-38381904D02*
X84074342Y-38381904D01*
X84074342Y-38381904D02*
X84169580Y-38334285D01*
X84169580Y-38334285D02*
X84217200Y-38286666D01*
X84217200Y-38286666D02*
X84264819Y-38191428D01*
X84264819Y-38191428D02*
X84264819Y-38000952D01*
X84264819Y-38000952D02*
X84217200Y-37905714D01*
X84217200Y-37905714D02*
X84169580Y-37858095D01*
X84169580Y-37858095D02*
X84074342Y-37810476D01*
X84074342Y-37810476D02*
X83264819Y-37810476D01*
X83264819Y-37429523D02*
X83264819Y-36810476D01*
X83264819Y-36810476D02*
X83645771Y-37143809D01*
X83645771Y-37143809D02*
X83645771Y-37000952D01*
X83645771Y-37000952D02*
X83693390Y-36905714D01*
X83693390Y-36905714D02*
X83741009Y-36858095D01*
X83741009Y-36858095D02*
X83836247Y-36810476D01*
X83836247Y-36810476D02*
X84074342Y-36810476D01*
X84074342Y-36810476D02*
X84169580Y-36858095D01*
X84169580Y-36858095D02*
X84217200Y-36905714D01*
X84217200Y-36905714D02*
X84264819Y-37000952D01*
X84264819Y-37000952D02*
X84264819Y-37286666D01*
X84264819Y-37286666D02*
X84217200Y-37381904D01*
X84217200Y-37381904D02*
X84169580Y-37429523D01*
X95236Y-14914819D02*
X-380953Y-14914819D01*
X-380953Y-14914819D02*
X-428572Y-15391009D01*
X-428572Y-15391009D02*
X-380953Y-15343390D01*
X-380953Y-15343390D02*
X-285715Y-15295771D01*
X-285715Y-15295771D02*
X-47620Y-15295771D01*
X-47620Y-15295771D02*
X47617Y-15343390D01*
X47617Y-15343390D02*
X95236Y-15391009D01*
X95236Y-15391009D02*
X142855Y-15486247D01*
X142855Y-15486247D02*
X142855Y-15724342D01*
X142855Y-15724342D02*
X95236Y-15819580D01*
X95236Y-15819580D02*
X47617Y-15867200D01*
X47617Y-15867200D02*
X-47620Y-15914819D01*
X-47620Y-15914819D02*
X-285715Y-15914819D01*
X-285715Y-15914819D02*
X-380953Y-15867200D01*
X-380953Y-15867200D02*
X-428572Y-15819580D01*
X428570Y-14914819D02*
X761903Y-15914819D01*
X761903Y-15914819D02*
X1095236Y-14914819D01*
X2190475Y-15248152D02*
X2190475Y-16248152D01*
X2190475Y-15295771D02*
X2285713Y-15248152D01*
X2285713Y-15248152D02*
X2476189Y-15248152D01*
X2476189Y-15248152D02*
X2571427Y-15295771D01*
X2571427Y-15295771D02*
X2619046Y-15343390D01*
X2619046Y-15343390D02*
X2666665Y-15438628D01*
X2666665Y-15438628D02*
X2666665Y-15724342D01*
X2666665Y-15724342D02*
X2619046Y-15819580D01*
X2619046Y-15819580D02*
X2571427Y-15867200D01*
X2571427Y-15867200D02*
X2476189Y-15914819D01*
X2476189Y-15914819D02*
X2285713Y-15914819D01*
X2285713Y-15914819D02*
X2190475Y-15867200D01*
X3238094Y-15914819D02*
X3142856Y-15867200D01*
X3142856Y-15867200D02*
X3095237Y-15819580D01*
X3095237Y-15819580D02*
X3047618Y-15724342D01*
X3047618Y-15724342D02*
X3047618Y-15438628D01*
X3047618Y-15438628D02*
X3095237Y-15343390D01*
X3095237Y-15343390D02*
X3142856Y-15295771D01*
X3142856Y-15295771D02*
X3238094Y-15248152D01*
X3238094Y-15248152D02*
X3380951Y-15248152D01*
X3380951Y-15248152D02*
X3476189Y-15295771D01*
X3476189Y-15295771D02*
X3523808Y-15343390D01*
X3523808Y-15343390D02*
X3571427Y-15438628D01*
X3571427Y-15438628D02*
X3571427Y-15724342D01*
X3571427Y-15724342D02*
X3523808Y-15819580D01*
X3523808Y-15819580D02*
X3476189Y-15867200D01*
X3476189Y-15867200D02*
X3380951Y-15914819D01*
X3380951Y-15914819D02*
X3238094Y-15914819D01*
X3904761Y-15248152D02*
X4095237Y-15914819D01*
X4095237Y-15914819D02*
X4285713Y-15438628D01*
X4285713Y-15438628D02*
X4476189Y-15914819D01*
X4476189Y-15914819D02*
X4666665Y-15248152D01*
X5428570Y-15867200D02*
X5333332Y-15914819D01*
X5333332Y-15914819D02*
X5142856Y-15914819D01*
X5142856Y-15914819D02*
X5047618Y-15867200D01*
X5047618Y-15867200D02*
X4999999Y-15771961D01*
X4999999Y-15771961D02*
X4999999Y-15391009D01*
X4999999Y-15391009D02*
X5047618Y-15295771D01*
X5047618Y-15295771D02*
X5142856Y-15248152D01*
X5142856Y-15248152D02*
X5333332Y-15248152D01*
X5333332Y-15248152D02*
X5428570Y-15295771D01*
X5428570Y-15295771D02*
X5476189Y-15391009D01*
X5476189Y-15391009D02*
X5476189Y-15486247D01*
X5476189Y-15486247D02*
X4999999Y-15581485D01*
X5904761Y-15914819D02*
X5904761Y-15248152D01*
X5904761Y-15438628D02*
X5952380Y-15343390D01*
X5952380Y-15343390D02*
X5999999Y-15295771D01*
X5999999Y-15295771D02*
X6095237Y-15248152D01*
X6095237Y-15248152D02*
X6190475Y-15248152D01*
X7999999Y-14867200D02*
X7142857Y-16152914D01*
X9047619Y-15010057D02*
X9095238Y-14962438D01*
X9095238Y-14962438D02*
X9190476Y-14914819D01*
X9190476Y-14914819D02*
X9428571Y-14914819D01*
X9428571Y-14914819D02*
X9523809Y-14962438D01*
X9523809Y-14962438D02*
X9571428Y-15010057D01*
X9571428Y-15010057D02*
X9619047Y-15105295D01*
X9619047Y-15105295D02*
X9619047Y-15200533D01*
X9619047Y-15200533D02*
X9571428Y-15343390D01*
X9571428Y-15343390D02*
X9000000Y-15914819D01*
X9000000Y-15914819D02*
X9619047Y-15914819D01*
X10476190Y-15248152D02*
X10476190Y-15914819D01*
X10238095Y-14867200D02*
X10000000Y-15581485D01*
X10000000Y-15581485D02*
X10619047Y-15581485D01*
X10857143Y-14914819D02*
X11190476Y-15914819D01*
X11190476Y-15914819D02*
X11523809Y-14914819D01*
X12571429Y-15867200D02*
X12666667Y-15914819D01*
X12666667Y-15914819D02*
X12857143Y-15914819D01*
X12857143Y-15914819D02*
X12952381Y-15867200D01*
X12952381Y-15867200D02*
X13000000Y-15771961D01*
X13000000Y-15771961D02*
X13000000Y-15724342D01*
X13000000Y-15724342D02*
X12952381Y-15629104D01*
X12952381Y-15629104D02*
X12857143Y-15581485D01*
X12857143Y-15581485D02*
X12714286Y-15581485D01*
X12714286Y-15581485D02*
X12619048Y-15533866D01*
X12619048Y-15533866D02*
X12571429Y-15438628D01*
X12571429Y-15438628D02*
X12571429Y-15391009D01*
X12571429Y-15391009D02*
X12619048Y-15295771D01*
X12619048Y-15295771D02*
X12714286Y-15248152D01*
X12714286Y-15248152D02*
X12857143Y-15248152D01*
X12857143Y-15248152D02*
X12952381Y-15295771D01*
X13809524Y-15867200D02*
X13714286Y-15914819D01*
X13714286Y-15914819D02*
X13523810Y-15914819D01*
X13523810Y-15914819D02*
X13428572Y-15867200D01*
X13428572Y-15867200D02*
X13380953Y-15771961D01*
X13380953Y-15771961D02*
X13380953Y-15391009D01*
X13380953Y-15391009D02*
X13428572Y-15295771D01*
X13428572Y-15295771D02*
X13523810Y-15248152D01*
X13523810Y-15248152D02*
X13714286Y-15248152D01*
X13714286Y-15248152D02*
X13809524Y-15295771D01*
X13809524Y-15295771D02*
X13857143Y-15391009D01*
X13857143Y-15391009D02*
X13857143Y-15486247D01*
X13857143Y-15486247D02*
X13380953Y-15581485D01*
X14285715Y-15248152D02*
X14285715Y-15914819D01*
X14285715Y-15343390D02*
X14333334Y-15295771D01*
X14333334Y-15295771D02*
X14428572Y-15248152D01*
X14428572Y-15248152D02*
X14571429Y-15248152D01*
X14571429Y-15248152D02*
X14666667Y-15295771D01*
X14666667Y-15295771D02*
X14714286Y-15391009D01*
X14714286Y-15391009D02*
X14714286Y-15914819D01*
X15142858Y-15867200D02*
X15238096Y-15914819D01*
X15238096Y-15914819D02*
X15428572Y-15914819D01*
X15428572Y-15914819D02*
X15523810Y-15867200D01*
X15523810Y-15867200D02*
X15571429Y-15771961D01*
X15571429Y-15771961D02*
X15571429Y-15724342D01*
X15571429Y-15724342D02*
X15523810Y-15629104D01*
X15523810Y-15629104D02*
X15428572Y-15581485D01*
X15428572Y-15581485D02*
X15285715Y-15581485D01*
X15285715Y-15581485D02*
X15190477Y-15533866D01*
X15190477Y-15533866D02*
X15142858Y-15438628D01*
X15142858Y-15438628D02*
X15142858Y-15391009D01*
X15142858Y-15391009D02*
X15190477Y-15295771D01*
X15190477Y-15295771D02*
X15285715Y-15248152D01*
X15285715Y-15248152D02*
X15428572Y-15248152D01*
X15428572Y-15248152D02*
X15523810Y-15295771D01*
X16380953Y-15867200D02*
X16285715Y-15914819D01*
X16285715Y-15914819D02*
X16095239Y-15914819D01*
X16095239Y-15914819D02*
X16000001Y-15867200D01*
X16000001Y-15867200D02*
X15952382Y-15771961D01*
X15952382Y-15771961D02*
X15952382Y-15391009D01*
X15952382Y-15391009D02*
X16000001Y-15295771D01*
X16000001Y-15295771D02*
X16095239Y-15248152D01*
X16095239Y-15248152D02*
X16285715Y-15248152D01*
X16285715Y-15248152D02*
X16380953Y-15295771D01*
X16380953Y-15295771D02*
X16428572Y-15391009D01*
X16428572Y-15391009D02*
X16428572Y-15486247D01*
X16428572Y-15486247D02*
X15952382Y-15581485D01*
X7454819Y-10873333D02*
X8169104Y-10873333D01*
X8169104Y-10873333D02*
X8311961Y-10920952D01*
X8311961Y-10920952D02*
X8407200Y-11016190D01*
X8407200Y-11016190D02*
X8454819Y-11159047D01*
X8454819Y-11159047D02*
X8454819Y-11254285D01*
X8454819Y-9873333D02*
X8454819Y-10444761D01*
X8454819Y-10159047D02*
X7454819Y-10159047D01*
X7454819Y-10159047D02*
X7597676Y-10254285D01*
X7597676Y-10254285D02*
X7692914Y-10349523D01*
X7692914Y-10349523D02*
X7740533Y-10444761D01*
X63880952Y-37134819D02*
X63309524Y-37134819D01*
X63595238Y-37134819D02*
X63595238Y-36134819D01*
X63595238Y-36134819D02*
X63500000Y-36277676D01*
X63500000Y-36277676D02*
X63404762Y-36372914D01*
X63404762Y-36372914D02*
X63309524Y-36420533D01*
X64500000Y-36134819D02*
X64595238Y-36134819D01*
X64595238Y-36134819D02*
X64690476Y-36182438D01*
X64690476Y-36182438D02*
X64738095Y-36230057D01*
X64738095Y-36230057D02*
X64785714Y-36325295D01*
X64785714Y-36325295D02*
X64833333Y-36515771D01*
X64833333Y-36515771D02*
X64833333Y-36753866D01*
X64833333Y-36753866D02*
X64785714Y-36944342D01*
X64785714Y-36944342D02*
X64738095Y-37039580D01*
X64738095Y-37039580D02*
X64690476Y-37087200D01*
X64690476Y-37087200D02*
X64595238Y-37134819D01*
X64595238Y-37134819D02*
X64500000Y-37134819D01*
X64500000Y-37134819D02*
X64404762Y-37087200D01*
X64404762Y-37087200D02*
X64357143Y-37039580D01*
X64357143Y-37039580D02*
X64309524Y-36944342D01*
X64309524Y-36944342D02*
X64261905Y-36753866D01*
X64261905Y-36753866D02*
X64261905Y-36515771D01*
X64261905Y-36515771D02*
X64309524Y-36325295D01*
X64309524Y-36325295D02*
X64357143Y-36230057D01*
X64357143Y-36230057D02*
X64404762Y-36182438D01*
X64404762Y-36182438D02*
X64500000Y-36134819D01*
X65452381Y-36134819D02*
X65547619Y-36134819D01*
X65547619Y-36134819D02*
X65642857Y-36182438D01*
X65642857Y-36182438D02*
X65690476Y-36230057D01*
X65690476Y-36230057D02*
X65738095Y-36325295D01*
X65738095Y-36325295D02*
X65785714Y-36515771D01*
X65785714Y-36515771D02*
X65785714Y-36753866D01*
X65785714Y-36753866D02*
X65738095Y-36944342D01*
X65738095Y-36944342D02*
X65690476Y-37039580D01*
X65690476Y-37039580D02*
X65642857Y-37087200D01*
X65642857Y-37087200D02*
X65547619Y-37134819D01*
X65547619Y-37134819D02*
X65452381Y-37134819D01*
X65452381Y-37134819D02*
X65357143Y-37087200D01*
X65357143Y-37087200D02*
X65309524Y-37039580D01*
X65309524Y-37039580D02*
X65261905Y-36944342D01*
X65261905Y-36944342D02*
X65214286Y-36753866D01*
X65214286Y-36753866D02*
X65214286Y-36515771D01*
X65214286Y-36515771D02*
X65261905Y-36325295D01*
X65261905Y-36325295D02*
X65309524Y-36230057D01*
X65309524Y-36230057D02*
X65357143Y-36182438D01*
X65357143Y-36182438D02*
X65452381Y-36134819D01*
X66214286Y-36468152D02*
X66214286Y-37134819D01*
X66214286Y-36563390D02*
X66261905Y-36515771D01*
X66261905Y-36515771D02*
X66357143Y-36468152D01*
X66357143Y-36468152D02*
X66500000Y-36468152D01*
X66500000Y-36468152D02*
X66595238Y-36515771D01*
X66595238Y-36515771D02*
X66642857Y-36611009D01*
X66642857Y-36611009D02*
X66642857Y-37134819D01*
D11*
X64916666Y-35179530D02*
X64892857Y-35203340D01*
X64892857Y-35203340D02*
X64821428Y-35227149D01*
X64821428Y-35227149D02*
X64773809Y-35227149D01*
X64773809Y-35227149D02*
X64702381Y-35203340D01*
X64702381Y-35203340D02*
X64654762Y-35155720D01*
X64654762Y-35155720D02*
X64630952Y-35108101D01*
X64630952Y-35108101D02*
X64607143Y-35012863D01*
X64607143Y-35012863D02*
X64607143Y-34941435D01*
X64607143Y-34941435D02*
X64630952Y-34846197D01*
X64630952Y-34846197D02*
X64654762Y-34798578D01*
X64654762Y-34798578D02*
X64702381Y-34750959D01*
X64702381Y-34750959D02*
X64773809Y-34727149D01*
X64773809Y-34727149D02*
X64821428Y-34727149D01*
X64821428Y-34727149D02*
X64892857Y-34750959D01*
X64892857Y-34750959D02*
X64916666Y-34774768D01*
X65202381Y-34941435D02*
X65154762Y-34917625D01*
X65154762Y-34917625D02*
X65130952Y-34893816D01*
X65130952Y-34893816D02*
X65107143Y-34846197D01*
X65107143Y-34846197D02*
X65107143Y-34822387D01*
X65107143Y-34822387D02*
X65130952Y-34774768D01*
X65130952Y-34774768D02*
X65154762Y-34750959D01*
X65154762Y-34750959D02*
X65202381Y-34727149D01*
X65202381Y-34727149D02*
X65297619Y-34727149D01*
X65297619Y-34727149D02*
X65345238Y-34750959D01*
X65345238Y-34750959D02*
X65369047Y-34774768D01*
X65369047Y-34774768D02*
X65392857Y-34822387D01*
X65392857Y-34822387D02*
X65392857Y-34846197D01*
X65392857Y-34846197D02*
X65369047Y-34893816D01*
X65369047Y-34893816D02*
X65345238Y-34917625D01*
X65345238Y-34917625D02*
X65297619Y-34941435D01*
X65297619Y-34941435D02*
X65202381Y-34941435D01*
X65202381Y-34941435D02*
X65154762Y-34965244D01*
X65154762Y-34965244D02*
X65130952Y-34989054D01*
X65130952Y-34989054D02*
X65107143Y-35036673D01*
X65107143Y-35036673D02*
X65107143Y-35131911D01*
X65107143Y-35131911D02*
X65130952Y-35179530D01*
X65130952Y-35179530D02*
X65154762Y-35203340D01*
X65154762Y-35203340D02*
X65202381Y-35227149D01*
X65202381Y-35227149D02*
X65297619Y-35227149D01*
X65297619Y-35227149D02*
X65345238Y-35203340D01*
X65345238Y-35203340D02*
X65369047Y-35179530D01*
X65369047Y-35179530D02*
X65392857Y-35131911D01*
X65392857Y-35131911D02*
X65392857Y-35036673D01*
X65392857Y-35036673D02*
X65369047Y-34989054D01*
X65369047Y-34989054D02*
X65345238Y-34965244D01*
X65345238Y-34965244D02*
X65297619Y-34941435D01*
D10*
X83666666Y-80534819D02*
X83333333Y-80058628D01*
X83095238Y-80534819D02*
X83095238Y-79534819D01*
X83095238Y-79534819D02*
X83476190Y-79534819D01*
X83476190Y-79534819D02*
X83571428Y-79582438D01*
X83571428Y-79582438D02*
X83619047Y-79630057D01*
X83619047Y-79630057D02*
X83666666Y-79725295D01*
X83666666Y-79725295D02*
X83666666Y-79868152D01*
X83666666Y-79868152D02*
X83619047Y-79963390D01*
X83619047Y-79963390D02*
X83571428Y-80011009D01*
X83571428Y-80011009D02*
X83476190Y-80058628D01*
X83476190Y-80058628D02*
X83095238Y-80058628D01*
X84095238Y-80534819D02*
X84095238Y-79534819D01*
X85095237Y-79582438D02*
X84999999Y-79534819D01*
X84999999Y-79534819D02*
X84857142Y-79534819D01*
X84857142Y-79534819D02*
X84714285Y-79582438D01*
X84714285Y-79582438D02*
X84619047Y-79677676D01*
X84619047Y-79677676D02*
X84571428Y-79772914D01*
X84571428Y-79772914D02*
X84523809Y-79963390D01*
X84523809Y-79963390D02*
X84523809Y-80106247D01*
X84523809Y-80106247D02*
X84571428Y-80296723D01*
X84571428Y-80296723D02*
X84619047Y-80391961D01*
X84619047Y-80391961D02*
X84714285Y-80487200D01*
X84714285Y-80487200D02*
X84857142Y-80534819D01*
X84857142Y-80534819D02*
X84952380Y-80534819D01*
X84952380Y-80534819D02*
X85095237Y-80487200D01*
X85095237Y-80487200D02*
X85142856Y-80439580D01*
X85142856Y-80439580D02*
X85142856Y-80106247D01*
X85142856Y-80106247D02*
X84952380Y-80106247D01*
X85571428Y-80534819D02*
X85571428Y-79534819D01*
X85571428Y-80011009D02*
X86142856Y-80011009D01*
X86142856Y-80534819D02*
X86142856Y-79534819D01*
X86476190Y-79534819D02*
X87047618Y-79534819D01*
X86761904Y-80534819D02*
X86761904Y-79534819D01*
X88142857Y-80534819D02*
X88142857Y-79534819D01*
X88142857Y-79534819D02*
X88380952Y-79534819D01*
X88380952Y-79534819D02*
X88523809Y-79582438D01*
X88523809Y-79582438D02*
X88619047Y-79677676D01*
X88619047Y-79677676D02*
X88666666Y-79772914D01*
X88666666Y-79772914D02*
X88714285Y-79963390D01*
X88714285Y-79963390D02*
X88714285Y-80106247D01*
X88714285Y-80106247D02*
X88666666Y-80296723D01*
X88666666Y-80296723D02*
X88619047Y-80391961D01*
X88619047Y-80391961D02*
X88523809Y-80487200D01*
X88523809Y-80487200D02*
X88380952Y-80534819D01*
X88380952Y-80534819D02*
X88142857Y-80534819D01*
X89714285Y-80534819D02*
X89380952Y-80058628D01*
X89142857Y-80534819D02*
X89142857Y-79534819D01*
X89142857Y-79534819D02*
X89523809Y-79534819D01*
X89523809Y-79534819D02*
X89619047Y-79582438D01*
X89619047Y-79582438D02*
X89666666Y-79630057D01*
X89666666Y-79630057D02*
X89714285Y-79725295D01*
X89714285Y-79725295D02*
X89714285Y-79868152D01*
X89714285Y-79868152D02*
X89666666Y-79963390D01*
X89666666Y-79963390D02*
X89619047Y-80011009D01*
X89619047Y-80011009D02*
X89523809Y-80058628D01*
X89523809Y-80058628D02*
X89142857Y-80058628D01*
X90142857Y-80534819D02*
X90142857Y-79534819D01*
X90476190Y-79534819D02*
X90809523Y-80534819D01*
X90809523Y-80534819D02*
X91142856Y-79534819D01*
X91476190Y-80011009D02*
X91809523Y-80011009D01*
X91952380Y-80534819D02*
X91476190Y-80534819D01*
X91476190Y-80534819D02*
X91476190Y-79534819D01*
X91476190Y-79534819D02*
X91952380Y-79534819D01*
X92952380Y-80534819D02*
X92619047Y-80058628D01*
X92380952Y-80534819D02*
X92380952Y-79534819D01*
X92380952Y-79534819D02*
X92761904Y-79534819D01*
X92761904Y-79534819D02*
X92857142Y-79582438D01*
X92857142Y-79582438D02*
X92904761Y-79630057D01*
X92904761Y-79630057D02*
X92952380Y-79725295D01*
X92952380Y-79725295D02*
X92952380Y-79868152D01*
X92952380Y-79868152D02*
X92904761Y-79963390D01*
X92904761Y-79963390D02*
X92857142Y-80011009D01*
X92857142Y-80011009D02*
X92761904Y-80058628D01*
X92761904Y-80058628D02*
X92380952Y-80058628D01*
X87454819Y-71683333D02*
X88169104Y-71683333D01*
X88169104Y-71683333D02*
X88311961Y-71730952D01*
X88311961Y-71730952D02*
X88407200Y-71826190D01*
X88407200Y-71826190D02*
X88454819Y-71969047D01*
X88454819Y-71969047D02*
X88454819Y-72064285D01*
X87454819Y-71302380D02*
X87454819Y-70683333D01*
X87454819Y-70683333D02*
X87835771Y-71016666D01*
X87835771Y-71016666D02*
X87835771Y-70873809D01*
X87835771Y-70873809D02*
X87883390Y-70778571D01*
X87883390Y-70778571D02*
X87931009Y-70730952D01*
X87931009Y-70730952D02*
X88026247Y-70683333D01*
X88026247Y-70683333D02*
X88264342Y-70683333D01*
X88264342Y-70683333D02*
X88359580Y-70730952D01*
X88359580Y-70730952D02*
X88407200Y-70778571D01*
X88407200Y-70778571D02*
X88454819Y-70873809D01*
X88454819Y-70873809D02*
X88454819Y-71159523D01*
X88454819Y-71159523D02*
X88407200Y-71254761D01*
X88407200Y-71254761D02*
X88359580Y-71302380D01*
X70547619Y-95454819D02*
X70547619Y-96264342D01*
X70547619Y-96264342D02*
X70595238Y-96359580D01*
X70595238Y-96359580D02*
X70642857Y-96407200D01*
X70642857Y-96407200D02*
X70738095Y-96454819D01*
X70738095Y-96454819D02*
X70928571Y-96454819D01*
X70928571Y-96454819D02*
X71023809Y-96407200D01*
X71023809Y-96407200D02*
X71071428Y-96359580D01*
X71071428Y-96359580D02*
X71119047Y-96264342D01*
X71119047Y-96264342D02*
X71119047Y-95454819D01*
X71547619Y-96169104D02*
X72023809Y-96169104D01*
X71452381Y-96454819D02*
X71785714Y-95454819D01*
X71785714Y-95454819D02*
X72119047Y-96454819D01*
X73023809Y-96454819D02*
X72690476Y-95978628D01*
X72452381Y-96454819D02*
X72452381Y-95454819D01*
X72452381Y-95454819D02*
X72833333Y-95454819D01*
X72833333Y-95454819D02*
X72928571Y-95502438D01*
X72928571Y-95502438D02*
X72976190Y-95550057D01*
X72976190Y-95550057D02*
X73023809Y-95645295D01*
X73023809Y-95645295D02*
X73023809Y-95788152D01*
X73023809Y-95788152D02*
X72976190Y-95883390D01*
X72976190Y-95883390D02*
X72928571Y-95931009D01*
X72928571Y-95931009D02*
X72833333Y-95978628D01*
X72833333Y-95978628D02*
X72452381Y-95978628D01*
X73309524Y-95454819D02*
X73880952Y-95454819D01*
X73595238Y-96454819D02*
X73595238Y-95454819D01*
X74976191Y-96454819D02*
X74976191Y-95454819D01*
X74976191Y-95454819D02*
X75214286Y-95454819D01*
X75214286Y-95454819D02*
X75357143Y-95502438D01*
X75357143Y-95502438D02*
X75452381Y-95597676D01*
X75452381Y-95597676D02*
X75500000Y-95692914D01*
X75500000Y-95692914D02*
X75547619Y-95883390D01*
X75547619Y-95883390D02*
X75547619Y-96026247D01*
X75547619Y-96026247D02*
X75500000Y-96216723D01*
X75500000Y-96216723D02*
X75452381Y-96311961D01*
X75452381Y-96311961D02*
X75357143Y-96407200D01*
X75357143Y-96407200D02*
X75214286Y-96454819D01*
X75214286Y-96454819D02*
X74976191Y-96454819D01*
X75976191Y-95931009D02*
X76309524Y-95931009D01*
X76452381Y-96454819D02*
X75976191Y-96454819D01*
X75976191Y-96454819D02*
X75976191Y-95454819D01*
X75976191Y-95454819D02*
X76452381Y-95454819D01*
X77214286Y-95931009D02*
X77357143Y-95978628D01*
X77357143Y-95978628D02*
X77404762Y-96026247D01*
X77404762Y-96026247D02*
X77452381Y-96121485D01*
X77452381Y-96121485D02*
X77452381Y-96264342D01*
X77452381Y-96264342D02*
X77404762Y-96359580D01*
X77404762Y-96359580D02*
X77357143Y-96407200D01*
X77357143Y-96407200D02*
X77261905Y-96454819D01*
X77261905Y-96454819D02*
X76880953Y-96454819D01*
X76880953Y-96454819D02*
X76880953Y-95454819D01*
X76880953Y-95454819D02*
X77214286Y-95454819D01*
X77214286Y-95454819D02*
X77309524Y-95502438D01*
X77309524Y-95502438D02*
X77357143Y-95550057D01*
X77357143Y-95550057D02*
X77404762Y-95645295D01*
X77404762Y-95645295D02*
X77404762Y-95740533D01*
X77404762Y-95740533D02*
X77357143Y-95835771D01*
X77357143Y-95835771D02*
X77309524Y-95883390D01*
X77309524Y-95883390D02*
X77214286Y-95931009D01*
X77214286Y-95931009D02*
X76880953Y-95931009D01*
X77880953Y-95454819D02*
X77880953Y-96264342D01*
X77880953Y-96264342D02*
X77928572Y-96359580D01*
X77928572Y-96359580D02*
X77976191Y-96407200D01*
X77976191Y-96407200D02*
X78071429Y-96454819D01*
X78071429Y-96454819D02*
X78261905Y-96454819D01*
X78261905Y-96454819D02*
X78357143Y-96407200D01*
X78357143Y-96407200D02*
X78404762Y-96359580D01*
X78404762Y-96359580D02*
X78452381Y-96264342D01*
X78452381Y-96264342D02*
X78452381Y-95454819D01*
X79452381Y-95502438D02*
X79357143Y-95454819D01*
X79357143Y-95454819D02*
X79214286Y-95454819D01*
X79214286Y-95454819D02*
X79071429Y-95502438D01*
X79071429Y-95502438D02*
X78976191Y-95597676D01*
X78976191Y-95597676D02*
X78928572Y-95692914D01*
X78928572Y-95692914D02*
X78880953Y-95883390D01*
X78880953Y-95883390D02*
X78880953Y-96026247D01*
X78880953Y-96026247D02*
X78928572Y-96216723D01*
X78928572Y-96216723D02*
X78976191Y-96311961D01*
X78976191Y-96311961D02*
X79071429Y-96407200D01*
X79071429Y-96407200D02*
X79214286Y-96454819D01*
X79214286Y-96454819D02*
X79309524Y-96454819D01*
X79309524Y-96454819D02*
X79452381Y-96407200D01*
X79452381Y-96407200D02*
X79500000Y-96359580D01*
X79500000Y-96359580D02*
X79500000Y-96026247D01*
X79500000Y-96026247D02*
X79309524Y-96026247D01*
X74454819Y-90143333D02*
X75169104Y-90143333D01*
X75169104Y-90143333D02*
X75311961Y-90190952D01*
X75311961Y-90190952D02*
X75407200Y-90286190D01*
X75407200Y-90286190D02*
X75454819Y-90429047D01*
X75454819Y-90429047D02*
X75454819Y-90524285D01*
X74454819Y-89762380D02*
X74454819Y-89095714D01*
X74454819Y-89095714D02*
X75454819Y-89524285D01*
X28595238Y-85200057D02*
X28642857Y-85152438D01*
X28642857Y-85152438D02*
X28738095Y-85104819D01*
X28738095Y-85104819D02*
X28976190Y-85104819D01*
X28976190Y-85104819D02*
X29071428Y-85152438D01*
X29071428Y-85152438D02*
X29119047Y-85200057D01*
X29119047Y-85200057D02*
X29166666Y-85295295D01*
X29166666Y-85295295D02*
X29166666Y-85390533D01*
X29166666Y-85390533D02*
X29119047Y-85533390D01*
X29119047Y-85533390D02*
X28547619Y-86104819D01*
X28547619Y-86104819D02*
X29166666Y-86104819D01*
X29595238Y-86009580D02*
X29642857Y-86057200D01*
X29642857Y-86057200D02*
X29595238Y-86104819D01*
X29595238Y-86104819D02*
X29547619Y-86057200D01*
X29547619Y-86057200D02*
X29595238Y-86009580D01*
X29595238Y-86009580D02*
X29595238Y-86104819D01*
X30023809Y-85200057D02*
X30071428Y-85152438D01*
X30071428Y-85152438D02*
X30166666Y-85104819D01*
X30166666Y-85104819D02*
X30404761Y-85104819D01*
X30404761Y-85104819D02*
X30499999Y-85152438D01*
X30499999Y-85152438D02*
X30547618Y-85200057D01*
X30547618Y-85200057D02*
X30595237Y-85295295D01*
X30595237Y-85295295D02*
X30595237Y-85390533D01*
X30595237Y-85390533D02*
X30547618Y-85533390D01*
X30547618Y-85533390D02*
X29976190Y-86104819D01*
X29976190Y-86104819D02*
X30595237Y-86104819D01*
X31023809Y-86104819D02*
X31023809Y-85104819D01*
X31119047Y-85723866D02*
X31404761Y-86104819D01*
X31404761Y-85438152D02*
X31023809Y-85819104D01*
D11*
X29916666Y-84227149D02*
X29750000Y-83989054D01*
X29630952Y-84227149D02*
X29630952Y-83727149D01*
X29630952Y-83727149D02*
X29821428Y-83727149D01*
X29821428Y-83727149D02*
X29869047Y-83750959D01*
X29869047Y-83750959D02*
X29892857Y-83774768D01*
X29892857Y-83774768D02*
X29916666Y-83822387D01*
X29916666Y-83822387D02*
X29916666Y-83893816D01*
X29916666Y-83893816D02*
X29892857Y-83941435D01*
X29892857Y-83941435D02*
X29869047Y-83965244D01*
X29869047Y-83965244D02*
X29821428Y-83989054D01*
X29821428Y-83989054D02*
X29630952Y-83989054D01*
X30369047Y-83727149D02*
X30130952Y-83727149D01*
X30130952Y-83727149D02*
X30107143Y-83965244D01*
X30107143Y-83965244D02*
X30130952Y-83941435D01*
X30130952Y-83941435D02*
X30178571Y-83917625D01*
X30178571Y-83917625D02*
X30297619Y-83917625D01*
X30297619Y-83917625D02*
X30345238Y-83941435D01*
X30345238Y-83941435D02*
X30369047Y-83965244D01*
X30369047Y-83965244D02*
X30392857Y-84012863D01*
X30392857Y-84012863D02*
X30392857Y-84131911D01*
X30392857Y-84131911D02*
X30369047Y-84179530D01*
X30369047Y-84179530D02*
X30345238Y-84203340D01*
X30345238Y-84203340D02*
X30297619Y-84227149D01*
X30297619Y-84227149D02*
X30178571Y-84227149D01*
X30178571Y-84227149D02*
X30130952Y-84203340D01*
X30130952Y-84203340D02*
X30107143Y-84179530D01*
D10*
X33880952Y-37134819D02*
X33309524Y-37134819D01*
X33595238Y-37134819D02*
X33595238Y-36134819D01*
X33595238Y-36134819D02*
X33500000Y-36277676D01*
X33500000Y-36277676D02*
X33404762Y-36372914D01*
X33404762Y-36372914D02*
X33309524Y-36420533D01*
X34500000Y-36134819D02*
X34595238Y-36134819D01*
X34595238Y-36134819D02*
X34690476Y-36182438D01*
X34690476Y-36182438D02*
X34738095Y-36230057D01*
X34738095Y-36230057D02*
X34785714Y-36325295D01*
X34785714Y-36325295D02*
X34833333Y-36515771D01*
X34833333Y-36515771D02*
X34833333Y-36753866D01*
X34833333Y-36753866D02*
X34785714Y-36944342D01*
X34785714Y-36944342D02*
X34738095Y-37039580D01*
X34738095Y-37039580D02*
X34690476Y-37087200D01*
X34690476Y-37087200D02*
X34595238Y-37134819D01*
X34595238Y-37134819D02*
X34500000Y-37134819D01*
X34500000Y-37134819D02*
X34404762Y-37087200D01*
X34404762Y-37087200D02*
X34357143Y-37039580D01*
X34357143Y-37039580D02*
X34309524Y-36944342D01*
X34309524Y-36944342D02*
X34261905Y-36753866D01*
X34261905Y-36753866D02*
X34261905Y-36515771D01*
X34261905Y-36515771D02*
X34309524Y-36325295D01*
X34309524Y-36325295D02*
X34357143Y-36230057D01*
X34357143Y-36230057D02*
X34404762Y-36182438D01*
X34404762Y-36182438D02*
X34500000Y-36134819D01*
X35452381Y-36134819D02*
X35547619Y-36134819D01*
X35547619Y-36134819D02*
X35642857Y-36182438D01*
X35642857Y-36182438D02*
X35690476Y-36230057D01*
X35690476Y-36230057D02*
X35738095Y-36325295D01*
X35738095Y-36325295D02*
X35785714Y-36515771D01*
X35785714Y-36515771D02*
X35785714Y-36753866D01*
X35785714Y-36753866D02*
X35738095Y-36944342D01*
X35738095Y-36944342D02*
X35690476Y-37039580D01*
X35690476Y-37039580D02*
X35642857Y-37087200D01*
X35642857Y-37087200D02*
X35547619Y-37134819D01*
X35547619Y-37134819D02*
X35452381Y-37134819D01*
X35452381Y-37134819D02*
X35357143Y-37087200D01*
X35357143Y-37087200D02*
X35309524Y-37039580D01*
X35309524Y-37039580D02*
X35261905Y-36944342D01*
X35261905Y-36944342D02*
X35214286Y-36753866D01*
X35214286Y-36753866D02*
X35214286Y-36515771D01*
X35214286Y-36515771D02*
X35261905Y-36325295D01*
X35261905Y-36325295D02*
X35309524Y-36230057D01*
X35309524Y-36230057D02*
X35357143Y-36182438D01*
X35357143Y-36182438D02*
X35452381Y-36134819D01*
X36214286Y-36468152D02*
X36214286Y-37134819D01*
X36214286Y-36563390D02*
X36261905Y-36515771D01*
X36261905Y-36515771D02*
X36357143Y-36468152D01*
X36357143Y-36468152D02*
X36500000Y-36468152D01*
X36500000Y-36468152D02*
X36595238Y-36515771D01*
X36595238Y-36515771D02*
X36642857Y-36611009D01*
X36642857Y-36611009D02*
X36642857Y-37134819D01*
D11*
X34916666Y-35179530D02*
X34892857Y-35203340D01*
X34892857Y-35203340D02*
X34821428Y-35227149D01*
X34821428Y-35227149D02*
X34773809Y-35227149D01*
X34773809Y-35227149D02*
X34702381Y-35203340D01*
X34702381Y-35203340D02*
X34654762Y-35155720D01*
X34654762Y-35155720D02*
X34630952Y-35108101D01*
X34630952Y-35108101D02*
X34607143Y-35012863D01*
X34607143Y-35012863D02*
X34607143Y-34941435D01*
X34607143Y-34941435D02*
X34630952Y-34846197D01*
X34630952Y-34846197D02*
X34654762Y-34798578D01*
X34654762Y-34798578D02*
X34702381Y-34750959D01*
X34702381Y-34750959D02*
X34773809Y-34727149D01*
X34773809Y-34727149D02*
X34821428Y-34727149D01*
X34821428Y-34727149D02*
X34892857Y-34750959D01*
X34892857Y-34750959D02*
X34916666Y-34774768D01*
X35345238Y-34893816D02*
X35345238Y-35227149D01*
X35226190Y-34703340D02*
X35107143Y-35060482D01*
X35107143Y-35060482D02*
X35416666Y-35060482D01*
D10*
X4047618Y-80534819D02*
X3571428Y-80534819D01*
X3571428Y-80534819D02*
X3571428Y-79534819D01*
X4380952Y-80011009D02*
X4714285Y-80011009D01*
X4857142Y-80534819D02*
X4380952Y-80534819D01*
X4380952Y-80534819D02*
X4380952Y-79534819D01*
X4380952Y-79534819D02*
X4857142Y-79534819D01*
X5619047Y-80011009D02*
X5285714Y-80011009D01*
X5285714Y-80534819D02*
X5285714Y-79534819D01*
X5285714Y-79534819D02*
X5761904Y-79534819D01*
X6000000Y-79534819D02*
X6571428Y-79534819D01*
X6285714Y-80534819D02*
X6285714Y-79534819D01*
X7666667Y-80534819D02*
X7666667Y-79534819D01*
X7666667Y-79534819D02*
X7904762Y-79534819D01*
X7904762Y-79534819D02*
X8047619Y-79582438D01*
X8047619Y-79582438D02*
X8142857Y-79677676D01*
X8142857Y-79677676D02*
X8190476Y-79772914D01*
X8190476Y-79772914D02*
X8238095Y-79963390D01*
X8238095Y-79963390D02*
X8238095Y-80106247D01*
X8238095Y-80106247D02*
X8190476Y-80296723D01*
X8190476Y-80296723D02*
X8142857Y-80391961D01*
X8142857Y-80391961D02*
X8047619Y-80487200D01*
X8047619Y-80487200D02*
X7904762Y-80534819D01*
X7904762Y-80534819D02*
X7666667Y-80534819D01*
X9238095Y-80534819D02*
X8904762Y-80058628D01*
X8666667Y-80534819D02*
X8666667Y-79534819D01*
X8666667Y-79534819D02*
X9047619Y-79534819D01*
X9047619Y-79534819D02*
X9142857Y-79582438D01*
X9142857Y-79582438D02*
X9190476Y-79630057D01*
X9190476Y-79630057D02*
X9238095Y-79725295D01*
X9238095Y-79725295D02*
X9238095Y-79868152D01*
X9238095Y-79868152D02*
X9190476Y-79963390D01*
X9190476Y-79963390D02*
X9142857Y-80011009D01*
X9142857Y-80011009D02*
X9047619Y-80058628D01*
X9047619Y-80058628D02*
X8666667Y-80058628D01*
X9666667Y-80534819D02*
X9666667Y-79534819D01*
X10000000Y-79534819D02*
X10333333Y-80534819D01*
X10333333Y-80534819D02*
X10666666Y-79534819D01*
X11000000Y-80011009D02*
X11333333Y-80011009D01*
X11476190Y-80534819D02*
X11000000Y-80534819D01*
X11000000Y-80534819D02*
X11000000Y-79534819D01*
X11000000Y-79534819D02*
X11476190Y-79534819D01*
X12476190Y-80534819D02*
X12142857Y-80058628D01*
X11904762Y-80534819D02*
X11904762Y-79534819D01*
X11904762Y-79534819D02*
X12285714Y-79534819D01*
X12285714Y-79534819D02*
X12380952Y-79582438D01*
X12380952Y-79582438D02*
X12428571Y-79630057D01*
X12428571Y-79630057D02*
X12476190Y-79725295D01*
X12476190Y-79725295D02*
X12476190Y-79868152D01*
X12476190Y-79868152D02*
X12428571Y-79963390D01*
X12428571Y-79963390D02*
X12380952Y-80011009D01*
X12380952Y-80011009D02*
X12285714Y-80058628D01*
X12285714Y-80058628D02*
X11904762Y-80058628D01*
X7454819Y-71683333D02*
X8169104Y-71683333D01*
X8169104Y-71683333D02*
X8311961Y-71730952D01*
X8311961Y-71730952D02*
X8407200Y-71826190D01*
X8407200Y-71826190D02*
X8454819Y-71969047D01*
X8454819Y-71969047D02*
X8454819Y-72064285D01*
X7550057Y-71254761D02*
X7502438Y-71207142D01*
X7502438Y-71207142D02*
X7454819Y-71111904D01*
X7454819Y-71111904D02*
X7454819Y-70873809D01*
X7454819Y-70873809D02*
X7502438Y-70778571D01*
X7502438Y-70778571D02*
X7550057Y-70730952D01*
X7550057Y-70730952D02*
X7645295Y-70683333D01*
X7645295Y-70683333D02*
X7740533Y-70683333D01*
X7740533Y-70683333D02*
X7883390Y-70730952D01*
X7883390Y-70730952D02*
X8454819Y-71302380D01*
X8454819Y-71302380D02*
X8454819Y-70683333D01*
X74880952Y-70104819D02*
X74309524Y-70104819D01*
X74595238Y-70104819D02*
X74595238Y-69104819D01*
X74595238Y-69104819D02*
X74500000Y-69247676D01*
X74500000Y-69247676D02*
X74404762Y-69342914D01*
X74404762Y-69342914D02*
X74309524Y-69390533D01*
X75309524Y-70104819D02*
X75309524Y-69104819D01*
X75404762Y-69723866D02*
X75690476Y-70104819D01*
X75690476Y-69438152D02*
X75309524Y-69819104D01*
D11*
X74916666Y-68227149D02*
X74750000Y-67989054D01*
X74630952Y-68227149D02*
X74630952Y-67727149D01*
X74630952Y-67727149D02*
X74821428Y-67727149D01*
X74821428Y-67727149D02*
X74869047Y-67750959D01*
X74869047Y-67750959D02*
X74892857Y-67774768D01*
X74892857Y-67774768D02*
X74916666Y-67822387D01*
X74916666Y-67822387D02*
X74916666Y-67893816D01*
X74916666Y-67893816D02*
X74892857Y-67941435D01*
X74892857Y-67941435D02*
X74869047Y-67965244D01*
X74869047Y-67965244D02*
X74821428Y-67989054D01*
X74821428Y-67989054D02*
X74630952Y-67989054D01*
X75107143Y-67774768D02*
X75130952Y-67750959D01*
X75130952Y-67750959D02*
X75178571Y-67727149D01*
X75178571Y-67727149D02*
X75297619Y-67727149D01*
X75297619Y-67727149D02*
X75345238Y-67750959D01*
X75345238Y-67750959D02*
X75369047Y-67774768D01*
X75369047Y-67774768D02*
X75392857Y-67822387D01*
X75392857Y-67822387D02*
X75392857Y-67870006D01*
X75392857Y-67870006D02*
X75369047Y-67941435D01*
X75369047Y-67941435D02*
X75083333Y-68227149D01*
X75083333Y-68227149D02*
X75392857Y-68227149D01*
D10*
X32833333Y-70134819D02*
X32261905Y-70134819D01*
X32547619Y-70134819D02*
X32547619Y-69134819D01*
X32547619Y-69134819D02*
X32452381Y-69277676D01*
X32452381Y-69277676D02*
X32357143Y-69372914D01*
X32357143Y-69372914D02*
X32261905Y-69420533D01*
X33690476Y-69468152D02*
X33690476Y-70134819D01*
X33261905Y-69468152D02*
X33261905Y-69991961D01*
X33261905Y-69991961D02*
X33309524Y-70087200D01*
X33309524Y-70087200D02*
X33404762Y-70134819D01*
X33404762Y-70134819D02*
X33547619Y-70134819D01*
X33547619Y-70134819D02*
X33642857Y-70087200D01*
X33642857Y-70087200D02*
X33690476Y-70039580D01*
D11*
X32916666Y-68179530D02*
X32892857Y-68203340D01*
X32892857Y-68203340D02*
X32821428Y-68227149D01*
X32821428Y-68227149D02*
X32773809Y-68227149D01*
X32773809Y-68227149D02*
X32702381Y-68203340D01*
X32702381Y-68203340D02*
X32654762Y-68155720D01*
X32654762Y-68155720D02*
X32630952Y-68108101D01*
X32630952Y-68108101D02*
X32607143Y-68012863D01*
X32607143Y-68012863D02*
X32607143Y-67941435D01*
X32607143Y-67941435D02*
X32630952Y-67846197D01*
X32630952Y-67846197D02*
X32654762Y-67798578D01*
X32654762Y-67798578D02*
X32702381Y-67750959D01*
X32702381Y-67750959D02*
X32773809Y-67727149D01*
X32773809Y-67727149D02*
X32821428Y-67727149D01*
X32821428Y-67727149D02*
X32892857Y-67750959D01*
X32892857Y-67750959D02*
X32916666Y-67774768D01*
X33392857Y-68227149D02*
X33107143Y-68227149D01*
X33250000Y-68227149D02*
X33250000Y-67727149D01*
X33250000Y-67727149D02*
X33202381Y-67798578D01*
X33202381Y-67798578D02*
X33154762Y-67846197D01*
X33154762Y-67846197D02*
X33107143Y-67870006D01*
D10*
X20214285Y-18454819D02*
X19738095Y-18454819D01*
X19738095Y-18454819D02*
X19738095Y-17454819D01*
X20547619Y-17931009D02*
X20880952Y-17931009D01*
X21023809Y-18454819D02*
X20547619Y-18454819D01*
X20547619Y-18454819D02*
X20547619Y-17454819D01*
X20547619Y-17454819D02*
X21023809Y-17454819D01*
X21785714Y-17931009D02*
X21452381Y-17931009D01*
X21452381Y-18454819D02*
X21452381Y-17454819D01*
X21452381Y-17454819D02*
X21928571Y-17454819D01*
X22166667Y-17454819D02*
X22738095Y-17454819D01*
X22452381Y-18454819D02*
X22452381Y-17454819D01*
X23833334Y-17931009D02*
X24166667Y-17931009D01*
X24309524Y-18454819D02*
X23833334Y-18454819D01*
X23833334Y-18454819D02*
X23833334Y-17454819D01*
X23833334Y-17454819D02*
X24309524Y-17454819D01*
X24738096Y-18454819D02*
X24738096Y-17454819D01*
X24738096Y-17454819D02*
X25309524Y-18454819D01*
X25309524Y-18454819D02*
X25309524Y-17454819D01*
X26357143Y-18359580D02*
X26309524Y-18407200D01*
X26309524Y-18407200D02*
X26166667Y-18454819D01*
X26166667Y-18454819D02*
X26071429Y-18454819D01*
X26071429Y-18454819D02*
X25928572Y-18407200D01*
X25928572Y-18407200D02*
X25833334Y-18311961D01*
X25833334Y-18311961D02*
X25785715Y-18216723D01*
X25785715Y-18216723D02*
X25738096Y-18026247D01*
X25738096Y-18026247D02*
X25738096Y-17883390D01*
X25738096Y-17883390D02*
X25785715Y-17692914D01*
X25785715Y-17692914D02*
X25833334Y-17597676D01*
X25833334Y-17597676D02*
X25928572Y-17502438D01*
X25928572Y-17502438D02*
X26071429Y-17454819D01*
X26071429Y-17454819D02*
X26166667Y-17454819D01*
X26166667Y-17454819D02*
X26309524Y-17502438D01*
X26309524Y-17502438D02*
X26357143Y-17550057D01*
X26976191Y-17454819D02*
X27166667Y-17454819D01*
X27166667Y-17454819D02*
X27261905Y-17502438D01*
X27261905Y-17502438D02*
X27357143Y-17597676D01*
X27357143Y-17597676D02*
X27404762Y-17788152D01*
X27404762Y-17788152D02*
X27404762Y-18121485D01*
X27404762Y-18121485D02*
X27357143Y-18311961D01*
X27357143Y-18311961D02*
X27261905Y-18407200D01*
X27261905Y-18407200D02*
X27166667Y-18454819D01*
X27166667Y-18454819D02*
X26976191Y-18454819D01*
X26976191Y-18454819D02*
X26880953Y-18407200D01*
X26880953Y-18407200D02*
X26785715Y-18311961D01*
X26785715Y-18311961D02*
X26738096Y-18121485D01*
X26738096Y-18121485D02*
X26738096Y-17788152D01*
X26738096Y-17788152D02*
X26785715Y-17597676D01*
X26785715Y-17597676D02*
X26880953Y-17502438D01*
X26880953Y-17502438D02*
X26976191Y-17454819D01*
X27833334Y-18454819D02*
X27833334Y-17454819D01*
X27833334Y-17454819D02*
X28071429Y-17454819D01*
X28071429Y-17454819D02*
X28214286Y-17502438D01*
X28214286Y-17502438D02*
X28309524Y-17597676D01*
X28309524Y-17597676D02*
X28357143Y-17692914D01*
X28357143Y-17692914D02*
X28404762Y-17883390D01*
X28404762Y-17883390D02*
X28404762Y-18026247D01*
X28404762Y-18026247D02*
X28357143Y-18216723D01*
X28357143Y-18216723D02*
X28309524Y-18311961D01*
X28309524Y-18311961D02*
X28214286Y-18407200D01*
X28214286Y-18407200D02*
X28071429Y-18454819D01*
X28071429Y-18454819D02*
X27833334Y-18454819D01*
X28833334Y-17931009D02*
X29166667Y-17931009D01*
X29309524Y-18454819D02*
X28833334Y-18454819D01*
X28833334Y-18454819D02*
X28833334Y-17454819D01*
X28833334Y-17454819D02*
X29309524Y-17454819D01*
X30309524Y-18454819D02*
X29976191Y-17978628D01*
X29738096Y-18454819D02*
X29738096Y-17454819D01*
X29738096Y-17454819D02*
X30119048Y-17454819D01*
X30119048Y-17454819D02*
X30214286Y-17502438D01*
X30214286Y-17502438D02*
X30261905Y-17550057D01*
X30261905Y-17550057D02*
X30309524Y-17645295D01*
X30309524Y-17645295D02*
X30309524Y-17788152D01*
X30309524Y-17788152D02*
X30261905Y-17883390D01*
X30261905Y-17883390D02*
X30214286Y-17931009D01*
X30214286Y-17931009D02*
X30119048Y-17978628D01*
X30119048Y-17978628D02*
X29738096Y-17978628D01*
X24454819Y-12143333D02*
X25169104Y-12143333D01*
X25169104Y-12143333D02*
X25311961Y-12190952D01*
X25311961Y-12190952D02*
X25407200Y-12286190D01*
X25407200Y-12286190D02*
X25454819Y-12429047D01*
X25454819Y-12429047D02*
X25454819Y-12524285D01*
X24788152Y-11238571D02*
X25454819Y-11238571D01*
X24407200Y-11476666D02*
X25121485Y-11714761D01*
X25121485Y-11714761D02*
X25121485Y-11095714D01*
X7190952Y-47024819D02*
X7857618Y-47024819D01*
X7857618Y-47024819D02*
X7429047Y-48024819D01*
X8667142Y-47358152D02*
X8667142Y-48024819D01*
X8429047Y-46977200D02*
X8190952Y-47691485D01*
X8190952Y-47691485D02*
X8809999Y-47691485D01*
X9190952Y-48024819D02*
X9190952Y-47024819D01*
X9190952Y-47501009D02*
X9762380Y-47501009D01*
X9762380Y-48024819D02*
X9762380Y-47024819D01*
X10809999Y-47929580D02*
X10762380Y-47977200D01*
X10762380Y-47977200D02*
X10619523Y-48024819D01*
X10619523Y-48024819D02*
X10524285Y-48024819D01*
X10524285Y-48024819D02*
X10381428Y-47977200D01*
X10381428Y-47977200D02*
X10286190Y-47881961D01*
X10286190Y-47881961D02*
X10238571Y-47786723D01*
X10238571Y-47786723D02*
X10190952Y-47596247D01*
X10190952Y-47596247D02*
X10190952Y-47453390D01*
X10190952Y-47453390D02*
X10238571Y-47262914D01*
X10238571Y-47262914D02*
X10286190Y-47167676D01*
X10286190Y-47167676D02*
X10381428Y-47072438D01*
X10381428Y-47072438D02*
X10524285Y-47024819D01*
X10524285Y-47024819D02*
X10619523Y-47024819D01*
X10619523Y-47024819D02*
X10762380Y-47072438D01*
X10762380Y-47072438D02*
X10809999Y-47120057D01*
X11429047Y-47024819D02*
X11524285Y-47024819D01*
X11524285Y-47024819D02*
X11619523Y-47072438D01*
X11619523Y-47072438D02*
X11667142Y-47120057D01*
X11667142Y-47120057D02*
X11714761Y-47215295D01*
X11714761Y-47215295D02*
X11762380Y-47405771D01*
X11762380Y-47405771D02*
X11762380Y-47643866D01*
X11762380Y-47643866D02*
X11714761Y-47834342D01*
X11714761Y-47834342D02*
X11667142Y-47929580D01*
X11667142Y-47929580D02*
X11619523Y-47977200D01*
X11619523Y-47977200D02*
X11524285Y-48024819D01*
X11524285Y-48024819D02*
X11429047Y-48024819D01*
X11429047Y-48024819D02*
X11333809Y-47977200D01*
X11333809Y-47977200D02*
X11286190Y-47929580D01*
X11286190Y-47929580D02*
X11238571Y-47834342D01*
X11238571Y-47834342D02*
X11190952Y-47643866D01*
X11190952Y-47643866D02*
X11190952Y-47405771D01*
X11190952Y-47405771D02*
X11238571Y-47215295D01*
X11238571Y-47215295D02*
X11286190Y-47120057D01*
X11286190Y-47120057D02*
X11333809Y-47072438D01*
X11333809Y-47072438D02*
X11429047Y-47024819D01*
X12333809Y-47453390D02*
X12238571Y-47405771D01*
X12238571Y-47405771D02*
X12190952Y-47358152D01*
X12190952Y-47358152D02*
X12143333Y-47262914D01*
X12143333Y-47262914D02*
X12143333Y-47215295D01*
X12143333Y-47215295D02*
X12190952Y-47120057D01*
X12190952Y-47120057D02*
X12238571Y-47072438D01*
X12238571Y-47072438D02*
X12333809Y-47024819D01*
X12333809Y-47024819D02*
X12524285Y-47024819D01*
X12524285Y-47024819D02*
X12619523Y-47072438D01*
X12619523Y-47072438D02*
X12667142Y-47120057D01*
X12667142Y-47120057D02*
X12714761Y-47215295D01*
X12714761Y-47215295D02*
X12714761Y-47262914D01*
X12714761Y-47262914D02*
X12667142Y-47358152D01*
X12667142Y-47358152D02*
X12619523Y-47405771D01*
X12619523Y-47405771D02*
X12524285Y-47453390D01*
X12524285Y-47453390D02*
X12333809Y-47453390D01*
X12333809Y-47453390D02*
X12238571Y-47501009D01*
X12238571Y-47501009D02*
X12190952Y-47548628D01*
X12190952Y-47548628D02*
X12143333Y-47643866D01*
X12143333Y-47643866D02*
X12143333Y-47834342D01*
X12143333Y-47834342D02*
X12190952Y-47929580D01*
X12190952Y-47929580D02*
X12238571Y-47977200D01*
X12238571Y-47977200D02*
X12333809Y-48024819D01*
X12333809Y-48024819D02*
X12524285Y-48024819D01*
X12524285Y-48024819D02*
X12619523Y-47977200D01*
X12619523Y-47977200D02*
X12667142Y-47929580D01*
X12667142Y-47929580D02*
X12714761Y-47834342D01*
X12714761Y-47834342D02*
X12714761Y-47643866D01*
X12714761Y-47643866D02*
X12667142Y-47548628D01*
X12667142Y-47548628D02*
X12619523Y-47501009D01*
X12619523Y-47501009D02*
X12524285Y-47453390D01*
X13857619Y-47739104D02*
X14333809Y-47739104D01*
X13762381Y-48024819D02*
X14095714Y-47024819D01*
X14095714Y-47024819D02*
X14429047Y-48024819D01*
X14762381Y-48024819D02*
X14762381Y-47024819D01*
X14762381Y-47024819D02*
X15333809Y-48024819D01*
X15333809Y-48024819D02*
X15333809Y-47024819D01*
X15810000Y-48024819D02*
X15810000Y-47024819D01*
X15810000Y-47024819D02*
X16048095Y-47024819D01*
X16048095Y-47024819D02*
X16190952Y-47072438D01*
X16190952Y-47072438D02*
X16286190Y-47167676D01*
X16286190Y-47167676D02*
X16333809Y-47262914D01*
X16333809Y-47262914D02*
X16381428Y-47453390D01*
X16381428Y-47453390D02*
X16381428Y-47596247D01*
X16381428Y-47596247D02*
X16333809Y-47786723D01*
X16333809Y-47786723D02*
X16286190Y-47881961D01*
X16286190Y-47881961D02*
X16190952Y-47977200D01*
X16190952Y-47977200D02*
X16048095Y-48024819D01*
X16048095Y-48024819D02*
X15810000Y-48024819D01*
X18000476Y-47358152D02*
X18000476Y-48167676D01*
X18000476Y-48167676D02*
X17952857Y-48262914D01*
X17952857Y-48262914D02*
X17905238Y-48310533D01*
X17905238Y-48310533D02*
X17810000Y-48358152D01*
X17810000Y-48358152D02*
X17667143Y-48358152D01*
X17667143Y-48358152D02*
X17571905Y-48310533D01*
X18000476Y-47977200D02*
X17905238Y-48024819D01*
X17905238Y-48024819D02*
X17714762Y-48024819D01*
X17714762Y-48024819D02*
X17619524Y-47977200D01*
X17619524Y-47977200D02*
X17571905Y-47929580D01*
X17571905Y-47929580D02*
X17524286Y-47834342D01*
X17524286Y-47834342D02*
X17524286Y-47548628D01*
X17524286Y-47548628D02*
X17571905Y-47453390D01*
X17571905Y-47453390D02*
X17619524Y-47405771D01*
X17619524Y-47405771D02*
X17714762Y-47358152D01*
X17714762Y-47358152D02*
X17905238Y-47358152D01*
X17905238Y-47358152D02*
X18000476Y-47405771D01*
X18905238Y-48024819D02*
X18905238Y-47501009D01*
X18905238Y-47501009D02*
X18857619Y-47405771D01*
X18857619Y-47405771D02*
X18762381Y-47358152D01*
X18762381Y-47358152D02*
X18571905Y-47358152D01*
X18571905Y-47358152D02*
X18476667Y-47405771D01*
X18905238Y-47977200D02*
X18810000Y-48024819D01*
X18810000Y-48024819D02*
X18571905Y-48024819D01*
X18571905Y-48024819D02*
X18476667Y-47977200D01*
X18476667Y-47977200D02*
X18429048Y-47881961D01*
X18429048Y-47881961D02*
X18429048Y-47786723D01*
X18429048Y-47786723D02*
X18476667Y-47691485D01*
X18476667Y-47691485D02*
X18571905Y-47643866D01*
X18571905Y-47643866D02*
X18810000Y-47643866D01*
X18810000Y-47643866D02*
X18905238Y-47596247D01*
X19238572Y-47358152D02*
X19619524Y-47358152D01*
X19381429Y-47024819D02*
X19381429Y-47881961D01*
X19381429Y-47881961D02*
X19429048Y-47977200D01*
X19429048Y-47977200D02*
X19524286Y-48024819D01*
X19524286Y-48024819D02*
X19619524Y-48024819D01*
X20333810Y-47977200D02*
X20238572Y-48024819D01*
X20238572Y-48024819D02*
X20048096Y-48024819D01*
X20048096Y-48024819D02*
X19952858Y-47977200D01*
X19952858Y-47977200D02*
X19905239Y-47881961D01*
X19905239Y-47881961D02*
X19905239Y-47501009D01*
X19905239Y-47501009D02*
X19952858Y-47405771D01*
X19952858Y-47405771D02*
X20048096Y-47358152D01*
X20048096Y-47358152D02*
X20238572Y-47358152D01*
X20238572Y-47358152D02*
X20333810Y-47405771D01*
X20333810Y-47405771D02*
X20381429Y-47501009D01*
X20381429Y-47501009D02*
X20381429Y-47596247D01*
X20381429Y-47596247D02*
X19905239Y-47691485D01*
X13264819Y-38381904D02*
X14074342Y-38381904D01*
X14074342Y-38381904D02*
X14169580Y-38334285D01*
X14169580Y-38334285D02*
X14217200Y-38286666D01*
X14217200Y-38286666D02*
X14264819Y-38191428D01*
X14264819Y-38191428D02*
X14264819Y-38000952D01*
X14264819Y-38000952D02*
X14217200Y-37905714D01*
X14217200Y-37905714D02*
X14169580Y-37858095D01*
X14169580Y-37858095D02*
X14074342Y-37810476D01*
X14074342Y-37810476D02*
X13264819Y-37810476D01*
X13360057Y-37381904D02*
X13312438Y-37334285D01*
X13312438Y-37334285D02*
X13264819Y-37239047D01*
X13264819Y-37239047D02*
X13264819Y-37000952D01*
X13264819Y-37000952D02*
X13312438Y-36905714D01*
X13312438Y-36905714D02*
X13360057Y-36858095D01*
X13360057Y-36858095D02*
X13455295Y-36810476D01*
X13455295Y-36810476D02*
X13550533Y-36810476D01*
X13550533Y-36810476D02*
X13693390Y-36858095D01*
X13693390Y-36858095D02*
X14264819Y-37429523D01*
X14264819Y-37429523D02*
X14264819Y-36810476D01*
X12357142Y-16134819D02*
X11785714Y-16134819D01*
X12071428Y-16134819D02*
X12071428Y-15134819D01*
X12071428Y-15134819D02*
X11976190Y-15277676D01*
X11976190Y-15277676D02*
X11880952Y-15372914D01*
X11880952Y-15372914D02*
X11785714Y-15420533D01*
X12976190Y-15134819D02*
X13071428Y-15134819D01*
X13071428Y-15134819D02*
X13166666Y-15182438D01*
X13166666Y-15182438D02*
X13214285Y-15230057D01*
X13214285Y-15230057D02*
X13261904Y-15325295D01*
X13261904Y-15325295D02*
X13309523Y-15515771D01*
X13309523Y-15515771D02*
X13309523Y-15753866D01*
X13309523Y-15753866D02*
X13261904Y-15944342D01*
X13261904Y-15944342D02*
X13214285Y-16039580D01*
X13214285Y-16039580D02*
X13166666Y-16087200D01*
X13166666Y-16087200D02*
X13071428Y-16134819D01*
X13071428Y-16134819D02*
X12976190Y-16134819D01*
X12976190Y-16134819D02*
X12880952Y-16087200D01*
X12880952Y-16087200D02*
X12833333Y-16039580D01*
X12833333Y-16039580D02*
X12785714Y-15944342D01*
X12785714Y-15944342D02*
X12738095Y-15753866D01*
X12738095Y-15753866D02*
X12738095Y-15515771D01*
X12738095Y-15515771D02*
X12785714Y-15325295D01*
X12785714Y-15325295D02*
X12833333Y-15230057D01*
X12833333Y-15230057D02*
X12880952Y-15182438D01*
X12880952Y-15182438D02*
X12976190Y-15134819D01*
X14166666Y-15468152D02*
X14166666Y-16134819D01*
X13738095Y-15468152D02*
X13738095Y-15991961D01*
X13738095Y-15991961D02*
X13785714Y-16087200D01*
X13785714Y-16087200D02*
X13880952Y-16134819D01*
X13880952Y-16134819D02*
X14023809Y-16134819D01*
X14023809Y-16134819D02*
X14119047Y-16087200D01*
X14119047Y-16087200D02*
X14166666Y-16039580D01*
D11*
X12916666Y-14179530D02*
X12892857Y-14203340D01*
X12892857Y-14203340D02*
X12821428Y-14227149D01*
X12821428Y-14227149D02*
X12773809Y-14227149D01*
X12773809Y-14227149D02*
X12702381Y-14203340D01*
X12702381Y-14203340D02*
X12654762Y-14155720D01*
X12654762Y-14155720D02*
X12630952Y-14108101D01*
X12630952Y-14108101D02*
X12607143Y-14012863D01*
X12607143Y-14012863D02*
X12607143Y-13941435D01*
X12607143Y-13941435D02*
X12630952Y-13846197D01*
X12630952Y-13846197D02*
X12654762Y-13798578D01*
X12654762Y-13798578D02*
X12702381Y-13750959D01*
X12702381Y-13750959D02*
X12773809Y-13727149D01*
X12773809Y-13727149D02*
X12821428Y-13727149D01*
X12821428Y-13727149D02*
X12892857Y-13750959D01*
X12892857Y-13750959D02*
X12916666Y-13774768D01*
X13369047Y-13727149D02*
X13130952Y-13727149D01*
X13130952Y-13727149D02*
X13107143Y-13965244D01*
X13107143Y-13965244D02*
X13130952Y-13941435D01*
X13130952Y-13941435D02*
X13178571Y-13917625D01*
X13178571Y-13917625D02*
X13297619Y-13917625D01*
X13297619Y-13917625D02*
X13345238Y-13941435D01*
X13345238Y-13941435D02*
X13369047Y-13965244D01*
X13369047Y-13965244D02*
X13392857Y-14012863D01*
X13392857Y-14012863D02*
X13392857Y-14131911D01*
X13392857Y-14131911D02*
X13369047Y-14179530D01*
X13369047Y-14179530D02*
X13345238Y-14203340D01*
X13345238Y-14203340D02*
X13297619Y-14227149D01*
X13297619Y-14227149D02*
X13178571Y-14227149D01*
X13178571Y-14227149D02*
X13130952Y-14203340D01*
X13130952Y-14203340D02*
X13107143Y-14179530D01*
D10*
X84916665Y-17154819D02*
X84916665Y-16154819D01*
X84916665Y-16154819D02*
X85249998Y-16869104D01*
X85249998Y-16869104D02*
X85583331Y-16154819D01*
X85583331Y-16154819D02*
X85583331Y-17154819D01*
X86488093Y-17154819D02*
X86488093Y-16631009D01*
X86488093Y-16631009D02*
X86440474Y-16535771D01*
X86440474Y-16535771D02*
X86345236Y-16488152D01*
X86345236Y-16488152D02*
X86154760Y-16488152D01*
X86154760Y-16488152D02*
X86059522Y-16535771D01*
X86488093Y-17107200D02*
X86392855Y-17154819D01*
X86392855Y-17154819D02*
X86154760Y-17154819D01*
X86154760Y-17154819D02*
X86059522Y-17107200D01*
X86059522Y-17107200D02*
X86011903Y-17011961D01*
X86011903Y-17011961D02*
X86011903Y-16916723D01*
X86011903Y-16916723D02*
X86059522Y-16821485D01*
X86059522Y-16821485D02*
X86154760Y-16773866D01*
X86154760Y-16773866D02*
X86392855Y-16773866D01*
X86392855Y-16773866D02*
X86488093Y-16726247D01*
X86964284Y-16488152D02*
X86964284Y-17154819D01*
X86964284Y-16583390D02*
X87011903Y-16535771D01*
X87011903Y-16535771D02*
X87107141Y-16488152D01*
X87107141Y-16488152D02*
X87249998Y-16488152D01*
X87249998Y-16488152D02*
X87345236Y-16535771D01*
X87345236Y-16535771D02*
X87392855Y-16631009D01*
X87392855Y-16631009D02*
X87392855Y-17154819D01*
X88297617Y-16488152D02*
X88297617Y-17154819D01*
X87869046Y-16488152D02*
X87869046Y-17011961D01*
X87869046Y-17011961D02*
X87916665Y-17107200D01*
X87916665Y-17107200D02*
X88011903Y-17154819D01*
X88011903Y-17154819D02*
X88154760Y-17154819D01*
X88154760Y-17154819D02*
X88249998Y-17107200D01*
X88249998Y-17107200D02*
X88297617Y-17059580D01*
X89202379Y-17154819D02*
X89202379Y-16631009D01*
X89202379Y-16631009D02*
X89154760Y-16535771D01*
X89154760Y-16535771D02*
X89059522Y-16488152D01*
X89059522Y-16488152D02*
X88869046Y-16488152D01*
X88869046Y-16488152D02*
X88773808Y-16535771D01*
X89202379Y-17107200D02*
X89107141Y-17154819D01*
X89107141Y-17154819D02*
X88869046Y-17154819D01*
X88869046Y-17154819D02*
X88773808Y-17107200D01*
X88773808Y-17107200D02*
X88726189Y-17011961D01*
X88726189Y-17011961D02*
X88726189Y-16916723D01*
X88726189Y-16916723D02*
X88773808Y-16821485D01*
X88773808Y-16821485D02*
X88869046Y-16773866D01*
X88869046Y-16773866D02*
X89107141Y-16773866D01*
X89107141Y-16773866D02*
X89202379Y-16726247D01*
X89821427Y-17154819D02*
X89726189Y-17107200D01*
X89726189Y-17107200D02*
X89678570Y-17011961D01*
X89678570Y-17011961D02*
X89678570Y-16154819D01*
X91392856Y-17154819D02*
X91392856Y-16154819D01*
X91392856Y-17107200D02*
X91297618Y-17154819D01*
X91297618Y-17154819D02*
X91107142Y-17154819D01*
X91107142Y-17154819D02*
X91011904Y-17107200D01*
X91011904Y-17107200D02*
X90964285Y-17059580D01*
X90964285Y-17059580D02*
X90916666Y-16964342D01*
X90916666Y-16964342D02*
X90916666Y-16678628D01*
X90916666Y-16678628D02*
X90964285Y-16583390D01*
X90964285Y-16583390D02*
X91011904Y-16535771D01*
X91011904Y-16535771D02*
X91107142Y-16488152D01*
X91107142Y-16488152D02*
X91297618Y-16488152D01*
X91297618Y-16488152D02*
X91392856Y-16535771D01*
X91869047Y-17154819D02*
X91869047Y-16488152D01*
X91869047Y-16678628D02*
X91916666Y-16583390D01*
X91916666Y-16583390D02*
X91964285Y-16535771D01*
X91964285Y-16535771D02*
X92059523Y-16488152D01*
X92059523Y-16488152D02*
X92154761Y-16488152D01*
X92488095Y-17154819D02*
X92488095Y-16488152D01*
X92488095Y-16154819D02*
X92440476Y-16202438D01*
X92440476Y-16202438D02*
X92488095Y-16250057D01*
X92488095Y-16250057D02*
X92535714Y-16202438D01*
X92535714Y-16202438D02*
X92488095Y-16154819D01*
X92488095Y-16154819D02*
X92488095Y-16250057D01*
X92869047Y-16488152D02*
X93107142Y-17154819D01*
X93107142Y-17154819D02*
X93345237Y-16488152D01*
X94107142Y-17107200D02*
X94011904Y-17154819D01*
X94011904Y-17154819D02*
X93821428Y-17154819D01*
X93821428Y-17154819D02*
X93726190Y-17107200D01*
X93726190Y-17107200D02*
X93678571Y-17011961D01*
X93678571Y-17011961D02*
X93678571Y-16631009D01*
X93678571Y-16631009D02*
X93726190Y-16535771D01*
X93726190Y-16535771D02*
X93821428Y-16488152D01*
X93821428Y-16488152D02*
X94011904Y-16488152D01*
X94011904Y-16488152D02*
X94107142Y-16535771D01*
X94107142Y-16535771D02*
X94154761Y-16631009D01*
X94154761Y-16631009D02*
X94154761Y-16726247D01*
X94154761Y-16726247D02*
X93678571Y-16821485D01*
X95345238Y-17154819D02*
X95345238Y-16488152D01*
X95345238Y-16678628D02*
X95392857Y-16583390D01*
X95392857Y-16583390D02*
X95440476Y-16535771D01*
X95440476Y-16535771D02*
X95535714Y-16488152D01*
X95535714Y-16488152D02*
X95630952Y-16488152D01*
X96345238Y-17107200D02*
X96250000Y-17154819D01*
X96250000Y-17154819D02*
X96059524Y-17154819D01*
X96059524Y-17154819D02*
X95964286Y-17107200D01*
X95964286Y-17107200D02*
X95916667Y-17011961D01*
X95916667Y-17011961D02*
X95916667Y-16631009D01*
X95916667Y-16631009D02*
X95964286Y-16535771D01*
X95964286Y-16535771D02*
X96059524Y-16488152D01*
X96059524Y-16488152D02*
X96250000Y-16488152D01*
X96250000Y-16488152D02*
X96345238Y-16535771D01*
X96345238Y-16535771D02*
X96392857Y-16631009D01*
X96392857Y-16631009D02*
X96392857Y-16726247D01*
X96392857Y-16726247D02*
X95916667Y-16821485D01*
X96773810Y-17107200D02*
X96869048Y-17154819D01*
X96869048Y-17154819D02*
X97059524Y-17154819D01*
X97059524Y-17154819D02*
X97154762Y-17107200D01*
X97154762Y-17107200D02*
X97202381Y-17011961D01*
X97202381Y-17011961D02*
X97202381Y-16964342D01*
X97202381Y-16964342D02*
X97154762Y-16869104D01*
X97154762Y-16869104D02*
X97059524Y-16821485D01*
X97059524Y-16821485D02*
X96916667Y-16821485D01*
X96916667Y-16821485D02*
X96821429Y-16773866D01*
X96821429Y-16773866D02*
X96773810Y-16678628D01*
X96773810Y-16678628D02*
X96773810Y-16631009D01*
X96773810Y-16631009D02*
X96821429Y-16535771D01*
X96821429Y-16535771D02*
X96916667Y-16488152D01*
X96916667Y-16488152D02*
X97059524Y-16488152D01*
X97059524Y-16488152D02*
X97154762Y-16535771D01*
X98011905Y-17107200D02*
X97916667Y-17154819D01*
X97916667Y-17154819D02*
X97726191Y-17154819D01*
X97726191Y-17154819D02*
X97630953Y-17107200D01*
X97630953Y-17107200D02*
X97583334Y-17011961D01*
X97583334Y-17011961D02*
X97583334Y-16631009D01*
X97583334Y-16631009D02*
X97630953Y-16535771D01*
X97630953Y-16535771D02*
X97726191Y-16488152D01*
X97726191Y-16488152D02*
X97916667Y-16488152D01*
X97916667Y-16488152D02*
X98011905Y-16535771D01*
X98011905Y-16535771D02*
X98059524Y-16631009D01*
X98059524Y-16631009D02*
X98059524Y-16726247D01*
X98059524Y-16726247D02*
X97583334Y-16821485D01*
X98345239Y-16488152D02*
X98726191Y-16488152D01*
X98488096Y-16154819D02*
X98488096Y-17011961D01*
X98488096Y-17011961D02*
X98535715Y-17107200D01*
X98535715Y-17107200D02*
X98630953Y-17154819D01*
X98630953Y-17154819D02*
X98726191Y-17154819D01*
X89916667Y-12657200D02*
X90059524Y-12704819D01*
X90059524Y-12704819D02*
X90297619Y-12704819D01*
X90297619Y-12704819D02*
X90392857Y-12657200D01*
X90392857Y-12657200D02*
X90440476Y-12609580D01*
X90440476Y-12609580D02*
X90488095Y-12514342D01*
X90488095Y-12514342D02*
X90488095Y-12419104D01*
X90488095Y-12419104D02*
X90440476Y-12323866D01*
X90440476Y-12323866D02*
X90392857Y-12276247D01*
X90392857Y-12276247D02*
X90297619Y-12228628D01*
X90297619Y-12228628D02*
X90107143Y-12181009D01*
X90107143Y-12181009D02*
X90011905Y-12133390D01*
X90011905Y-12133390D02*
X89964286Y-12085771D01*
X89964286Y-12085771D02*
X89916667Y-11990533D01*
X89916667Y-11990533D02*
X89916667Y-11895295D01*
X89916667Y-11895295D02*
X89964286Y-11800057D01*
X89964286Y-11800057D02*
X90011905Y-11752438D01*
X90011905Y-11752438D02*
X90107143Y-11704819D01*
X90107143Y-11704819D02*
X90345238Y-11704819D01*
X90345238Y-11704819D02*
X90488095Y-11752438D01*
X90821429Y-11704819D02*
X91059524Y-12704819D01*
X91059524Y-12704819D02*
X91250000Y-11990533D01*
X91250000Y-11990533D02*
X91440476Y-12704819D01*
X91440476Y-12704819D02*
X91678572Y-11704819D01*
X92583333Y-12704819D02*
X92011905Y-12704819D01*
X92297619Y-12704819D02*
X92297619Y-11704819D01*
X92297619Y-11704819D02*
X92202381Y-11847676D01*
X92202381Y-11847676D02*
X92107143Y-11942914D01*
X92107143Y-11942914D02*
X92011905Y-11990533D01*
%TO.C,J6*%
D12*
X23730000Y-85365000D02*
X24365000Y-84730000D01*
X23730000Y-94890000D02*
X23730000Y-85365000D01*
X24365000Y-84730000D02*
X26270000Y-84730000D01*
X26270000Y-84730000D02*
X26270000Y-94890000D01*
X26270000Y-94890000D02*
X23730000Y-94890000D01*
%TO.C,C7*%
X74000000Y-34375000D02*
X76000000Y-34375000D01*
X76000000Y-35625000D01*
X74000000Y-35625000D01*
X74000000Y-34375000D01*
%TO.C,R4*%
X32000000Y-21375000D02*
X34000000Y-21375000D01*
X34000000Y-22625000D01*
X32000000Y-22625000D01*
X32000000Y-21375000D01*
%TO.C,J5*%
X73730000Y-7365000D02*
X74365000Y-6730000D01*
X73730000Y-16890000D02*
X73730000Y-7365000D01*
X74365000Y-6730000D02*
X76270000Y-6730000D01*
X76270000Y-6730000D02*
X76270000Y-16890000D01*
X76270000Y-16890000D02*
X73730000Y-16890000D01*
%TO.C,C3*%
X34000000Y-28375000D02*
X36000000Y-28375000D01*
X36000000Y-29625000D01*
X34000000Y-29625000D01*
X34000000Y-28375000D01*
%TO.C,C6*%
X24000000Y-34375000D02*
X26000000Y-34375000D01*
X26000000Y-35625000D01*
X24000000Y-35625000D01*
X24000000Y-34375000D01*
%TO.C,R6*%
X29000000Y-90375000D02*
X31000000Y-90375000D01*
X31000000Y-91625000D01*
X29000000Y-91625000D01*
X29000000Y-90375000D01*
%TO.C,R9*%
X11000000Y-57375000D02*
X13000000Y-57375000D01*
X13000000Y-58625000D01*
X11000000Y-58625000D01*
X11000000Y-57375000D01*
%TO.C,R1*%
X24000000Y-67375000D02*
X26000000Y-67375000D01*
X26000000Y-68625000D01*
X24000000Y-68625000D01*
X24000000Y-67375000D01*
%TO.C,R7*%
X87000000Y-19375000D02*
X89000000Y-19375000D01*
X89000000Y-20625000D01*
X87000000Y-20625000D01*
X87000000Y-19375000D01*
%TO.C,R3*%
X24000000Y-21375000D02*
X26000000Y-21375000D01*
X26000000Y-22625000D01*
X24000000Y-22625000D01*
X24000000Y-21375000D01*
%TO.C,U1*%
X39500000Y-23500000D02*
X40500000Y-22500000D01*
X39500000Y-73000000D02*
X39500000Y-23500000D01*
X40500000Y-22500000D02*
X60000000Y-22500000D01*
X45375000Y-33925000D02*
X45375000Y-35075000D01*
X47625000Y-33925000D02*
X47625000Y-35075000D01*
X60000000Y-73500000D02*
X40000000Y-73500000D01*
X60500000Y-23000000D02*
X60500000Y-73000000D01*
X43500000Y-26900000D02*
X45100000Y-26900000D01*
X45100000Y-27700000D01*
X43500000Y-27700000D01*
X43500000Y-26900000D01*
X43800000Y-26900000D02*
X44800000Y-26900000D01*
X44800000Y-27700000D01*
X43800000Y-27700000D01*
X43800000Y-26900000D01*
X44900000Y-32375000D02*
X48100000Y-32375000D01*
X48100000Y-36625000D01*
X44900000Y-36625000D01*
X44900000Y-32375000D01*
X40000000Y-73500000D02*
G75*
G02*
X39500000Y-73000000I1J500001D01*
G01*
X45375000Y-33925000D02*
G75*
G02*
X47625000Y-33925000I1125000J0D01*
G01*
X47625000Y-35075000D02*
G75*
G02*
X45375000Y-35075000I-1125000J0D01*
G01*
X60000000Y-22500000D02*
G75*
G02*
X60500000Y-23000000I0J-500000D01*
G01*
X60500000Y-73000000D02*
G75*
G02*
X60000000Y-73500000I-500000J0D01*
G01*
X53790000Y-26800000D02*
X53790000Y-21800000D01*
X54000000Y-21800000D01*
X54000000Y-21200000D01*
X46000000Y-21200000D01*
X46000000Y-21800000D01*
X46210000Y-21800000D01*
X46210000Y-26800000D01*
X53790000Y-26800000D01*
%TO.C,R8*%
X69000000Y-43375000D02*
X71000000Y-43375000D01*
X71000000Y-44625000D01*
X69000000Y-44625000D01*
X69000000Y-43375000D01*
%TO.C,C2*%
X66000000Y-67375000D02*
X68000000Y-67375000D01*
X68000000Y-68625000D01*
X66000000Y-68625000D01*
X66000000Y-67375000D01*
%TO.C,R10*%
X79000000Y-57375000D02*
X81000000Y-57375000D01*
X81000000Y-58625000D01*
X79000000Y-58625000D01*
X79000000Y-57375000D01*
%TO.C,U3*%
X80635000Y-29730000D02*
X81635000Y-28730000D01*
X80635000Y-46510000D02*
X80635000Y-29730000D01*
X81635000Y-28730000D02*
X86985000Y-28730000D01*
X86985000Y-28730000D02*
X86985000Y-46510000D01*
X86985000Y-46510000D02*
X80635000Y-46510000D01*
%TO.C,J1*%
X6730000Y-7365000D02*
X7365000Y-6730000D01*
X6730000Y-14350000D02*
X6730000Y-7365000D01*
X7365000Y-6730000D02*
X9270000Y-6730000D01*
X9270000Y-6730000D02*
X9270000Y-14350000D01*
X9270000Y-14350000D02*
X6730000Y-14350000D01*
%TO.C,C8*%
X64000000Y-34375000D02*
X66000000Y-34375000D01*
X66000000Y-35625000D01*
X64000000Y-35625000D01*
X64000000Y-34375000D01*
%TO.C,J3*%
X86730000Y-64365000D02*
X87365000Y-63730000D01*
X86730000Y-78970000D02*
X86730000Y-64365000D01*
X87365000Y-63730000D02*
X89270000Y-63730000D01*
X89270000Y-63730000D02*
X89270000Y-78970000D01*
X89270000Y-78970000D02*
X86730000Y-78970000D01*
%TO.C,J7*%
X73730000Y-85365000D02*
X74365000Y-84730000D01*
X73730000Y-94890000D02*
X73730000Y-85365000D01*
X74365000Y-84730000D02*
X76270000Y-84730000D01*
X76270000Y-84730000D02*
X76270000Y-94890000D01*
X76270000Y-94890000D02*
X73730000Y-94890000D01*
%TO.C,R5*%
X29000000Y-83375000D02*
X31000000Y-83375000D01*
X31000000Y-84625000D01*
X29000000Y-84625000D01*
X29000000Y-83375000D01*
%TO.C,C4*%
X34000000Y-34375000D02*
X36000000Y-34375000D01*
X36000000Y-35625000D01*
X34000000Y-35625000D01*
X34000000Y-34375000D01*
%TO.C,J2*%
X6730000Y-64365000D02*
X7365000Y-63730000D01*
X6730000Y-78970000D02*
X6730000Y-64365000D01*
X7365000Y-63730000D02*
X9270000Y-63730000D01*
X9270000Y-63730000D02*
X9270000Y-78970000D01*
X9270000Y-78970000D02*
X6730000Y-78970000D01*
%TO.C,R2*%
X74000000Y-67375000D02*
X76000000Y-67375000D01*
X76000000Y-68625000D01*
X74000000Y-68625000D01*
X74000000Y-67375000D01*
%TO.C,C1*%
X32000000Y-67375000D02*
X34000000Y-67375000D01*
X34000000Y-68625000D01*
X32000000Y-68625000D01*
X32000000Y-67375000D01*
%TO.C,J4*%
X23730000Y-7365000D02*
X24365000Y-6730000D01*
X23730000Y-16890000D02*
X23730000Y-7365000D01*
X24365000Y-6730000D02*
X26270000Y-6730000D01*
X26270000Y-6730000D02*
X26270000Y-16890000D01*
X26270000Y-16890000D02*
X23730000Y-16890000D01*
%TO.C,U2*%
X10635000Y-29730000D02*
X11635000Y-28730000D01*
X10635000Y-46510000D02*
X10635000Y-29730000D01*
X11635000Y-28730000D02*
X16985000Y-28730000D01*
X16985000Y-28730000D02*
X16985000Y-46510000D01*
X16985000Y-46510000D02*
X10635000Y-46510000D01*
%TO.C,C5*%
X12000000Y-13375000D02*
X14000000Y-13375000D01*
X14000000Y-14625000D01*
X12000000Y-14625000D01*
X12000000Y-13375000D01*
%TO.C,SW1*%
X88250000Y-9250000D02*
X91250000Y-9250000D01*
X88250000Y-15250000D02*
X88250000Y-9250000D01*
X91250000Y-9250000D02*
X94250000Y-9250000D01*
X94250000Y-9250000D02*
X94250000Y-15250000D01*
X94250000Y-15250000D02*
X88250000Y-15250000D01*
X93265564Y-12250000D02*
G75*
G02*
X89234436Y-12250000I-2015564J0D01*
G01*
X89234436Y-12250000D02*
G75*
G02*
X93265564Y-12250000I2015564J0D01*
G01*
%TD*%
M02*
