%TF.GenerationSoftware,KiCad,Pcbnew,10.0.6*%
%TF.CreationDate,2026-10-02T00:37:49+05:30*%
%TF.ProjectId,traction_carrier,74726163-7469-46f6-9e5f-636172726965,rev?*%
%TF.SameCoordinates,Original*%
%TF.FileFunction,Legend,Top*%
%TF.FilePolarity,Positive*%
%FSLAX46Y46*%
G04 Gerber Fmt 4.6, Leading zero omitted, Abs format (unit mm)*
G04 Created by KiCad (PCBNEW 10.0.6) date 2026-10-02 00:37:49*
%MOMM*%
%LPD*%
G01*
G04 APERTURE LIST*
%ADD10C,0.150000*%
%ADD11C,0.120000*%
G04 APERTURE END LIST*
D10*
X74833333Y-33679580D02*
X74785714Y-33727200D01*
X74785714Y-33727200D02*
X74642857Y-33774819D01*
X74642857Y-33774819D02*
X74547619Y-33774819D01*
X74547619Y-33774819D02*
X74404762Y-33727200D01*
X74404762Y-33727200D02*
X74309524Y-33631961D01*
X74309524Y-33631961D02*
X74261905Y-33536723D01*
X74261905Y-33536723D02*
X74214286Y-33346247D01*
X74214286Y-33346247D02*
X74214286Y-33203390D01*
X74214286Y-33203390D02*
X74261905Y-33012914D01*
X74261905Y-33012914D02*
X74309524Y-32917676D01*
X74309524Y-32917676D02*
X74404762Y-32822438D01*
X74404762Y-32822438D02*
X74547619Y-32774819D01*
X74547619Y-32774819D02*
X74642857Y-32774819D01*
X74642857Y-32774819D02*
X74785714Y-32822438D01*
X74785714Y-32822438D02*
X74833333Y-32870057D01*
X75166667Y-32774819D02*
X75833333Y-32774819D01*
X75833333Y-32774819D02*
X75404762Y-33774819D01*
X34833333Y-27679580D02*
X34785714Y-27727200D01*
X34785714Y-27727200D02*
X34642857Y-27774819D01*
X34642857Y-27774819D02*
X34547619Y-27774819D01*
X34547619Y-27774819D02*
X34404762Y-27727200D01*
X34404762Y-27727200D02*
X34309524Y-27631961D01*
X34309524Y-27631961D02*
X34261905Y-27536723D01*
X34261905Y-27536723D02*
X34214286Y-27346247D01*
X34214286Y-27346247D02*
X34214286Y-27203390D01*
X34214286Y-27203390D02*
X34261905Y-27012914D01*
X34261905Y-27012914D02*
X34309524Y-26917676D01*
X34309524Y-26917676D02*
X34404762Y-26822438D01*
X34404762Y-26822438D02*
X34547619Y-26774819D01*
X34547619Y-26774819D02*
X34642857Y-26774819D01*
X34642857Y-26774819D02*
X34785714Y-26822438D01*
X34785714Y-26822438D02*
X34833333Y-26870057D01*
X35166667Y-26774819D02*
X35785714Y-26774819D01*
X35785714Y-26774819D02*
X35452381Y-27155771D01*
X35452381Y-27155771D02*
X35595238Y-27155771D01*
X35595238Y-27155771D02*
X35690476Y-27203390D01*
X35690476Y-27203390D02*
X35738095Y-27251009D01*
X35738095Y-27251009D02*
X35785714Y-27346247D01*
X35785714Y-27346247D02*
X35785714Y-27584342D01*
X35785714Y-27584342D02*
X35738095Y-27679580D01*
X35738095Y-27679580D02*
X35690476Y-27727200D01*
X35690476Y-27727200D02*
X35595238Y-27774819D01*
X35595238Y-27774819D02*
X35309524Y-27774819D01*
X35309524Y-27774819D02*
X35214286Y-27727200D01*
X35214286Y-27727200D02*
X35166667Y-27679580D01*
X29833333Y-89804819D02*
X29500000Y-89328628D01*
X29261905Y-89804819D02*
X29261905Y-88804819D01*
X29261905Y-88804819D02*
X29642857Y-88804819D01*
X29642857Y-88804819D02*
X29738095Y-88852438D01*
X29738095Y-88852438D02*
X29785714Y-88900057D01*
X29785714Y-88900057D02*
X29833333Y-88995295D01*
X29833333Y-88995295D02*
X29833333Y-89138152D01*
X29833333Y-89138152D02*
X29785714Y-89233390D01*
X29785714Y-89233390D02*
X29738095Y-89281009D01*
X29738095Y-89281009D02*
X29642857Y-89328628D01*
X29642857Y-89328628D02*
X29261905Y-89328628D01*
X30690476Y-88804819D02*
X30500000Y-88804819D01*
X30500000Y-88804819D02*
X30404762Y-88852438D01*
X30404762Y-88852438D02*
X30357143Y-88900057D01*
X30357143Y-88900057D02*
X30261905Y-89042914D01*
X30261905Y-89042914D02*
X30214286Y-89233390D01*
X30214286Y-89233390D02*
X30214286Y-89614342D01*
X30214286Y-89614342D02*
X30261905Y-89709580D01*
X30261905Y-89709580D02*
X30309524Y-89757200D01*
X30309524Y-89757200D02*
X30404762Y-89804819D01*
X30404762Y-89804819D02*
X30595238Y-89804819D01*
X30595238Y-89804819D02*
X30690476Y-89757200D01*
X30690476Y-89757200D02*
X30738095Y-89709580D01*
X30738095Y-89709580D02*
X30785714Y-89614342D01*
X30785714Y-89614342D02*
X30785714Y-89376247D01*
X30785714Y-89376247D02*
X30738095Y-89281009D01*
X30738095Y-89281009D02*
X30690476Y-89233390D01*
X30690476Y-89233390D02*
X30595238Y-89185771D01*
X30595238Y-89185771D02*
X30404762Y-89185771D01*
X30404762Y-89185771D02*
X30309524Y-89233390D01*
X30309524Y-89233390D02*
X30261905Y-89281009D01*
X30261905Y-89281009D02*
X30214286Y-89376247D01*
X32833333Y-20804819D02*
X32500000Y-20328628D01*
X32261905Y-20804819D02*
X32261905Y-19804819D01*
X32261905Y-19804819D02*
X32642857Y-19804819D01*
X32642857Y-19804819D02*
X32738095Y-19852438D01*
X32738095Y-19852438D02*
X32785714Y-19900057D01*
X32785714Y-19900057D02*
X32833333Y-19995295D01*
X32833333Y-19995295D02*
X32833333Y-20138152D01*
X32833333Y-20138152D02*
X32785714Y-20233390D01*
X32785714Y-20233390D02*
X32738095Y-20281009D01*
X32738095Y-20281009D02*
X32642857Y-20328628D01*
X32642857Y-20328628D02*
X32261905Y-20328628D01*
X33690476Y-20138152D02*
X33690476Y-20804819D01*
X33452381Y-19757200D02*
X33214286Y-20471485D01*
X33214286Y-20471485D02*
X33833333Y-20471485D01*
X83048095Y-27124819D02*
X83048095Y-27934342D01*
X83048095Y-27934342D02*
X83095714Y-28029580D01*
X83095714Y-28029580D02*
X83143333Y-28077200D01*
X83143333Y-28077200D02*
X83238571Y-28124819D01*
X83238571Y-28124819D02*
X83429047Y-28124819D01*
X83429047Y-28124819D02*
X83524285Y-28077200D01*
X83524285Y-28077200D02*
X83571904Y-28029580D01*
X83571904Y-28029580D02*
X83619523Y-27934342D01*
X83619523Y-27934342D02*
X83619523Y-27124819D01*
X84000476Y-27124819D02*
X84619523Y-27124819D01*
X84619523Y-27124819D02*
X84286190Y-27505771D01*
X84286190Y-27505771D02*
X84429047Y-27505771D01*
X84429047Y-27505771D02*
X84524285Y-27553390D01*
X84524285Y-27553390D02*
X84571904Y-27601009D01*
X84571904Y-27601009D02*
X84619523Y-27696247D01*
X84619523Y-27696247D02*
X84619523Y-27934342D01*
X84619523Y-27934342D02*
X84571904Y-28029580D01*
X84571904Y-28029580D02*
X84524285Y-28077200D01*
X84524285Y-28077200D02*
X84429047Y-28124819D01*
X84429047Y-28124819D02*
X84143333Y-28124819D01*
X84143333Y-28124819D02*
X84048095Y-28077200D01*
X84048095Y-28077200D02*
X84000476Y-28029580D01*
X32833333Y-66679580D02*
X32785714Y-66727200D01*
X32785714Y-66727200D02*
X32642857Y-66774819D01*
X32642857Y-66774819D02*
X32547619Y-66774819D01*
X32547619Y-66774819D02*
X32404762Y-66727200D01*
X32404762Y-66727200D02*
X32309524Y-66631961D01*
X32309524Y-66631961D02*
X32261905Y-66536723D01*
X32261905Y-66536723D02*
X32214286Y-66346247D01*
X32214286Y-66346247D02*
X32214286Y-66203390D01*
X32214286Y-66203390D02*
X32261905Y-66012914D01*
X32261905Y-66012914D02*
X32309524Y-65917676D01*
X32309524Y-65917676D02*
X32404762Y-65822438D01*
X32404762Y-65822438D02*
X32547619Y-65774819D01*
X32547619Y-65774819D02*
X32642857Y-65774819D01*
X32642857Y-65774819D02*
X32785714Y-65822438D01*
X32785714Y-65822438D02*
X32833333Y-65870057D01*
X33785714Y-66774819D02*
X33214286Y-66774819D01*
X33500000Y-66774819D02*
X33500000Y-65774819D01*
X33500000Y-65774819D02*
X33404762Y-65917676D01*
X33404762Y-65917676D02*
X33309524Y-66012914D01*
X33309524Y-66012914D02*
X33214286Y-66060533D01*
X24666666Y-5074819D02*
X24666666Y-5789104D01*
X24666666Y-5789104D02*
X24619047Y-5931961D01*
X24619047Y-5931961D02*
X24523809Y-6027200D01*
X24523809Y-6027200D02*
X24380952Y-6074819D01*
X24380952Y-6074819D02*
X24285714Y-6074819D01*
X25571428Y-5408152D02*
X25571428Y-6074819D01*
X25333333Y-5027200D02*
X25095238Y-5741485D01*
X25095238Y-5741485D02*
X25714285Y-5741485D01*
X69833333Y-42804819D02*
X69500000Y-42328628D01*
X69261905Y-42804819D02*
X69261905Y-41804819D01*
X69261905Y-41804819D02*
X69642857Y-41804819D01*
X69642857Y-41804819D02*
X69738095Y-41852438D01*
X69738095Y-41852438D02*
X69785714Y-41900057D01*
X69785714Y-41900057D02*
X69833333Y-41995295D01*
X69833333Y-41995295D02*
X69833333Y-42138152D01*
X69833333Y-42138152D02*
X69785714Y-42233390D01*
X69785714Y-42233390D02*
X69738095Y-42281009D01*
X69738095Y-42281009D02*
X69642857Y-42328628D01*
X69642857Y-42328628D02*
X69261905Y-42328628D01*
X70404762Y-42233390D02*
X70309524Y-42185771D01*
X70309524Y-42185771D02*
X70261905Y-42138152D01*
X70261905Y-42138152D02*
X70214286Y-42042914D01*
X70214286Y-42042914D02*
X70214286Y-41995295D01*
X70214286Y-41995295D02*
X70261905Y-41900057D01*
X70261905Y-41900057D02*
X70309524Y-41852438D01*
X70309524Y-41852438D02*
X70404762Y-41804819D01*
X70404762Y-41804819D02*
X70595238Y-41804819D01*
X70595238Y-41804819D02*
X70690476Y-41852438D01*
X70690476Y-41852438D02*
X70738095Y-41900057D01*
X70738095Y-41900057D02*
X70785714Y-41995295D01*
X70785714Y-41995295D02*
X70785714Y-42042914D01*
X70785714Y-42042914D02*
X70738095Y-42138152D01*
X70738095Y-42138152D02*
X70690476Y-42185771D01*
X70690476Y-42185771D02*
X70595238Y-42233390D01*
X70595238Y-42233390D02*
X70404762Y-42233390D01*
X70404762Y-42233390D02*
X70309524Y-42281009D01*
X70309524Y-42281009D02*
X70261905Y-42328628D01*
X70261905Y-42328628D02*
X70214286Y-42423866D01*
X70214286Y-42423866D02*
X70214286Y-42614342D01*
X70214286Y-42614342D02*
X70261905Y-42709580D01*
X70261905Y-42709580D02*
X70309524Y-42757200D01*
X70309524Y-42757200D02*
X70404762Y-42804819D01*
X70404762Y-42804819D02*
X70595238Y-42804819D01*
X70595238Y-42804819D02*
X70690476Y-42757200D01*
X70690476Y-42757200D02*
X70738095Y-42709580D01*
X70738095Y-42709580D02*
X70785714Y-42614342D01*
X70785714Y-42614342D02*
X70785714Y-42423866D01*
X70785714Y-42423866D02*
X70738095Y-42328628D01*
X70738095Y-42328628D02*
X70690476Y-42281009D01*
X70690476Y-42281009D02*
X70595238Y-42233390D01*
X7666666Y-62074819D02*
X7666666Y-62789104D01*
X7666666Y-62789104D02*
X7619047Y-62931961D01*
X7619047Y-62931961D02*
X7523809Y-63027200D01*
X7523809Y-63027200D02*
X7380952Y-63074819D01*
X7380952Y-63074819D02*
X7285714Y-63074819D01*
X8095238Y-62170057D02*
X8142857Y-62122438D01*
X8142857Y-62122438D02*
X8238095Y-62074819D01*
X8238095Y-62074819D02*
X8476190Y-62074819D01*
X8476190Y-62074819D02*
X8571428Y-62122438D01*
X8571428Y-62122438D02*
X8619047Y-62170057D01*
X8619047Y-62170057D02*
X8666666Y-62265295D01*
X8666666Y-62265295D02*
X8666666Y-62360533D01*
X8666666Y-62360533D02*
X8619047Y-62503390D01*
X8619047Y-62503390D02*
X8047619Y-63074819D01*
X8047619Y-63074819D02*
X8666666Y-63074819D01*
X64833333Y-33679580D02*
X64785714Y-33727200D01*
X64785714Y-33727200D02*
X64642857Y-33774819D01*
X64642857Y-33774819D02*
X64547619Y-33774819D01*
X64547619Y-33774819D02*
X64404762Y-33727200D01*
X64404762Y-33727200D02*
X64309524Y-33631961D01*
X64309524Y-33631961D02*
X64261905Y-33536723D01*
X64261905Y-33536723D02*
X64214286Y-33346247D01*
X64214286Y-33346247D02*
X64214286Y-33203390D01*
X64214286Y-33203390D02*
X64261905Y-33012914D01*
X64261905Y-33012914D02*
X64309524Y-32917676D01*
X64309524Y-32917676D02*
X64404762Y-32822438D01*
X64404762Y-32822438D02*
X64547619Y-32774819D01*
X64547619Y-32774819D02*
X64642857Y-32774819D01*
X64642857Y-32774819D02*
X64785714Y-32822438D01*
X64785714Y-32822438D02*
X64833333Y-32870057D01*
X65404762Y-33203390D02*
X65309524Y-33155771D01*
X65309524Y-33155771D02*
X65261905Y-33108152D01*
X65261905Y-33108152D02*
X65214286Y-33012914D01*
X65214286Y-33012914D02*
X65214286Y-32965295D01*
X65214286Y-32965295D02*
X65261905Y-32870057D01*
X65261905Y-32870057D02*
X65309524Y-32822438D01*
X65309524Y-32822438D02*
X65404762Y-32774819D01*
X65404762Y-32774819D02*
X65595238Y-32774819D01*
X65595238Y-32774819D02*
X65690476Y-32822438D01*
X65690476Y-32822438D02*
X65738095Y-32870057D01*
X65738095Y-32870057D02*
X65785714Y-32965295D01*
X65785714Y-32965295D02*
X65785714Y-33012914D01*
X65785714Y-33012914D02*
X65738095Y-33108152D01*
X65738095Y-33108152D02*
X65690476Y-33155771D01*
X65690476Y-33155771D02*
X65595238Y-33203390D01*
X65595238Y-33203390D02*
X65404762Y-33203390D01*
X65404762Y-33203390D02*
X65309524Y-33251009D01*
X65309524Y-33251009D02*
X65261905Y-33298628D01*
X65261905Y-33298628D02*
X65214286Y-33393866D01*
X65214286Y-33393866D02*
X65214286Y-33584342D01*
X65214286Y-33584342D02*
X65261905Y-33679580D01*
X65261905Y-33679580D02*
X65309524Y-33727200D01*
X65309524Y-33727200D02*
X65404762Y-33774819D01*
X65404762Y-33774819D02*
X65595238Y-33774819D01*
X65595238Y-33774819D02*
X65690476Y-33727200D01*
X65690476Y-33727200D02*
X65738095Y-33679580D01*
X65738095Y-33679580D02*
X65785714Y-33584342D01*
X65785714Y-33584342D02*
X65785714Y-33393866D01*
X65785714Y-33393866D02*
X65738095Y-33298628D01*
X65738095Y-33298628D02*
X65690476Y-33251009D01*
X65690476Y-33251009D02*
X65595238Y-33203390D01*
X74666666Y-83074819D02*
X74666666Y-83789104D01*
X74666666Y-83789104D02*
X74619047Y-83931961D01*
X74619047Y-83931961D02*
X74523809Y-84027200D01*
X74523809Y-84027200D02*
X74380952Y-84074819D01*
X74380952Y-84074819D02*
X74285714Y-84074819D01*
X75047619Y-83074819D02*
X75714285Y-83074819D01*
X75714285Y-83074819D02*
X75285714Y-84074819D01*
X12833333Y-12679580D02*
X12785714Y-12727200D01*
X12785714Y-12727200D02*
X12642857Y-12774819D01*
X12642857Y-12774819D02*
X12547619Y-12774819D01*
X12547619Y-12774819D02*
X12404762Y-12727200D01*
X12404762Y-12727200D02*
X12309524Y-12631961D01*
X12309524Y-12631961D02*
X12261905Y-12536723D01*
X12261905Y-12536723D02*
X12214286Y-12346247D01*
X12214286Y-12346247D02*
X12214286Y-12203390D01*
X12214286Y-12203390D02*
X12261905Y-12012914D01*
X12261905Y-12012914D02*
X12309524Y-11917676D01*
X12309524Y-11917676D02*
X12404762Y-11822438D01*
X12404762Y-11822438D02*
X12547619Y-11774819D01*
X12547619Y-11774819D02*
X12642857Y-11774819D01*
X12642857Y-11774819D02*
X12785714Y-11822438D01*
X12785714Y-11822438D02*
X12833333Y-11870057D01*
X13738095Y-11774819D02*
X13261905Y-11774819D01*
X13261905Y-11774819D02*
X13214286Y-12251009D01*
X13214286Y-12251009D02*
X13261905Y-12203390D01*
X13261905Y-12203390D02*
X13357143Y-12155771D01*
X13357143Y-12155771D02*
X13595238Y-12155771D01*
X13595238Y-12155771D02*
X13690476Y-12203390D01*
X13690476Y-12203390D02*
X13738095Y-12251009D01*
X13738095Y-12251009D02*
X13785714Y-12346247D01*
X13785714Y-12346247D02*
X13785714Y-12584342D01*
X13785714Y-12584342D02*
X13738095Y-12679580D01*
X13738095Y-12679580D02*
X13690476Y-12727200D01*
X13690476Y-12727200D02*
X13595238Y-12774819D01*
X13595238Y-12774819D02*
X13357143Y-12774819D01*
X13357143Y-12774819D02*
X13261905Y-12727200D01*
X13261905Y-12727200D02*
X13214286Y-12679580D01*
X24833333Y-66804819D02*
X24500000Y-66328628D01*
X24261905Y-66804819D02*
X24261905Y-65804819D01*
X24261905Y-65804819D02*
X24642857Y-65804819D01*
X24642857Y-65804819D02*
X24738095Y-65852438D01*
X24738095Y-65852438D02*
X24785714Y-65900057D01*
X24785714Y-65900057D02*
X24833333Y-65995295D01*
X24833333Y-65995295D02*
X24833333Y-66138152D01*
X24833333Y-66138152D02*
X24785714Y-66233390D01*
X24785714Y-66233390D02*
X24738095Y-66281009D01*
X24738095Y-66281009D02*
X24642857Y-66328628D01*
X24642857Y-66328628D02*
X24261905Y-66328628D01*
X25785714Y-66804819D02*
X25214286Y-66804819D01*
X25500000Y-66804819D02*
X25500000Y-65804819D01*
X25500000Y-65804819D02*
X25404762Y-65947676D01*
X25404762Y-65947676D02*
X25309524Y-66042914D01*
X25309524Y-66042914D02*
X25214286Y-66090533D01*
X79357142Y-56804819D02*
X79023809Y-56328628D01*
X78785714Y-56804819D02*
X78785714Y-55804819D01*
X78785714Y-55804819D02*
X79166666Y-55804819D01*
X79166666Y-55804819D02*
X79261904Y-55852438D01*
X79261904Y-55852438D02*
X79309523Y-55900057D01*
X79309523Y-55900057D02*
X79357142Y-55995295D01*
X79357142Y-55995295D02*
X79357142Y-56138152D01*
X79357142Y-56138152D02*
X79309523Y-56233390D01*
X79309523Y-56233390D02*
X79261904Y-56281009D01*
X79261904Y-56281009D02*
X79166666Y-56328628D01*
X79166666Y-56328628D02*
X78785714Y-56328628D01*
X80309523Y-56804819D02*
X79738095Y-56804819D01*
X80023809Y-56804819D02*
X80023809Y-55804819D01*
X80023809Y-55804819D02*
X79928571Y-55947676D01*
X79928571Y-55947676D02*
X79833333Y-56042914D01*
X79833333Y-56042914D02*
X79738095Y-56090533D01*
X80928571Y-55804819D02*
X81023809Y-55804819D01*
X81023809Y-55804819D02*
X81119047Y-55852438D01*
X81119047Y-55852438D02*
X81166666Y-55900057D01*
X81166666Y-55900057D02*
X81214285Y-55995295D01*
X81214285Y-55995295D02*
X81261904Y-56185771D01*
X81261904Y-56185771D02*
X81261904Y-56423866D01*
X81261904Y-56423866D02*
X81214285Y-56614342D01*
X81214285Y-56614342D02*
X81166666Y-56709580D01*
X81166666Y-56709580D02*
X81119047Y-56757200D01*
X81119047Y-56757200D02*
X81023809Y-56804819D01*
X81023809Y-56804819D02*
X80928571Y-56804819D01*
X80928571Y-56804819D02*
X80833333Y-56757200D01*
X80833333Y-56757200D02*
X80785714Y-56709580D01*
X80785714Y-56709580D02*
X80738095Y-56614342D01*
X80738095Y-56614342D02*
X80690476Y-56423866D01*
X80690476Y-56423866D02*
X80690476Y-56185771D01*
X80690476Y-56185771D02*
X80738095Y-55995295D01*
X80738095Y-55995295D02*
X80785714Y-55900057D01*
X80785714Y-55900057D02*
X80833333Y-55852438D01*
X80833333Y-55852438D02*
X80928571Y-55804819D01*
X74666666Y-5074819D02*
X74666666Y-5789104D01*
X74666666Y-5789104D02*
X74619047Y-5931961D01*
X74619047Y-5931961D02*
X74523809Y-6027200D01*
X74523809Y-6027200D02*
X74380952Y-6074819D01*
X74380952Y-6074819D02*
X74285714Y-6074819D01*
X75619047Y-5074819D02*
X75142857Y-5074819D01*
X75142857Y-5074819D02*
X75095238Y-5551009D01*
X75095238Y-5551009D02*
X75142857Y-5503390D01*
X75142857Y-5503390D02*
X75238095Y-5455771D01*
X75238095Y-5455771D02*
X75476190Y-5455771D01*
X75476190Y-5455771D02*
X75571428Y-5503390D01*
X75571428Y-5503390D02*
X75619047Y-5551009D01*
X75619047Y-5551009D02*
X75666666Y-5646247D01*
X75666666Y-5646247D02*
X75666666Y-5884342D01*
X75666666Y-5884342D02*
X75619047Y-5979580D01*
X75619047Y-5979580D02*
X75571428Y-6027200D01*
X75571428Y-6027200D02*
X75476190Y-6074819D01*
X75476190Y-6074819D02*
X75238095Y-6074819D01*
X75238095Y-6074819D02*
X75142857Y-6027200D01*
X75142857Y-6027200D02*
X75095238Y-5979580D01*
X29833333Y-82804819D02*
X29500000Y-82328628D01*
X29261905Y-82804819D02*
X29261905Y-81804819D01*
X29261905Y-81804819D02*
X29642857Y-81804819D01*
X29642857Y-81804819D02*
X29738095Y-81852438D01*
X29738095Y-81852438D02*
X29785714Y-81900057D01*
X29785714Y-81900057D02*
X29833333Y-81995295D01*
X29833333Y-81995295D02*
X29833333Y-82138152D01*
X29833333Y-82138152D02*
X29785714Y-82233390D01*
X29785714Y-82233390D02*
X29738095Y-82281009D01*
X29738095Y-82281009D02*
X29642857Y-82328628D01*
X29642857Y-82328628D02*
X29261905Y-82328628D01*
X30738095Y-81804819D02*
X30261905Y-81804819D01*
X30261905Y-81804819D02*
X30214286Y-82281009D01*
X30214286Y-82281009D02*
X30261905Y-82233390D01*
X30261905Y-82233390D02*
X30357143Y-82185771D01*
X30357143Y-82185771D02*
X30595238Y-82185771D01*
X30595238Y-82185771D02*
X30690476Y-82233390D01*
X30690476Y-82233390D02*
X30738095Y-82281009D01*
X30738095Y-82281009D02*
X30785714Y-82376247D01*
X30785714Y-82376247D02*
X30785714Y-82614342D01*
X30785714Y-82614342D02*
X30738095Y-82709580D01*
X30738095Y-82709580D02*
X30690476Y-82757200D01*
X30690476Y-82757200D02*
X30595238Y-82804819D01*
X30595238Y-82804819D02*
X30357143Y-82804819D01*
X30357143Y-82804819D02*
X30261905Y-82757200D01*
X30261905Y-82757200D02*
X30214286Y-82709580D01*
X89916667Y-8407200D02*
X90059524Y-8454819D01*
X90059524Y-8454819D02*
X90297619Y-8454819D01*
X90297619Y-8454819D02*
X90392857Y-8407200D01*
X90392857Y-8407200D02*
X90440476Y-8359580D01*
X90440476Y-8359580D02*
X90488095Y-8264342D01*
X90488095Y-8264342D02*
X90488095Y-8169104D01*
X90488095Y-8169104D02*
X90440476Y-8073866D01*
X90440476Y-8073866D02*
X90392857Y-8026247D01*
X90392857Y-8026247D02*
X90297619Y-7978628D01*
X90297619Y-7978628D02*
X90107143Y-7931009D01*
X90107143Y-7931009D02*
X90011905Y-7883390D01*
X90011905Y-7883390D02*
X89964286Y-7835771D01*
X89964286Y-7835771D02*
X89916667Y-7740533D01*
X89916667Y-7740533D02*
X89916667Y-7645295D01*
X89916667Y-7645295D02*
X89964286Y-7550057D01*
X89964286Y-7550057D02*
X90011905Y-7502438D01*
X90011905Y-7502438D02*
X90107143Y-7454819D01*
X90107143Y-7454819D02*
X90345238Y-7454819D01*
X90345238Y-7454819D02*
X90488095Y-7502438D01*
X90821429Y-7454819D02*
X91059524Y-8454819D01*
X91059524Y-8454819D02*
X91250000Y-7740533D01*
X91250000Y-7740533D02*
X91440476Y-8454819D01*
X91440476Y-8454819D02*
X91678572Y-7454819D01*
X92583333Y-8454819D02*
X92011905Y-8454819D01*
X92297619Y-8454819D02*
X92297619Y-7454819D01*
X92297619Y-7454819D02*
X92202381Y-7597676D01*
X92202381Y-7597676D02*
X92107143Y-7692914D01*
X92107143Y-7692914D02*
X92011905Y-7740533D01*
X13048095Y-27124819D02*
X13048095Y-27934342D01*
X13048095Y-27934342D02*
X13095714Y-28029580D01*
X13095714Y-28029580D02*
X13143333Y-28077200D01*
X13143333Y-28077200D02*
X13238571Y-28124819D01*
X13238571Y-28124819D02*
X13429047Y-28124819D01*
X13429047Y-28124819D02*
X13524285Y-28077200D01*
X13524285Y-28077200D02*
X13571904Y-28029580D01*
X13571904Y-28029580D02*
X13619523Y-27934342D01*
X13619523Y-27934342D02*
X13619523Y-27124819D01*
X14048095Y-27220057D02*
X14095714Y-27172438D01*
X14095714Y-27172438D02*
X14190952Y-27124819D01*
X14190952Y-27124819D02*
X14429047Y-27124819D01*
X14429047Y-27124819D02*
X14524285Y-27172438D01*
X14524285Y-27172438D02*
X14571904Y-27220057D01*
X14571904Y-27220057D02*
X14619523Y-27315295D01*
X14619523Y-27315295D02*
X14619523Y-27410533D01*
X14619523Y-27410533D02*
X14571904Y-27553390D01*
X14571904Y-27553390D02*
X14000476Y-28124819D01*
X14000476Y-28124819D02*
X14619523Y-28124819D01*
X34833333Y-33679580D02*
X34785714Y-33727200D01*
X34785714Y-33727200D02*
X34642857Y-33774819D01*
X34642857Y-33774819D02*
X34547619Y-33774819D01*
X34547619Y-33774819D02*
X34404762Y-33727200D01*
X34404762Y-33727200D02*
X34309524Y-33631961D01*
X34309524Y-33631961D02*
X34261905Y-33536723D01*
X34261905Y-33536723D02*
X34214286Y-33346247D01*
X34214286Y-33346247D02*
X34214286Y-33203390D01*
X34214286Y-33203390D02*
X34261905Y-33012914D01*
X34261905Y-33012914D02*
X34309524Y-32917676D01*
X34309524Y-32917676D02*
X34404762Y-32822438D01*
X34404762Y-32822438D02*
X34547619Y-32774819D01*
X34547619Y-32774819D02*
X34642857Y-32774819D01*
X34642857Y-32774819D02*
X34785714Y-32822438D01*
X34785714Y-32822438D02*
X34833333Y-32870057D01*
X35690476Y-33108152D02*
X35690476Y-33774819D01*
X35452381Y-32727200D02*
X35214286Y-33441485D01*
X35214286Y-33441485D02*
X35833333Y-33441485D01*
X74833333Y-66804819D02*
X74500000Y-66328628D01*
X74261905Y-66804819D02*
X74261905Y-65804819D01*
X74261905Y-65804819D02*
X74642857Y-65804819D01*
X74642857Y-65804819D02*
X74738095Y-65852438D01*
X74738095Y-65852438D02*
X74785714Y-65900057D01*
X74785714Y-65900057D02*
X74833333Y-65995295D01*
X74833333Y-65995295D02*
X74833333Y-66138152D01*
X74833333Y-66138152D02*
X74785714Y-66233390D01*
X74785714Y-66233390D02*
X74738095Y-66281009D01*
X74738095Y-66281009D02*
X74642857Y-66328628D01*
X74642857Y-66328628D02*
X74261905Y-66328628D01*
X75214286Y-65900057D02*
X75261905Y-65852438D01*
X75261905Y-65852438D02*
X75357143Y-65804819D01*
X75357143Y-65804819D02*
X75595238Y-65804819D01*
X75595238Y-65804819D02*
X75690476Y-65852438D01*
X75690476Y-65852438D02*
X75738095Y-65900057D01*
X75738095Y-65900057D02*
X75785714Y-65995295D01*
X75785714Y-65995295D02*
X75785714Y-66090533D01*
X75785714Y-66090533D02*
X75738095Y-66233390D01*
X75738095Y-66233390D02*
X75166667Y-66804819D01*
X75166667Y-66804819D02*
X75785714Y-66804819D01*
X11833333Y-56804819D02*
X11500000Y-56328628D01*
X11261905Y-56804819D02*
X11261905Y-55804819D01*
X11261905Y-55804819D02*
X11642857Y-55804819D01*
X11642857Y-55804819D02*
X11738095Y-55852438D01*
X11738095Y-55852438D02*
X11785714Y-55900057D01*
X11785714Y-55900057D02*
X11833333Y-55995295D01*
X11833333Y-55995295D02*
X11833333Y-56138152D01*
X11833333Y-56138152D02*
X11785714Y-56233390D01*
X11785714Y-56233390D02*
X11738095Y-56281009D01*
X11738095Y-56281009D02*
X11642857Y-56328628D01*
X11642857Y-56328628D02*
X11261905Y-56328628D01*
X12309524Y-56804819D02*
X12500000Y-56804819D01*
X12500000Y-56804819D02*
X12595238Y-56757200D01*
X12595238Y-56757200D02*
X12642857Y-56709580D01*
X12642857Y-56709580D02*
X12738095Y-56566723D01*
X12738095Y-56566723D02*
X12785714Y-56376247D01*
X12785714Y-56376247D02*
X12785714Y-55995295D01*
X12785714Y-55995295D02*
X12738095Y-55900057D01*
X12738095Y-55900057D02*
X12690476Y-55852438D01*
X12690476Y-55852438D02*
X12595238Y-55804819D01*
X12595238Y-55804819D02*
X12404762Y-55804819D01*
X12404762Y-55804819D02*
X12309524Y-55852438D01*
X12309524Y-55852438D02*
X12261905Y-55900057D01*
X12261905Y-55900057D02*
X12214286Y-55995295D01*
X12214286Y-55995295D02*
X12214286Y-56233390D01*
X12214286Y-56233390D02*
X12261905Y-56328628D01*
X12261905Y-56328628D02*
X12309524Y-56376247D01*
X12309524Y-56376247D02*
X12404762Y-56423866D01*
X12404762Y-56423866D02*
X12595238Y-56423866D01*
X12595238Y-56423866D02*
X12690476Y-56376247D01*
X12690476Y-56376247D02*
X12738095Y-56328628D01*
X12738095Y-56328628D02*
X12785714Y-56233390D01*
X24833333Y-20804819D02*
X24500000Y-20328628D01*
X24261905Y-20804819D02*
X24261905Y-19804819D01*
X24261905Y-19804819D02*
X24642857Y-19804819D01*
X24642857Y-19804819D02*
X24738095Y-19852438D01*
X24738095Y-19852438D02*
X24785714Y-19900057D01*
X24785714Y-19900057D02*
X24833333Y-19995295D01*
X24833333Y-19995295D02*
X24833333Y-20138152D01*
X24833333Y-20138152D02*
X24785714Y-20233390D01*
X24785714Y-20233390D02*
X24738095Y-20281009D01*
X24738095Y-20281009D02*
X24642857Y-20328628D01*
X24642857Y-20328628D02*
X24261905Y-20328628D01*
X25166667Y-19804819D02*
X25785714Y-19804819D01*
X25785714Y-19804819D02*
X25452381Y-20185771D01*
X25452381Y-20185771D02*
X25595238Y-20185771D01*
X25595238Y-20185771D02*
X25690476Y-20233390D01*
X25690476Y-20233390D02*
X25738095Y-20281009D01*
X25738095Y-20281009D02*
X25785714Y-20376247D01*
X25785714Y-20376247D02*
X25785714Y-20614342D01*
X25785714Y-20614342D02*
X25738095Y-20709580D01*
X25738095Y-20709580D02*
X25690476Y-20757200D01*
X25690476Y-20757200D02*
X25595238Y-20804819D01*
X25595238Y-20804819D02*
X25309524Y-20804819D01*
X25309524Y-20804819D02*
X25214286Y-20757200D01*
X25214286Y-20757200D02*
X25166667Y-20709580D01*
X62084279Y-72219819D02*
X62084279Y-73029342D01*
X62084279Y-73029342D02*
X62131898Y-73124580D01*
X62131898Y-73124580D02*
X62179517Y-73172200D01*
X62179517Y-73172200D02*
X62274755Y-73219819D01*
X62274755Y-73219819D02*
X62465231Y-73219819D01*
X62465231Y-73219819D02*
X62560469Y-73172200D01*
X62560469Y-73172200D02*
X62608088Y-73124580D01*
X62608088Y-73124580D02*
X62655707Y-73029342D01*
X62655707Y-73029342D02*
X62655707Y-72219819D01*
X63655707Y-73219819D02*
X63084279Y-73219819D01*
X63369993Y-73219819D02*
X63369993Y-72219819D01*
X63369993Y-72219819D02*
X63274755Y-72362676D01*
X63274755Y-72362676D02*
X63179517Y-72457914D01*
X63179517Y-72457914D02*
X63084279Y-72505533D01*
X87833333Y-18804819D02*
X87500000Y-18328628D01*
X87261905Y-18804819D02*
X87261905Y-17804819D01*
X87261905Y-17804819D02*
X87642857Y-17804819D01*
X87642857Y-17804819D02*
X87738095Y-17852438D01*
X87738095Y-17852438D02*
X87785714Y-17900057D01*
X87785714Y-17900057D02*
X87833333Y-17995295D01*
X87833333Y-17995295D02*
X87833333Y-18138152D01*
X87833333Y-18138152D02*
X87785714Y-18233390D01*
X87785714Y-18233390D02*
X87738095Y-18281009D01*
X87738095Y-18281009D02*
X87642857Y-18328628D01*
X87642857Y-18328628D02*
X87261905Y-18328628D01*
X88166667Y-17804819D02*
X88833333Y-17804819D01*
X88833333Y-17804819D02*
X88404762Y-18804819D01*
X7666666Y-5074819D02*
X7666666Y-5789104D01*
X7666666Y-5789104D02*
X7619047Y-5931961D01*
X7619047Y-5931961D02*
X7523809Y-6027200D01*
X7523809Y-6027200D02*
X7380952Y-6074819D01*
X7380952Y-6074819D02*
X7285714Y-6074819D01*
X8666666Y-6074819D02*
X8095238Y-6074819D01*
X8380952Y-6074819D02*
X8380952Y-5074819D01*
X8380952Y-5074819D02*
X8285714Y-5217676D01*
X8285714Y-5217676D02*
X8190476Y-5312914D01*
X8190476Y-5312914D02*
X8095238Y-5360533D01*
X24833333Y-33679580D02*
X24785714Y-33727200D01*
X24785714Y-33727200D02*
X24642857Y-33774819D01*
X24642857Y-33774819D02*
X24547619Y-33774819D01*
X24547619Y-33774819D02*
X24404762Y-33727200D01*
X24404762Y-33727200D02*
X24309524Y-33631961D01*
X24309524Y-33631961D02*
X24261905Y-33536723D01*
X24261905Y-33536723D02*
X24214286Y-33346247D01*
X24214286Y-33346247D02*
X24214286Y-33203390D01*
X24214286Y-33203390D02*
X24261905Y-33012914D01*
X24261905Y-33012914D02*
X24309524Y-32917676D01*
X24309524Y-32917676D02*
X24404762Y-32822438D01*
X24404762Y-32822438D02*
X24547619Y-32774819D01*
X24547619Y-32774819D02*
X24642857Y-32774819D01*
X24642857Y-32774819D02*
X24785714Y-32822438D01*
X24785714Y-32822438D02*
X24833333Y-32870057D01*
X25690476Y-32774819D02*
X25500000Y-32774819D01*
X25500000Y-32774819D02*
X25404762Y-32822438D01*
X25404762Y-32822438D02*
X25357143Y-32870057D01*
X25357143Y-32870057D02*
X25261905Y-33012914D01*
X25261905Y-33012914D02*
X25214286Y-33203390D01*
X25214286Y-33203390D02*
X25214286Y-33584342D01*
X25214286Y-33584342D02*
X25261905Y-33679580D01*
X25261905Y-33679580D02*
X25309524Y-33727200D01*
X25309524Y-33727200D02*
X25404762Y-33774819D01*
X25404762Y-33774819D02*
X25595238Y-33774819D01*
X25595238Y-33774819D02*
X25690476Y-33727200D01*
X25690476Y-33727200D02*
X25738095Y-33679580D01*
X25738095Y-33679580D02*
X25785714Y-33584342D01*
X25785714Y-33584342D02*
X25785714Y-33346247D01*
X25785714Y-33346247D02*
X25738095Y-33251009D01*
X25738095Y-33251009D02*
X25690476Y-33203390D01*
X25690476Y-33203390D02*
X25595238Y-33155771D01*
X25595238Y-33155771D02*
X25404762Y-33155771D01*
X25404762Y-33155771D02*
X25309524Y-33203390D01*
X25309524Y-33203390D02*
X25261905Y-33251009D01*
X25261905Y-33251009D02*
X25214286Y-33346247D01*
X87666666Y-62074819D02*
X87666666Y-62789104D01*
X87666666Y-62789104D02*
X87619047Y-62931961D01*
X87619047Y-62931961D02*
X87523809Y-63027200D01*
X87523809Y-63027200D02*
X87380952Y-63074819D01*
X87380952Y-63074819D02*
X87285714Y-63074819D01*
X88047619Y-62074819D02*
X88666666Y-62074819D01*
X88666666Y-62074819D02*
X88333333Y-62455771D01*
X88333333Y-62455771D02*
X88476190Y-62455771D01*
X88476190Y-62455771D02*
X88571428Y-62503390D01*
X88571428Y-62503390D02*
X88619047Y-62551009D01*
X88619047Y-62551009D02*
X88666666Y-62646247D01*
X88666666Y-62646247D02*
X88666666Y-62884342D01*
X88666666Y-62884342D02*
X88619047Y-62979580D01*
X88619047Y-62979580D02*
X88571428Y-63027200D01*
X88571428Y-63027200D02*
X88476190Y-63074819D01*
X88476190Y-63074819D02*
X88190476Y-63074819D01*
X88190476Y-63074819D02*
X88095238Y-63027200D01*
X88095238Y-63027200D02*
X88047619Y-62979580D01*
X66833333Y-66679580D02*
X66785714Y-66727200D01*
X66785714Y-66727200D02*
X66642857Y-66774819D01*
X66642857Y-66774819D02*
X66547619Y-66774819D01*
X66547619Y-66774819D02*
X66404762Y-66727200D01*
X66404762Y-66727200D02*
X66309524Y-66631961D01*
X66309524Y-66631961D02*
X66261905Y-66536723D01*
X66261905Y-66536723D02*
X66214286Y-66346247D01*
X66214286Y-66346247D02*
X66214286Y-66203390D01*
X66214286Y-66203390D02*
X66261905Y-66012914D01*
X66261905Y-66012914D02*
X66309524Y-65917676D01*
X66309524Y-65917676D02*
X66404762Y-65822438D01*
X66404762Y-65822438D02*
X66547619Y-65774819D01*
X66547619Y-65774819D02*
X66642857Y-65774819D01*
X66642857Y-65774819D02*
X66785714Y-65822438D01*
X66785714Y-65822438D02*
X66833333Y-65870057D01*
X67214286Y-65870057D02*
X67261905Y-65822438D01*
X67261905Y-65822438D02*
X67357143Y-65774819D01*
X67357143Y-65774819D02*
X67595238Y-65774819D01*
X67595238Y-65774819D02*
X67690476Y-65822438D01*
X67690476Y-65822438D02*
X67738095Y-65870057D01*
X67738095Y-65870057D02*
X67785714Y-65965295D01*
X67785714Y-65965295D02*
X67785714Y-66060533D01*
X67785714Y-66060533D02*
X67738095Y-66203390D01*
X67738095Y-66203390D02*
X67166667Y-66774819D01*
X67166667Y-66774819D02*
X67785714Y-66774819D01*
X24666666Y-83074819D02*
X24666666Y-83789104D01*
X24666666Y-83789104D02*
X24619047Y-83931961D01*
X24619047Y-83931961D02*
X24523809Y-84027200D01*
X24523809Y-84027200D02*
X24380952Y-84074819D01*
X24380952Y-84074819D02*
X24285714Y-84074819D01*
X25571428Y-83074819D02*
X25380952Y-83074819D01*
X25380952Y-83074819D02*
X25285714Y-83122438D01*
X25285714Y-83122438D02*
X25238095Y-83170057D01*
X25238095Y-83170057D02*
X25142857Y-83312914D01*
X25142857Y-83312914D02*
X25095238Y-83503390D01*
X25095238Y-83503390D02*
X25095238Y-83884342D01*
X25095238Y-83884342D02*
X25142857Y-83979580D01*
X25142857Y-83979580D02*
X25190476Y-84027200D01*
X25190476Y-84027200D02*
X25285714Y-84074819D01*
X25285714Y-84074819D02*
X25476190Y-84074819D01*
X25476190Y-84074819D02*
X25571428Y-84027200D01*
X25571428Y-84027200D02*
X25619047Y-83979580D01*
X25619047Y-83979580D02*
X25666666Y-83884342D01*
X25666666Y-83884342D02*
X25666666Y-83646247D01*
X25666666Y-83646247D02*
X25619047Y-83551009D01*
X25619047Y-83551009D02*
X25571428Y-83503390D01*
X25571428Y-83503390D02*
X25476190Y-83455771D01*
X25476190Y-83455771D02*
X25285714Y-83455771D01*
X25285714Y-83455771D02*
X25190476Y-83503390D01*
X25190476Y-83503390D02*
X25142857Y-83551009D01*
X25142857Y-83551009D02*
X25095238Y-83646247D01*
%TO.C,C7*%
D11*
X74738748Y-34265000D02*
X75261252Y-34265000D01*
X74738748Y-35735000D02*
X75261252Y-35735000D01*
%TO.C,C3*%
X34738748Y-28265000D02*
X35261252Y-28265000D01*
X34738748Y-29735000D02*
X35261252Y-29735000D01*
%TO.C,R6*%
X29772936Y-90265000D02*
X30227064Y-90265000D01*
X29772936Y-91735000D02*
X30227064Y-91735000D01*
%TO.C,R4*%
X32772936Y-21265000D02*
X33227064Y-21265000D01*
X32772936Y-22735000D02*
X33227064Y-22735000D01*
%TO.C,U3*%
X81160000Y-28670000D02*
X81160000Y-46570000D01*
X81160000Y-46570000D02*
X86460000Y-46570000D01*
X82810000Y-28670000D02*
X81160000Y-28670000D01*
X86460000Y-28670000D02*
X84810000Y-28670000D01*
X86460000Y-46570000D02*
X86460000Y-28670000D01*
X84810000Y-28670000D02*
G75*
G02*
X82810000Y-28670000I-1000000J0D01*
G01*
%TO.C,C1*%
X32738748Y-67265000D02*
X33261252Y-67265000D01*
X32738748Y-68735000D02*
X33261252Y-68735000D01*
%TO.C,J4*%
X23620000Y-6620000D02*
X25000000Y-6620000D01*
X23620000Y-8000000D02*
X23620000Y-6620000D01*
X23620000Y-9270000D02*
X23620000Y-17000000D01*
X23620000Y-9270000D02*
X26380000Y-9270000D01*
X23620000Y-17000000D02*
X26380000Y-17000000D01*
X26380000Y-9270000D02*
X26380000Y-17000000D01*
%TO.C,R8*%
X69772936Y-43265000D02*
X70227064Y-43265000D01*
X69772936Y-44735000D02*
X70227064Y-44735000D01*
%TO.C,J2*%
X6620000Y-63620000D02*
X8000000Y-63620000D01*
X6620000Y-65000000D02*
X6620000Y-63620000D01*
X6620000Y-66270000D02*
X6620000Y-79080000D01*
X6620000Y-66270000D02*
X9380000Y-66270000D01*
X6620000Y-79080000D02*
X9380000Y-79080000D01*
X9380000Y-66270000D02*
X9380000Y-79080000D01*
%TO.C,C8*%
X64738748Y-34265000D02*
X65261252Y-34265000D01*
X64738748Y-35735000D02*
X65261252Y-35735000D01*
%TO.C,J7*%
X73620000Y-84620000D02*
X75000000Y-84620000D01*
X73620000Y-86000000D02*
X73620000Y-84620000D01*
X73620000Y-87270000D02*
X73620000Y-95000000D01*
X73620000Y-87270000D02*
X76380000Y-87270000D01*
X73620000Y-95000000D02*
X76380000Y-95000000D01*
X76380000Y-87270000D02*
X76380000Y-95000000D01*
%TO.C,C5*%
X12738748Y-13265000D02*
X13261252Y-13265000D01*
X12738748Y-14735000D02*
X13261252Y-14735000D01*
%TO.C,R1*%
X24772936Y-67265000D02*
X25227064Y-67265000D01*
X24772936Y-68735000D02*
X25227064Y-68735000D01*
%TO.C,R10*%
X79772936Y-57265000D02*
X80227064Y-57265000D01*
X79772936Y-58735000D02*
X80227064Y-58735000D01*
%TO.C,J5*%
X73620000Y-6620000D02*
X75000000Y-6620000D01*
X73620000Y-8000000D02*
X73620000Y-6620000D01*
X73620000Y-9270000D02*
X73620000Y-17000000D01*
X73620000Y-9270000D02*
X76380000Y-9270000D01*
X73620000Y-17000000D02*
X76380000Y-17000000D01*
X76380000Y-9270000D02*
X76380000Y-17000000D01*
%TO.C,R5*%
X29772936Y-83265000D02*
X30227064Y-83265000D01*
X29772936Y-84735000D02*
X30227064Y-84735000D01*
%TO.C,SW1*%
X87750000Y-11500000D02*
X87750000Y-13000000D01*
X89000000Y-15500000D02*
X93500000Y-15500000D01*
X93500000Y-9000000D02*
X89000000Y-9000000D01*
X94750000Y-13000000D02*
X94750000Y-11500000D01*
%TO.C,U2*%
X11160000Y-28670000D02*
X11160000Y-46570000D01*
X11160000Y-46570000D02*
X16460000Y-46570000D01*
X12810000Y-28670000D02*
X11160000Y-28670000D01*
X16460000Y-28670000D02*
X14810000Y-28670000D01*
X16460000Y-46570000D02*
X16460000Y-28670000D01*
X14810000Y-28670000D02*
G75*
G02*
X12810000Y-28670000I-1000000J0D01*
G01*
%TO.C,C4*%
X34738748Y-34265000D02*
X35261252Y-34265000D01*
X34738748Y-35735000D02*
X35261252Y-35735000D01*
%TO.C,R2*%
X74772936Y-67265000D02*
X75227064Y-67265000D01*
X74772936Y-68735000D02*
X75227064Y-68735000D01*
%TO.C,R9*%
X11772936Y-57265000D02*
X12227064Y-57265000D01*
X11772936Y-58735000D02*
X12227064Y-58735000D01*
%TO.C,R3*%
X24772936Y-21265000D02*
X25227064Y-21265000D01*
X24772936Y-22735000D02*
X25227064Y-22735000D01*
%TO.C,U1*%
X39070000Y-24670000D02*
X39070000Y-23070000D01*
X39390000Y-23000000D02*
X39390000Y-73000000D01*
X39730000Y-22453000D02*
X39730000Y-73547000D01*
X40000000Y-22390000D02*
X42490000Y-22390000D01*
X40000000Y-73610000D02*
X43837939Y-73610000D01*
X42490000Y-22390000D02*
X42490000Y-23303520D01*
X42490000Y-22390000D02*
X43837940Y-22390000D01*
X42490000Y-25696480D02*
X42490000Y-70303520D01*
X42490000Y-72696480D02*
X42490000Y-73610000D01*
X44762061Y-22390000D02*
X45765000Y-22390000D01*
X45765000Y-22390000D02*
X54235000Y-22390000D01*
X45890000Y-21090000D02*
X45890000Y-21910000D01*
X45890000Y-21090000D02*
X54110000Y-21090000D01*
X45890000Y-21910000D02*
X46100000Y-21910000D01*
X46100000Y-21910000D02*
X46100000Y-23306000D01*
X46100000Y-25694000D02*
X46100000Y-26910000D01*
X46400000Y-73610000D02*
X44762061Y-73610000D01*
X53600000Y-73610000D02*
X46400000Y-73610000D01*
X53900000Y-21910000D02*
X53900000Y-23306000D01*
X53900000Y-25694000D02*
X53900000Y-26910000D01*
X53900000Y-26910000D02*
X46100000Y-26910000D01*
X54110000Y-21090000D02*
X54110000Y-21910000D01*
X54110000Y-21910000D02*
X53900000Y-21910000D01*
X54235000Y-22390000D02*
X55237939Y-22390000D01*
X55237939Y-73610000D02*
X53600000Y-73610000D01*
X56162061Y-22390000D02*
X57510000Y-22390000D01*
X56162061Y-73610000D02*
X60000000Y-73610000D01*
X57510000Y-22390000D02*
X57510000Y-23303520D01*
X57510000Y-25696480D02*
X57510000Y-70303520D01*
X57510000Y-72696480D02*
X57510000Y-73610000D01*
X60000000Y-22390000D02*
X57510000Y-22390000D01*
X60270000Y-73547000D02*
X60270000Y-22453000D01*
X60610000Y-23000000D02*
X60610000Y-73000000D01*
X39390000Y-23000000D02*
G75*
G02*
X40000000Y-22390000I610000J0D01*
G01*
X40000000Y-73610000D02*
G75*
G02*
X39390000Y-73000000I-99J609901D01*
G01*
X60000000Y-22390000D02*
G75*
G02*
X60610000Y-23000000I0J-610000D01*
G01*
X60610000Y-73000000D02*
G75*
G02*
X60000000Y-73610000I-610000J0D01*
G01*
%TO.C,R7*%
X87772936Y-19265000D02*
X88227064Y-19265000D01*
X87772936Y-20735000D02*
X88227064Y-20735000D01*
%TO.C,J1*%
X6620000Y-6620000D02*
X8000000Y-6620000D01*
X6620000Y-8000000D02*
X6620000Y-6620000D01*
X6620000Y-9270000D02*
X6620000Y-14460000D01*
X6620000Y-9270000D02*
X9380000Y-9270000D01*
X6620000Y-14460000D02*
X9380000Y-14460000D01*
X9380000Y-9270000D02*
X9380000Y-14460000D01*
%TO.C,C6*%
X24738748Y-34265000D02*
X25261252Y-34265000D01*
X24738748Y-35735000D02*
X25261252Y-35735000D01*
%TO.C,J3*%
X86620000Y-63620000D02*
X88000000Y-63620000D01*
X86620000Y-65000000D02*
X86620000Y-63620000D01*
X86620000Y-66270000D02*
X86620000Y-79080000D01*
X86620000Y-66270000D02*
X89380000Y-66270000D01*
X86620000Y-79080000D02*
X89380000Y-79080000D01*
X89380000Y-66270000D02*
X89380000Y-79080000D01*
%TO.C,C2*%
X66738748Y-67265000D02*
X67261252Y-67265000D01*
X66738748Y-68735000D02*
X67261252Y-68735000D01*
%TO.C,J6*%
X23620000Y-84620000D02*
X25000000Y-84620000D01*
X23620000Y-86000000D02*
X23620000Y-84620000D01*
X23620000Y-87270000D02*
X23620000Y-95000000D01*
X23620000Y-87270000D02*
X26380000Y-87270000D01*
X23620000Y-95000000D02*
X26380000Y-95000000D01*
X26380000Y-87270000D02*
X26380000Y-95000000D01*
%TD*%
M02*
