%TF.GenerationSoftware,KiCad,Pcbnew,10.0.6*%
%TF.CreationDate,2026-10-02T00:37:49+05:30*%
%TF.ProjectId,traction_carrier,74726163-7469-46f6-9e5f-636172726965,rev?*%
%TF.SameCoordinates,Original*%
%TF.FileFunction,Copper,L2,Bot*%
%TF.FilePolarity,Positive*%
%FSLAX46Y46*%
G04 Gerber Fmt 4.6, Leading zero omitted, Abs format (unit mm)*
G04 Created by KiCad (PCBNEW 10.0.6) date 2026-10-02 00:37:49*
%MOMM*%
%LPD*%
G01*
G04 APERTURE LIST*
G04 Aperture macros list*
%AMRoundRect*
0 Rectangle with rounded corners*
0 $1 Rounding radius*
0 $2 $3 $4 $5 $6 $7 $8 $9 X,Y pos of 4 corners*
0 Add a 4 corners polygon primitive as box body*
4,1,4,$2,$3,$4,$5,$6,$7,$8,$9,$2,$3,0*
0 Add four circle primitives for the rounded corners*
1,1,$1+$1,$2,$3*
1,1,$1+$1,$4,$5*
1,1,$1+$1,$6,$7*
1,1,$1+$1,$8,$9*
0 Add four rect primitives between the rounded corners*
20,1,$1+$1,$2,$3,$4,$5,0*
20,1,$1+$1,$4,$5,$6,$7,0*
20,1,$1+$1,$6,$7,$8,$9,0*
20,1,$1+$1,$8,$9,$2,$3,0*%
%AMFreePoly0*
4,1,37,0.603843,0.796157,0.639018,0.796157,0.711114,0.766294,0.766294,0.711114,0.796157,0.639018,0.796157,0.603843,0.800000,0.600000,0.800000,-0.600000,0.796157,-0.603843,0.796157,-0.639018,0.766294,-0.711114,0.711114,-0.766294,0.639018,-0.796157,0.603843,-0.796157,0.600000,-0.800000,0.000000,-0.800000,0.000000,-0.796148,-0.078414,-0.796148,-0.232228,-0.765552,-0.377117,-0.705537,
-0.507515,-0.618408,-0.618408,-0.507515,-0.705537,-0.377117,-0.765552,-0.232228,-0.796148,-0.078414,-0.796148,0.078414,-0.765552,0.232228,-0.705537,0.377117,-0.618408,0.507515,-0.507515,0.618408,-0.377117,0.705537,-0.232228,0.765552,-0.078414,0.796148,0.000000,0.796148,0.000000,0.800000,0.600000,0.800000,0.603843,0.796157,0.603843,0.796157,$1*%
%AMFreePoly1*
4,1,37,0.000000,0.796148,0.078414,0.796148,0.232228,0.765552,0.377117,0.705537,0.507515,0.618408,0.618408,0.507515,0.705537,0.377117,0.765552,0.232228,0.796148,0.078414,0.796148,-0.078414,0.765552,-0.232228,0.705537,-0.377117,0.618408,-0.507515,0.507515,-0.618408,0.377117,-0.705537,0.232228,-0.765552,0.078414,-0.796148,0.000000,-0.796148,0.000000,-0.800000,-0.600000,-0.800000,
-0.603843,-0.796157,-0.639018,-0.796157,-0.711114,-0.766294,-0.766294,-0.711114,-0.796157,-0.639018,-0.796157,-0.603843,-0.800000,-0.600000,-0.800000,0.600000,-0.796157,0.603843,-0.796157,0.639018,-0.766294,0.711114,-0.711114,0.766294,-0.639018,0.796157,-0.603843,0.796157,-0.600000,0.800000,0.000000,0.800000,0.000000,0.796148,0.000000,0.796148,$1*%
G04 Aperture macros list end*
%TA.AperFunction,ComponentPad*%
%ADD10RoundRect,0.250000X-0.550000X-0.550000X0.550000X-0.550000X0.550000X0.550000X-0.550000X0.550000X0*%
%TD*%
%TA.AperFunction,ComponentPad*%
%ADD11C,1.600000*%
%TD*%
%TA.AperFunction,ComponentPad*%
%ADD12R,1.700000X1.700000*%
%TD*%
%TA.AperFunction,ComponentPad*%
%ADD13C,1.700000*%
%TD*%
%TA.AperFunction,ComponentPad*%
%ADD14C,2.000000*%
%TD*%
%TA.AperFunction,ComponentPad*%
%ADD15RoundRect,0.200000X-0.600000X-0.600000X0.600000X-0.600000X0.600000X0.600000X-0.600000X0.600000X0*%
%TD*%
%TA.AperFunction,ComponentPad*%
%ADD16FreePoly0,0.000000*%
%TD*%
%TA.AperFunction,ComponentPad*%
%ADD17FreePoly1,0.000000*%
%TD*%
%TA.AperFunction,ViaPad*%
%ADD18C,0.650000*%
%TD*%
%TA.AperFunction,Conductor*%
%ADD19C,0.250000*%
%TD*%
G04 APERTURE END LIST*
D10*
%TO.P,U3,1*%
%TO.N,/FAULT_OK*%
X80000000Y-30000000D03*
D11*
%TO.P,U3,2*%
%TO.N,/3V3*%
X80000000Y-32540000D03*
%TO.P,U3,3*%
%TO.N,/RESET_CLOCK*%
X80000000Y-35080000D03*
%TO.P,U3,4*%
%TO.N,/3V3*%
X80000000Y-37620000D03*
%TO.P,U3,5*%
%TO.N,/ARMED*%
X80000000Y-40160000D03*
%TO.P,U3,6*%
%TO.N,unconnected-(U3-NC_6-Pad6)*%
X80000000Y-42700000D03*
%TO.P,U3,7*%
%TO.N,/GND*%
X80000000Y-45240000D03*
%TO.P,U3,8*%
%TO.N,unconnected-(U3-NC_8-Pad8)*%
X87620000Y-45240000D03*
%TO.P,U3,9*%
%TO.N,unconnected-(U3-NC_9-Pad9)*%
X87620000Y-42700000D03*
%TO.P,U3,10*%
%TO.N,/3V3*%
X87620000Y-40160000D03*
%TO.P,U3,11*%
%TO.N,/GND*%
X87620000Y-37620000D03*
%TO.P,U3,12*%
X87620000Y-35080000D03*
%TO.P,U3,13*%
X87620000Y-32540000D03*
%TO.P,U3,14*%
%TO.N,/3V3*%
X87620000Y-30000000D03*
%TD*%
D12*
%TO.P,J4,1*%
%TO.N,/3V3*%
X25000000Y-8000000D03*
D13*
%TO.P,J4,2*%
%TO.N,/GND*%
X25000000Y-10540000D03*
%TO.P,J4,3*%
%TO.N,/ENC_L_A*%
X25000000Y-13080000D03*
%TO.P,J4,4*%
%TO.N,/ENC_L_B*%
X25000000Y-15620000D03*
%TD*%
D12*
%TO.P,J2,1*%
%TO.N,/PWM_L*%
X8000000Y-65000000D03*
D13*
%TO.P,J2,2*%
%TO.N,/DIR_L*%
X8000000Y-67540000D03*
%TO.P,J2,3*%
%TO.N,/DRIVE_ENABLE*%
X8000000Y-70080000D03*
%TO.P,J2,4*%
%TO.N,/GND*%
X8000000Y-72620000D03*
%TO.P,J2,5*%
%TO.N,/ISENSE_L*%
X8000000Y-75160000D03*
%TO.P,J2,6*%
%TO.N,/FAULT_L_N*%
X8000000Y-77700000D03*
%TD*%
D12*
%TO.P,J7,1*%
%TO.N,/3V3*%
X75000000Y-86000000D03*
D13*
%TO.P,J7,2*%
%TO.N,/GND*%
X75000000Y-88540000D03*
%TO.P,J7,3*%
%TO.N,/UART_TX*%
X75000000Y-91080000D03*
%TO.P,J7,4*%
%TO.N,/UART_RX*%
X75000000Y-93620000D03*
%TD*%
D12*
%TO.P,J5,1*%
%TO.N,/3V3*%
X75000000Y-8000000D03*
D13*
%TO.P,J5,2*%
%TO.N,/GND*%
X75000000Y-10540000D03*
%TO.P,J5,3*%
%TO.N,/ENC_R_A*%
X75000000Y-13080000D03*
%TO.P,J5,4*%
%TO.N,/ENC_R_B*%
X75000000Y-15620000D03*
%TD*%
D14*
%TO.P,SW1,1*%
%TO.N,/3V3*%
X88000000Y-10000000D03*
X94500000Y-10000000D03*
%TO.P,SW1,2*%
%TO.N,/RESET_CLOCK*%
X88000000Y-14500000D03*
X94500000Y-14500000D03*
%TD*%
D10*
%TO.P,U2,1*%
%TO.N,/FAULT_L_N*%
X10000000Y-30000000D03*
D11*
%TO.P,U2,2*%
%TO.N,/FAULT_R_N*%
X10000000Y-32540000D03*
%TO.P,U2,3*%
%TO.N,/FAULT_OK*%
X10000000Y-35080000D03*
%TO.P,U2,4*%
%TO.N,/MCU_ENABLE*%
X10000000Y-37620000D03*
%TO.P,U2,5*%
%TO.N,/ARMED*%
X10000000Y-40160000D03*
%TO.P,U2,6*%
%TO.N,/DRIVE_ENABLE*%
X10000000Y-42700000D03*
%TO.P,U2,7*%
%TO.N,/GND*%
X10000000Y-45240000D03*
%TO.P,U2,8*%
%TO.N,unconnected-(U2-NC_8-Pad8)*%
X17620000Y-45240000D03*
%TO.P,U2,9*%
%TO.N,/GND*%
X17620000Y-42700000D03*
%TO.P,U2,10*%
X17620000Y-40160000D03*
%TO.P,U2,11*%
%TO.N,unconnected-(U2-NC_11-Pad11)*%
X17620000Y-37620000D03*
%TO.P,U2,12*%
%TO.N,/GND*%
X17620000Y-35080000D03*
%TO.P,U2,13*%
X17620000Y-32540000D03*
%TO.P,U2,14*%
%TO.N,/3V3*%
X17620000Y-30000000D03*
%TD*%
D15*
%TO.P,U1,1*%
%TO.N,/UART_TX*%
X41110000Y-23870000D03*
D11*
%TO.P,U1,2*%
%TO.N,/UART_RX*%
X41110000Y-26410000D03*
D16*
%TO.P,U1,3*%
%TO.N,/GND*%
X41110000Y-28950000D03*
D11*
%TO.P,U1,4*%
%TO.N,/ENC_L_A*%
X41110000Y-31490000D03*
%TO.P,U1,5*%
%TO.N,/ENC_L_B*%
X41110000Y-34030000D03*
%TO.P,U1,6*%
%TO.N,/SDA*%
X41110000Y-36570000D03*
%TO.P,U1,7*%
%TO.N,/SCL*%
X41110000Y-39110000D03*
D16*
%TO.P,U1,8*%
%TO.N,/GND*%
X41110000Y-41650000D03*
D11*
%TO.P,U1,9*%
%TO.N,/ENC_R_A*%
X41110000Y-44190000D03*
%TO.P,U1,10*%
%TO.N,/ENC_R_B*%
X41110000Y-46730000D03*
%TO.P,U1,11*%
%TO.N,/PWM_L*%
X41110000Y-49270000D03*
%TO.P,U1,12*%
%TO.N,/DIR_L*%
X41110000Y-51810000D03*
D16*
%TO.P,U1,13*%
%TO.N,/GND*%
X41110000Y-54350000D03*
D11*
%TO.P,U1,14*%
%TO.N,/PWM_R*%
X41110000Y-56890000D03*
%TO.P,U1,15*%
%TO.N,/DIR_R*%
X41110000Y-59430000D03*
%TO.P,U1,16*%
%TO.N,/MCU_ENABLE*%
X41110000Y-61970000D03*
%TO.P,U1,17*%
%TO.N,unconnected-(U1-NC_17-Pad17)*%
X41110000Y-64510000D03*
D16*
%TO.P,U1,18*%
%TO.N,/GND*%
X41110000Y-67050000D03*
D11*
%TO.P,U1,19*%
%TO.N,unconnected-(U1-NC_19-Pad19)*%
X41110000Y-69590000D03*
%TO.P,U1,20*%
%TO.N,unconnected-(U1-NC_20-Pad20)*%
X41110000Y-72130000D03*
%TO.P,U1,21*%
%TO.N,unconnected-(U1-NC_21-Pad21)*%
X58890000Y-72130000D03*
%TO.P,U1,22*%
%TO.N,unconnected-(U1-NC_22-Pad22)*%
X58890000Y-69590000D03*
D17*
%TO.P,U1,23*%
%TO.N,/GND*%
X58890000Y-67050000D03*
D11*
%TO.P,U1,24*%
%TO.N,unconnected-(U1-NC_24-Pad24)*%
X58890000Y-64510000D03*
%TO.P,U1,25*%
%TO.N,unconnected-(U1-NC_25-Pad25)*%
X58890000Y-61970000D03*
%TO.P,U1,26*%
%TO.N,unconnected-(U1-NC_26-Pad26)*%
X58890000Y-59430000D03*
%TO.P,U1,27*%
%TO.N,unconnected-(U1-NC_27-Pad27)*%
X58890000Y-56890000D03*
D17*
%TO.P,U1,28*%
%TO.N,/GND*%
X58890000Y-54350000D03*
D11*
%TO.P,U1,29*%
%TO.N,unconnected-(U1-NC_29-Pad29)*%
X58890000Y-51810000D03*
%TO.P,U1,30*%
%TO.N,unconnected-(U1-NC_30-Pad30)*%
X58890000Y-49270000D03*
%TO.P,U1,31*%
%TO.N,/ADC_CURRENT_L*%
X58890000Y-46730000D03*
%TO.P,U1,32*%
%TO.N,/ADC_CURRENT_R*%
X58890000Y-44190000D03*
D17*
%TO.P,U1,33*%
%TO.N,/GND*%
X58890000Y-41650000D03*
D11*
%TO.P,U1,34*%
%TO.N,/ADC_BUS*%
X58890000Y-39110000D03*
%TO.P,U1,35*%
%TO.N,/ADC_VREF*%
X58890000Y-36570000D03*
%TO.P,U1,36*%
%TO.N,/3V3*%
X58890000Y-34030000D03*
%TO.P,U1,37*%
%TO.N,unconnected-(U1-NC_37-Pad37)*%
X58890000Y-31490000D03*
D17*
%TO.P,U1,38*%
%TO.N,/GND*%
X58890000Y-28950000D03*
D11*
%TO.P,U1,39*%
%TO.N,/5V*%
X58890000Y-26410000D03*
%TO.P,U1,40*%
%TO.N,unconnected-(U1-NC_40-Pad40)*%
X58890000Y-23870000D03*
%TD*%
D12*
%TO.P,J1,1*%
%TO.N,/5V*%
X8000000Y-8000000D03*
D13*
%TO.P,J1,2*%
%TO.N,/GND*%
X8000000Y-10540000D03*
%TO.P,J1,3*%
%TO.N,/BUS_24V*%
X8000000Y-13080000D03*
%TD*%
D12*
%TO.P,J3,1*%
%TO.N,/PWM_R*%
X88000000Y-65000000D03*
D13*
%TO.P,J3,2*%
%TO.N,/DIR_R*%
X88000000Y-67540000D03*
%TO.P,J3,3*%
%TO.N,/DRIVE_ENABLE*%
X88000000Y-70080000D03*
%TO.P,J3,4*%
%TO.N,/GND*%
X88000000Y-72620000D03*
%TO.P,J3,5*%
%TO.N,/ISENSE_R*%
X88000000Y-75160000D03*
%TO.P,J3,6*%
%TO.N,/FAULT_R_N*%
X88000000Y-77700000D03*
%TD*%
D12*
%TO.P,J6,1*%
%TO.N,/3V3*%
X25000000Y-86000000D03*
D13*
%TO.P,J6,2*%
%TO.N,/GND*%
X25000000Y-88540000D03*
%TO.P,J6,3*%
%TO.N,/SDA*%
X25000000Y-91080000D03*
%TO.P,J6,4*%
%TO.N,/SCL*%
X25000000Y-93620000D03*
%TD*%
D18*
%TO.N,/3V3*%
X25000000Y-48250000D03*
X25000000Y-60750000D03*
X43500000Y-32750000D03*
X24500000Y-33750000D03*
X79000000Y-56500000D03*
X81750000Y-40250000D03*
X11000000Y-56500000D03*
X28500000Y-32750000D03*
X24250000Y-24000000D03*
%TO.N,/5V*%
X10500000Y-14000000D03*
X58000000Y-14500000D03*
%TO.N,/ADC_BUS*%
X28000000Y-22000000D03*
X35500000Y-22000000D03*
%TO.N,/ADC_CURRENT_L*%
X43000000Y-60750000D03*
X26000000Y-66500000D03*
%TO.N,/ADC_CURRENT_R*%
X75500000Y-69250000D03*
%TO.N,/ARMED*%
X71750000Y-31250000D03*
X15750000Y-40250000D03*
X23000000Y-32500000D03*
X31000000Y-25000000D03*
X49250000Y-22500000D03*
%TO.N,/DIR_R*%
X79500000Y-76250000D03*
X38750000Y-50750000D03*
X85250000Y-67500000D03*
X37750000Y-64500000D03*
X68750000Y-75250000D03*
%TO.N,/DRIVE_ENABLE*%
X78000000Y-76750000D03*
X85250000Y-70000000D03*
X32750000Y-59750000D03*
%TO.N,/ENC_L_B*%
X27000000Y-26000000D03*
X27000000Y-32500000D03*
X27250000Y-15500000D03*
%TO.N,/ENC_R_A*%
X57000000Y-40000000D03*
X59250000Y-13000000D03*
%TO.N,/ENC_R_B*%
X56000000Y-15500000D03*
X53500000Y-40750000D03*
%TO.N,/FAULT_L_N*%
X13000000Y-69000000D03*
X13000000Y-59500000D03*
%TO.N,/FAULT_OK*%
X15250000Y-33500000D03*
X52500000Y-21500000D03*
X24500000Y-30000000D03*
X29500000Y-24000000D03*
X74500000Y-30000000D03*
%TO.N,/FAULT_R_N*%
X32750000Y-48250000D03*
X81000000Y-59500000D03*
X81000000Y-76250000D03*
X35000000Y-66000000D03*
X7000000Y-32500000D03*
X23000000Y-29000000D03*
X24500000Y-31500000D03*
X35750000Y-77750000D03*
%TO.N,/GND*%
X78000000Y-74250000D03*
X85750000Y-41250000D03*
%TO.N,/MCU_ENABLE*%
X27000000Y-61750000D03*
X67750000Y-44000000D03*
X12250000Y-45000000D03*
X12250000Y-38250000D03*
%TO.N,/PWM_R*%
X86250000Y-73500000D03*
X38750000Y-59750000D03*
X38750000Y-68000000D03*
X76000000Y-73250000D03*
X80000000Y-73500000D03*
X38750000Y-66000000D03*
%TO.N,/RESET_CLOCK*%
X85750000Y-31000000D03*
X85750000Y-20000000D03*
%TO.N,/SCL*%
X29000000Y-65500000D03*
X28500000Y-45500000D03*
X29250000Y-75750000D03*
%TO.N,/SDA*%
X31000000Y-85500000D03*
X27250000Y-47000000D03*
%TO.N,/UART_RX*%
X72250000Y-46250000D03*
X69000000Y-29000000D03*
X48250000Y-24000000D03*
X74000000Y-84250000D03*
X76000000Y-71750000D03*
X78000000Y-71500000D03*
X74000000Y-72250000D03*
%TO.N,/UART_TX*%
X36750000Y-66000000D03*
X38750000Y-40750000D03*
X38750000Y-30500000D03*
X38750000Y-48250000D03*
%TD*%
%TO.N,/3V3*%
D19*
X81750000Y-40250000D02*
X81250000Y-40250000D01*
X24500000Y-48250000D02*
X25000000Y-48250000D01*
X76250000Y-55500000D02*
X76250000Y-59000000D01*
X81250000Y-40250000D02*
X81250000Y-46500000D01*
X75500000Y-41500000D02*
X75500000Y-48250000D01*
X76750000Y-66250000D02*
X77000000Y-66250000D01*
X11000000Y-46500000D02*
X11000000Y-56500000D01*
X79000000Y-46500000D02*
X79000000Y-56500000D01*
X11250000Y-46500000D02*
X11000000Y-46500000D01*
X77000000Y-66250000D02*
X77000000Y-70750000D01*
X17500000Y-30000000D02*
X11250000Y-30000000D01*
X11250000Y-30000000D02*
X11250000Y-46500000D01*
X81250000Y-46500000D02*
X79000000Y-46500000D01*
X43500000Y-32750000D02*
X28500000Y-32750000D01*
X75000000Y-70750000D02*
X75000000Y-86000000D01*
X76750000Y-62750000D02*
X76750000Y-66250000D01*
X75500000Y-48250000D02*
X75750000Y-48250000D01*
X23750000Y-8000000D02*
X25000000Y-8000000D01*
X75750000Y-48250000D02*
X75750000Y-52000000D01*
X24250000Y-24000000D02*
X24250000Y-17000000D01*
X81250000Y-41500000D02*
X75500000Y-41500000D01*
X75750000Y-52000000D02*
X76000000Y-52000000D01*
X76000000Y-55500000D02*
X76250000Y-55500000D01*
X76500000Y-62750000D02*
X76750000Y-62750000D01*
X76000000Y-52000000D02*
X76000000Y-55500000D01*
X24500000Y-33750000D02*
X24500000Y-48250000D01*
X76500000Y-59000000D02*
X76500000Y-62750000D01*
X77000000Y-70750000D02*
X75000000Y-70750000D01*
X81250000Y-40250000D02*
X81250000Y-41500000D01*
X24250000Y-17000000D02*
X23750000Y-17000000D01*
X25000000Y-60750000D02*
X25000000Y-86000000D01*
X76250000Y-59000000D02*
X76500000Y-59000000D01*
X81750000Y-40250000D02*
X81250000Y-40250000D01*
X23750000Y-17000000D02*
X23750000Y-8000000D01*
X17620000Y-30000000D02*
X17500000Y-30000000D01*
%TO.N,/5V*%
X8000000Y-9250000D02*
X9250000Y-9250000D01*
X57500000Y-26500000D02*
X57500000Y-14500000D01*
X8000000Y-8000000D02*
X8000000Y-9250000D01*
X9250000Y-9250000D02*
X9250000Y-14000000D01*
X59000000Y-26500000D02*
X57500000Y-26500000D01*
X9250000Y-14000000D02*
X10500000Y-14000000D01*
X57500000Y-14500000D02*
X58000000Y-14500000D01*
X58890000Y-26410000D02*
X59000000Y-26500000D01*
%TO.N,/ADC_BUS*%
X35500000Y-22000000D02*
X28000000Y-22000000D01*
%TO.N,/ADC_CURRENT_L*%
X43000000Y-60750000D02*
X26000000Y-60750000D01*
X26000000Y-60750000D02*
X26000000Y-66500000D01*
%TO.N,/ADC_CURRENT_R*%
X75500000Y-68000000D02*
X75500000Y-69250000D01*
X59000000Y-44250000D02*
X59000000Y-45500000D01*
X60250000Y-68000000D02*
X75500000Y-68000000D01*
X58890000Y-44190000D02*
X59000000Y-44250000D01*
X60250000Y-45500000D02*
X60250000Y-68000000D01*
X59000000Y-45500000D02*
X60250000Y-45500000D01*
%TO.N,/ARMED*%
X34250000Y-24750000D02*
X37500000Y-24750000D01*
X71750000Y-40250000D02*
X80000000Y-40250000D01*
X37500000Y-24750000D02*
X37500000Y-24500000D01*
X39750000Y-22500000D02*
X49250000Y-22500000D01*
X34250000Y-25000000D02*
X34250000Y-24750000D01*
X39750000Y-24500000D02*
X39750000Y-22500000D01*
X16250000Y-40250000D02*
X16250000Y-33750000D01*
X80000000Y-40250000D02*
X80000000Y-40160000D01*
X31000000Y-25000000D02*
X34250000Y-25000000D01*
X71750000Y-31250000D02*
X71750000Y-40250000D01*
X16250000Y-33750000D02*
X23000000Y-33750000D01*
X23000000Y-33750000D02*
X23000000Y-32500000D01*
X15750000Y-40250000D02*
X16250000Y-40250000D01*
X37500000Y-24500000D02*
X39750000Y-24500000D01*
%TO.N,/DIR_L*%
X41000000Y-51750000D02*
X12500000Y-51750000D01*
X9000000Y-58000000D02*
X9000000Y-63750000D01*
X9250000Y-66250000D02*
X8000000Y-66250000D01*
X12500000Y-58000000D02*
X9000000Y-58000000D01*
X9250000Y-63750000D02*
X9250000Y-66250000D01*
X12500000Y-51750000D02*
X12500000Y-58000000D01*
X8000000Y-66250000D02*
X8000000Y-67500000D01*
X8000000Y-67500000D02*
X8000000Y-67540000D01*
X41110000Y-51810000D02*
X41000000Y-51750000D01*
X9000000Y-63750000D02*
X9250000Y-63750000D01*
%TO.N,/DIR_R*%
X41750000Y-74000000D02*
X41750000Y-75000000D01*
X80000000Y-77250000D02*
X82000000Y-77250000D01*
X37750000Y-69000000D02*
X39250000Y-69000000D01*
X41750000Y-75000000D02*
X65000000Y-75000000D01*
X65000000Y-75250000D02*
X68750000Y-75250000D01*
X41000000Y-59500000D02*
X42500000Y-59500000D01*
X79500000Y-76250000D02*
X80000000Y-76250000D01*
X65000000Y-75000000D02*
X65000000Y-75250000D01*
X42500000Y-50500000D02*
X39750000Y-50500000D01*
X39250000Y-69000000D02*
X39250000Y-74000000D01*
X39750000Y-50750000D02*
X38750000Y-50750000D01*
X82000000Y-67500000D02*
X85250000Y-67500000D01*
X39250000Y-74000000D02*
X41750000Y-74000000D01*
X39750000Y-50500000D02*
X39750000Y-50750000D01*
X80000000Y-76250000D02*
X80000000Y-77250000D01*
X42500000Y-59500000D02*
X42500000Y-50500000D01*
X37750000Y-64500000D02*
X37750000Y-69000000D01*
X82000000Y-77250000D02*
X82000000Y-67500000D01*
X41110000Y-59430000D02*
X41000000Y-59500000D01*
%TO.N,/DRIVE_ENABLE*%
X10000000Y-42700000D02*
X10000000Y-42750000D01*
X6750000Y-63750000D02*
X6750000Y-70000000D01*
X8000000Y-70000000D02*
X8000000Y-70080000D01*
X24000000Y-70000000D02*
X24000000Y-59750000D01*
X82500000Y-77750000D02*
X82500000Y-70000000D01*
X8000000Y-63750000D02*
X6750000Y-63750000D01*
X10000000Y-42750000D02*
X8000000Y-42750000D01*
X78500000Y-76750000D02*
X78500000Y-77250000D01*
X78500000Y-77250000D02*
X79500000Y-77250000D01*
X8000000Y-70000000D02*
X24000000Y-70000000D01*
X82500000Y-70000000D02*
X85250000Y-70000000D01*
X79500000Y-77750000D02*
X82500000Y-77750000D01*
X78000000Y-76750000D02*
X78500000Y-76750000D01*
X6750000Y-70000000D02*
X8000000Y-70000000D01*
X24000000Y-59750000D02*
X32750000Y-59750000D01*
X8000000Y-70080000D02*
X8000000Y-70000000D01*
X79500000Y-77250000D02*
X79500000Y-77750000D01*
X8000000Y-42750000D02*
X8000000Y-63750000D01*
%TO.N,/ENC_L_A*%
X26250000Y-14250000D02*
X25000000Y-14250000D01*
X26250000Y-17500000D02*
X26250000Y-14250000D01*
X26000000Y-21000000D02*
X26000000Y-17500000D01*
X25500000Y-24750000D02*
X25750000Y-24750000D01*
X26000000Y-17500000D02*
X26250000Y-17500000D01*
X25750000Y-24750000D02*
X25750000Y-21000000D01*
X41000000Y-31500000D02*
X25500000Y-31500000D01*
X25000000Y-14250000D02*
X25000000Y-13000000D01*
X25000000Y-13000000D02*
X25000000Y-13080000D01*
X25750000Y-21000000D02*
X26000000Y-21000000D01*
X41110000Y-31490000D02*
X41000000Y-31500000D01*
X25500000Y-31500000D02*
X25500000Y-24750000D01*
%TO.N,/ENC_L_B*%
X41110000Y-34030000D02*
X41000000Y-34000000D01*
X27250000Y-19500000D02*
X27250000Y-15500000D01*
X27000000Y-19500000D02*
X27250000Y-19500000D01*
X27000000Y-26000000D02*
X27000000Y-19500000D01*
X41000000Y-34000000D02*
X27000000Y-34000000D01*
X27000000Y-34000000D02*
X27000000Y-32500000D01*
%TO.N,/ENC_R_A*%
X57000000Y-13000000D02*
X59250000Y-13000000D01*
X57000000Y-40000000D02*
X57000000Y-13000000D01*
%TO.N,/ENC_R_B*%
X53500000Y-40750000D02*
X53500000Y-15500000D01*
X53500000Y-15500000D02*
X56000000Y-15500000D01*
%TO.N,/FAULT_L_N*%
X10000000Y-30000000D02*
X8000000Y-30000000D01*
X8000000Y-30000000D02*
X8000000Y-42250000D01*
X6250000Y-63250000D02*
X6250000Y-77750000D01*
X7500000Y-63250000D02*
X6250000Y-63250000D01*
X13000000Y-69000000D02*
X13000000Y-59500000D01*
X7500000Y-42250000D02*
X7500000Y-63250000D01*
X8000000Y-77750000D02*
X8000000Y-77700000D01*
X8000000Y-42250000D02*
X7500000Y-42250000D01*
X6250000Y-77750000D02*
X8000000Y-77750000D01*
%TO.N,/FAULT_OK*%
X35500000Y-23750000D02*
X38750000Y-23750000D01*
X35500000Y-24000000D02*
X35500000Y-23750000D01*
X15250000Y-31250000D02*
X19000000Y-31250000D01*
X38750000Y-23750000D02*
X38750000Y-23500000D01*
X39250000Y-22000000D02*
X48250000Y-22000000D01*
X38750000Y-23500000D02*
X39250000Y-23500000D01*
X48250000Y-21500000D02*
X52500000Y-21500000D01*
X15250000Y-33500000D02*
X15250000Y-31250000D01*
X39250000Y-23500000D02*
X39250000Y-22000000D01*
X29500000Y-24000000D02*
X35500000Y-24000000D01*
X48250000Y-22000000D02*
X48250000Y-21500000D01*
X19000000Y-30000000D02*
X24500000Y-30000000D01*
X19000000Y-31250000D02*
X19000000Y-30000000D01*
X74500000Y-30000000D02*
X80000000Y-30000000D01*
%TO.N,/FAULT_R_N*%
X11250000Y-29000000D02*
X16250000Y-29000000D01*
X16250000Y-29000000D02*
X16250000Y-28750000D01*
X35000000Y-66000000D02*
X35000000Y-77750000D01*
X8750000Y-29500000D02*
X8750000Y-28750000D01*
X7500000Y-29500000D02*
X8750000Y-29500000D01*
X25500000Y-47250000D02*
X26000000Y-47250000D01*
X26000000Y-47250000D02*
X26000000Y-48250000D01*
X35000000Y-77750000D02*
X35750000Y-77750000D01*
X19000000Y-29000000D02*
X23000000Y-29000000D01*
X7000000Y-32500000D02*
X7500000Y-32500000D01*
X25500000Y-32750000D02*
X25500000Y-47250000D01*
X24500000Y-32750000D02*
X25500000Y-32750000D01*
X11250000Y-28750000D02*
X11250000Y-29000000D01*
X8750000Y-28750000D02*
X11250000Y-28750000D01*
X81000000Y-76250000D02*
X81000000Y-59500000D01*
X24500000Y-31500000D02*
X24500000Y-32750000D01*
X26000000Y-48250000D02*
X32750000Y-48250000D01*
X19000000Y-28750000D02*
X19000000Y-29000000D01*
X16250000Y-28750000D02*
X19000000Y-28750000D01*
X7500000Y-32500000D02*
X7500000Y-29500000D01*
%TO.N,/GND*%
X9250000Y-73750000D02*
X9250000Y-88500000D01*
X25000000Y-88500000D02*
X25000000Y-88540000D01*
X60250000Y-30250000D02*
X59000000Y-30250000D01*
X59000000Y-40500000D02*
X60250000Y-40500000D01*
X75000000Y-87250000D02*
X75000000Y-88500000D01*
X58890000Y-28950000D02*
X59000000Y-29000000D01*
X78000000Y-74250000D02*
X76000000Y-74250000D01*
X59000000Y-29000000D02*
X58890000Y-28950000D01*
X58890000Y-41650000D02*
X59000000Y-41750000D01*
X59000000Y-41750000D02*
X59000000Y-40500000D01*
X75000000Y-88500000D02*
X75000000Y-88540000D01*
X60250000Y-27750000D02*
X60250000Y-10500000D01*
X76250000Y-87250000D02*
X75000000Y-87250000D01*
X76250000Y-81000000D02*
X76250000Y-87250000D01*
X85750000Y-37500000D02*
X87500000Y-37500000D01*
X87500000Y-37500000D02*
X87620000Y-37620000D01*
X59000000Y-29000000D02*
X59000000Y-27750000D01*
X60250000Y-10500000D02*
X75000000Y-10500000D01*
X8000000Y-72500000D02*
X8000000Y-73750000D01*
X9250000Y-88500000D02*
X25000000Y-88500000D01*
X8000000Y-72620000D02*
X8000000Y-72500000D01*
X60250000Y-40500000D02*
X60250000Y-30250000D01*
X59000000Y-27750000D02*
X60250000Y-27750000D01*
X75000000Y-10500000D02*
X75000000Y-10540000D01*
X76000000Y-74250000D02*
X76000000Y-81000000D01*
X8000000Y-73750000D02*
X9250000Y-73750000D01*
X85750000Y-41250000D02*
X85750000Y-37500000D01*
X59000000Y-30250000D02*
X59000000Y-29000000D01*
X76000000Y-81000000D02*
X76250000Y-81000000D01*
%TO.N,/MCU_ENABLE*%
X60250000Y-70500000D02*
X67000000Y-70500000D01*
X39750000Y-73500000D02*
X42250000Y-73500000D01*
X12250000Y-45000000D02*
X12250000Y-38250000D01*
X57750000Y-73500000D02*
X60250000Y-73500000D01*
X76000000Y-68250000D02*
X76000000Y-67500000D01*
X76500000Y-68250000D02*
X76000000Y-68250000D01*
X41110000Y-61970000D02*
X41000000Y-62000000D01*
X41000000Y-62000000D02*
X27000000Y-62000000D01*
X76500000Y-70250000D02*
X76500000Y-68250000D01*
X76000000Y-67500000D02*
X69000000Y-67500000D01*
X69000000Y-44000000D02*
X67750000Y-44000000D01*
X42250000Y-74500000D02*
X57750000Y-74500000D01*
X39750000Y-62000000D02*
X39750000Y-73500000D01*
X41000000Y-62000000D02*
X39750000Y-62000000D01*
X42250000Y-73500000D02*
X42250000Y-74500000D01*
X67000000Y-70250000D02*
X76500000Y-70250000D01*
X67000000Y-70500000D02*
X67000000Y-70250000D01*
X41110000Y-61970000D02*
X41000000Y-62000000D01*
X27000000Y-62000000D02*
X27000000Y-61750000D01*
X69000000Y-67500000D02*
X69000000Y-44000000D01*
X60250000Y-73500000D02*
X60250000Y-70500000D01*
X57750000Y-74500000D02*
X57750000Y-73500000D01*
%TO.N,/PWM_L*%
X12000000Y-49250000D02*
X12000000Y-57500000D01*
X41110000Y-49270000D02*
X41000000Y-49250000D01*
X8500000Y-57500000D02*
X8500000Y-64250000D01*
X12000000Y-57500000D02*
X8500000Y-57500000D01*
X8000000Y-64250000D02*
X8000000Y-65000000D01*
X41000000Y-49250000D02*
X12000000Y-49250000D01*
X8500000Y-64250000D02*
X8000000Y-64250000D01*
%TO.N,/PWM_R*%
X41000000Y-58000000D02*
X39750000Y-58000000D01*
X39750000Y-59750000D02*
X38750000Y-59750000D01*
X38750000Y-66000000D02*
X38750000Y-68000000D01*
X80000000Y-73250000D02*
X80000000Y-73500000D01*
X41000000Y-57000000D02*
X41000000Y-58000000D01*
X86250000Y-65000000D02*
X88000000Y-65000000D01*
X41110000Y-56890000D02*
X41000000Y-57000000D01*
X39750000Y-58000000D02*
X39750000Y-59750000D01*
X86250000Y-73500000D02*
X86250000Y-65000000D01*
X76000000Y-73250000D02*
X80000000Y-73250000D01*
%TO.N,/RESET_CLOCK*%
X85750000Y-31000000D02*
X85750000Y-20000000D01*
%TO.N,/SCL*%
X41000000Y-39000000D02*
X28500000Y-39000000D01*
X29250000Y-72000000D02*
X29250000Y-75750000D01*
X28500000Y-39000000D02*
X28500000Y-45500000D01*
X29000000Y-72000000D02*
X29250000Y-72000000D01*
X41110000Y-39110000D02*
X41000000Y-39000000D01*
X29000000Y-65500000D02*
X29000000Y-72000000D01*
%TO.N,/SDA*%
X41110000Y-36570000D02*
X41000000Y-36500000D01*
X25000000Y-91000000D02*
X25000000Y-90000000D01*
X26250000Y-85500000D02*
X31000000Y-85500000D01*
X25000000Y-90000000D02*
X26250000Y-90000000D01*
X41000000Y-36500000D02*
X27000000Y-36500000D01*
X25000000Y-91080000D02*
X25000000Y-91000000D01*
X27000000Y-36500000D02*
X27000000Y-43250000D01*
X27000000Y-43250000D02*
X27250000Y-43250000D01*
X27250000Y-43250000D02*
X27250000Y-47000000D01*
X26250000Y-90000000D02*
X26250000Y-85500000D01*
%TO.N,/UART_RX*%
X74000000Y-72250000D02*
X74000000Y-84250000D01*
X69000000Y-43500000D02*
X69500000Y-43500000D01*
X76000000Y-71500000D02*
X76000000Y-71750000D01*
X47750000Y-26250000D02*
X48250000Y-26250000D01*
X69500000Y-46250000D02*
X72250000Y-46250000D01*
X48250000Y-26250000D02*
X48250000Y-24000000D01*
X69000000Y-29000000D02*
X69000000Y-43500000D01*
X69500000Y-43500000D02*
X69500000Y-46250000D01*
X78000000Y-71500000D02*
X76000000Y-71500000D01*
X41110000Y-26410000D02*
X41000000Y-26500000D01*
X41000000Y-26500000D02*
X47750000Y-26500000D01*
X47750000Y-26500000D02*
X47750000Y-26250000D01*
%TO.N,/UART_TX*%
X41000000Y-25000000D02*
X39750000Y-25000000D01*
X38750000Y-40750000D02*
X38750000Y-48250000D01*
X41110000Y-23870000D02*
X41000000Y-23750000D01*
X41000000Y-23750000D02*
X41000000Y-25000000D01*
X75000000Y-91000000D02*
X75000000Y-91080000D01*
X36750000Y-91000000D02*
X75000000Y-91000000D01*
X36750000Y-66000000D02*
X36750000Y-91000000D01*
X39750000Y-30500000D02*
X38750000Y-30500000D01*
X39750000Y-25000000D02*
X39750000Y-30500000D01*
%TD*%
M02*
